{
.appVersion = "3221";
.formatVersion = 3;
axes = (
{
name = Weight;
tag = wght;
}
);
classes = (
{
automatic = 1;
code = "A Aacute Abreve Acaron Acircumflex Adieresis Agrave Amacron Aogonek Aring Atilde AE AEacute B C Cacute Ccaron Ccedilla Cdotaccent D Dcaron Dcroat Eth E Eacute Ebreve Ecaron Ecircumflex Edieresis Edotaccent Egrave Emacron Eogonek Ereversed Etilde Schwa F G Gbreve Gcommaaccent Gdotaccent H Hbar I IJ Iacute Ibreve Icircumflex Idieresis Idotaccent Igrave Imacron Iogonek Itilde J Jacute K Kcommaaccent L Lacute Lcaron Lcommaaccent Ldot Lslash M N Nacute Ncaron Ncommaaccent Ntilde Eng O Oacute Obreve Ocircumflex Odieresis Ograve Ohungarumlaut Omacron Oslash Otilde OE P Thorn Q R Racute Rcaron Rcommaaccent S Sacute Scaron Scedilla Scommaaccent Germandbls T Tcaron Tcedilla Tcommaaccent U Uacute Ubreve Ucircumflex Udieresis Ugrave Uhungarumlaut Umacron Uogonek Uring Utilde V W Wacute Wcircumflex Wdieresis Wgrave X Y Yacute Ycircumflex Ydieresis Ygrave Ytilde Z Zacute Zcaron Zdotaccent Saltillo Ya-cy Delta Pi Omega";
name = Uppercase;
}
);
customParameters = (
{
name = blueScale;
value = 0.037;
},
{
name = "Use Typo Metrics";
value = 1;
},
{
name = fsType;
value = (
);
},
{
name = "Axis Mappings";
value = {
wght = {
400 = 400;
500 = 550;
600 = 600;
700 = 700;
800 = 800;
};
};
},
{
name = "Variable Font Origin";
value = m01;
}
);
date = "2021-03-04 17:58:23 +0000";
familyName = "Rethink Sans";
featurePrefixes = (
{
code = "lookup SUB_6 {
	sub L periodcentered by Ldot;
	sub l periodcentered by ldot;
} SUB_6;
";
name = Prefix;
},
{
automatic = 1;
code = "languagesystem DFLT dflt;

languagesystem latn dflt;
languagesystem latn AZE;
languagesystem latn CRT;
languagesystem latn KAZ;
languagesystem latn TAT;
languagesystem latn TRK;
languagesystem latn ROM;
languagesystem latn MOL;
languagesystem latn CAT;
languagesystem latn NLD;
";
name = Languagesystems;
}
);
features = (
{
automatic = 1;
code = "feature locl;
feature subs;
feature sinf;
feature sups;

glyphs = (
{
glyphname = A;
kernLeft = A;
kernRight = A;
lastChange = "2023-09-06 08:20:00 +0000";
layers = (
{
anchors = (
{
name = bottom;
pos = (288,0);
},
{
name = ogonek;
pos = (590,0);
},
{
name = top;
pos = (412,700);
}
);
background = {
anchors = (
{
name = bottom;
pos = (288,0);
},
{
name = ogonek;
pos = (590,0);
},
{
name = top;
pos = (412,700);
}
);
shapes = (
{
closed = 1;
nodes = (
(76,0,l),
(172,180,l),
(470,180,l),
(503,0,l),
(590,0,l),
(457,700,l),
(368,700,l),
(-14,0,l)
);
},
{
closed = 1;
nodes = (
(394,600,l),
(458,246,l),
(207,246,l)
);
}
);
};
hints = (
{
horizontal = 1;
place = (180,66);
type = Stem;
},
{
place = (-14,604);
type = Stem;
}
);
layerId = m01;
shapes = (
{
closed = 1;
nodes = (
(76,0,l),
(172,180,l),
(470,180,l),
(503,0,l),
(590,0,l),
(457,700,l),
(368,700,l),
(-14,0,l)
);
},
{
closed = 1;
nodes = (
(394,600,l),
(458,246,l),
(207,246,l)
);
}
);
width = 664;
},
{
anchors = (
{
name = bottom;
pos = (297,0);
},
{
name = ogonek;
pos = (625,0);
},
{
name = top;
pos = (421,700);
}
);
background = {
anchors = (
{
name = bottom;
pos = (297,0);
},
{
name = ogonek;
pos = (625,0);
},
{
name = top;
pos = (421,700);
}
);
shapes = (
{
closed = 1;
nodes = (
(104,0,l),
(189,162,l),
(462,162,l),
(490,0,l),
(625,0,l),
(493,700,l),
(348,700,l),
(-31,0,l)
);
},
{
closed = 1;
nodes = (
(395,556,l),
(446,260,l),
(240,260,l)
);
}
);
};
hints = (
{
horizontal = 1;
place = (152,88);
type = Stem;
},
{
place = (-31,646);
type = Stem;
}
);
layerId = "C673E357-C9AB-4A21-92F5-E812FFC50395";
shapes = (
{
closed = 1;
nodes = (
(104,0,l),
(189,162,l),
(462,162,l),
(490,0,l),
(625,0,l),
(493,700,l),
(348,700,l),
(-31,0,l)
);
},
{
closed = 1;
nodes = (
(395,556,l),
(446,260,l),
(240,260,l)
);
}
);
width = 681;
},
{
anchors = (
{
name = bottom;
pos = (305,0);
},
{
name = ogonek;
pos = (650,0);
},
{
name = top;
pos = (429,700);
}
);
background = {
anchors = (
{
name = bottom;
pos = (305,0);
},
{
name = ogonek;
pos = (650,0);
},
{
name = top;
pos = (429,700);
}
);
shapes = (
{
closed = 1;
nodes = (
(124,0,l),
(202,150,l),
(458,150,l),
(483,0,l),
(650,0,l),
(519,700,l),
(336,700,l),
(-41,0,l)
);
},
{
closed = 1;
nodes = (
(397,527,l),
(440,269,l),
(264,269,l)
);
}
);
};
hints = (
{
horizontal = 1;
place = (135,104);
type = Stem;
},
{
place = (-41,676);
type = Stem;
}
);
layerId = "3DCB9202-475F-4A42-ABEA-4A11C2D29AB5";
shapes = (
{
closed = 1;
nodes = (
(124,0,l),
(202,150,l),
(458,150,l),
(483,0,l),
(650,0,l),
(519,700,l),
(336,700,l),
(-41,0,l)
);
},
{
closed = 1;
nodes = (
(397,527,l),
(440,269,l),
(264,269,l)
);
}
);
width = 696;
}
);
note = A;
unicode = 65;
},
{
glyphname = Aacute;
kernLeft = A;
lastChange = "2023-05-08 22:22:48 +0000";
layers = (
{
background = {
anchors = (
{
name = bottom;
pos = (288,0);
},
{
name = ogonek;
pos = (590,0);
},
{
name = top;
pos = (453,931);
}
);
hints = (
{
horizontal = 1;
place = (180,66);
type = Stem;
},
{
place = (-14,604);
type = Stem;
},
{
horizontal = 1;
place = (594,43);
type = Stem;
},
{
place = (80,63);
type = Stem;
}
);
shapes = (
{
closed = 1;
nodes = (
(76,0,l),
(172,180,l),
(470,180,l),
(503,0,l),
(590,0,l),
(457,700,l),
(368,700,l),
(-14,0,l)
);
},
{
closed = 1;
nodes = (
(394,600,l),
(458,246,l),
(207,246,l)
);
},
{
closed = 1;
nodes = (
(545,858,l),
(558,931,l),
(325,804,l),
(314,741,l)
);
}
);
};
hints = (
{
horizontal = 1;
place = (180,66);
type = Stem;
},
{
place = (-14,633);
type = Stem;
}
);
layerId = m01;
shapes = (
{
ref = A;
},
{
pos = (227,0);
ref = acutecomb.case;
}
);
width = 664;
},
{
background = {
anchors = (
{
name = bottom;
pos = (297,0);
},
{
name = ogonek;
pos = (625,0);
},
{
name = top;
pos = (466,952);
}
);
hints = (
{
horizontal = 1;
place = (152,88);
type = Stem;
},
{
place = (-31,646);
type = Stem;
},
{
horizontal = 1;
place = (591,63);
type = Stem;
},
{
place = (79,77);
type = Stem;
}
);
shapes = (
{
closed = 1;
nodes = (
(104,0,l),
(189,162,l),
(462,162,l),
(490,0,l),
(625,0,l),
(493,700,l),
(348,700,l),
(-31,0,l)
);
},
{
closed = 1;
nodes = (
(395,556,l),
(446,260,l),
(240,260,l)
);
},
{
closed = 1;
nodes = (
(560,848,l),
(579,952,l),
(331,830,l),
(315,740,l)
);
}
);
};
hints = (
{
horizontal = 1;
place = (162,98);
type = Stem;
},
{
place = (-21,671);
type = Stem;
}
);
layerId = "C673E357-C9AB-4A21-92F5-E812FFC50395";
shapes = (
{
ref = A;
},
{
pos = (228,0);
ref = acutecomb.case;
}
);
width = 681;
},
{
background = {
anchors = (
{
name = bottom;
pos = (305,0);
},
{
name = ogonek;
pos = (650,0);
},
{
name = top;
pos = (477,966);
}
);
hints = (
{
horizontal = 1;
place = (135,104);
type = Stem;
},
{
place = (-41,676);
type = Stem;
},
{
horizontal = 1;
place = (589,76);
type = Stem;
},
{
place = (81,86);
type = Stem;
}
);
shapes = (
{
closed = 1;
nodes = (
(124,0,l),
(202,150,l),
(458,150,l),
(483,0,l),
(650,0,l),
(519,700,l),
(336,700,l),
(-41,0,l)
);
},
{
closed = 1;
nodes = (
(397,527,l),
(440,269,l),
(264,269,l)
);
},
{
closed = 1;
nodes = (
(572,841,l),
(595,966,l),
(337,847,l),
(318,739,l)
);
}
);
};
hints = (
{
horizontal = 1;
place = (150,119);
type = Stem;
},
{
place = (-26,696);
type = Stem;
}
);
layerId = "3DCB9202-475F-4A42-ABEA-4A11C2D29AB5";
shapes = (
{
ref = A;
},
{
pos = (231,0);
ref = acutecomb.case;
}
);
width = 696;
}
);
note = Aacute;
unicode = 193;
},
{
glyphname = Abreve;
kernLeft = A;
lastChange = "2023-05-03 08:05:36 +0000";
layers = (
{
background = {
anchors = (
{
name = bottom;
pos = (288,0);
},
{
name = ogonek;
pos = (590,0);
},
{
name = top;
pos = (448,901);
}
);
hints = (
{
horizontal = 1;
place = (180,66);
type = Stem;
},
{
place = (-14,604);
type = Stem;
},
{
horizontal = 1;
place = (611,-80);
type = Stem;
},
{
place = (45,-96);
type = Stem;
},
{
place = (275,-95);
type = Stem;
}
);
shapes = (
{
closed = 1;
nodes = (
(76,0,l),
(172,180,l),
(470,180,l),
(503,0,l),
(590,0,l),
(457,700,l),
(368,700,l),
(-14,0,l)
);
},
{
closed = 1;
nodes = (
(394,600,l),
(458,246,l),
(207,246,l)
);
},
{
closed = 1;
nodes = (
(512,757,o),
(569,814,o),
(585,887,cs),
(588,901,l),
(536,901,l),
(527,852,o),
(497,823,o),
(433,823,cs),
(378,823,o),
(355,844,o),
(355,881,cs),
(355,887,o),
(356,894,o),
(357,901,c),
(307,901,l),
(303,885,o),
(302,874,o),
(302,860,cs),
(302,800,o),
(341,757,o),
(421,757,cs)
);
}
);
};
hints = (
{
horizontal = 1;
place = (180,66);
type = Stem;
},
{
horizontal = 1;
place = (763,66);
type = Stem;
},
{
place = (-14,604);
type = Stem;
}
);
layerId = m01;
shapes = (
{
ref = A;
},
{
pos = (191,0);
ref = brevecomb.case;
}
);
width = 664;
},
{
background = {
anchors = (
{
name = bottom;
pos = (297,0);
},
{
name = ogonek;
pos = (625,0);
},
{
name = top;
pos = (459,917);
}
);
hints = (
{
horizontal = 1;
place = (152,88);
type = Stem;
},
{
place = (-31,646);
type = Stem;
},
{
horizontal = 1;
place = (602,-51);
type = Stem;
},
{
place = (37,-79);
type = Stem;
},
{
place = (280,-79);
type = Stem;
}
);
shapes = (
{
closed = 1;
nodes = (
(104,0,l),
(189,162,l),
(462,162,l),
(490,0,l),
(625,0,l),
(493,700,l),
(348,700,l),
(-31,0,l)
);
},
{
closed = 1;
nodes = (
(395,556,l),
(446,260,l),
(240,260,l)
);
},
{
closed = 1;
nodes = (
(524,749,o),
(595,808,o),
(611,900,cs),
(614,917,l),
(546,917,l),
(538,872,o),
(510,845,o),
(445,845,cs),
(390,845,o),
(369,865,o),
(369,899,cs),
(369,904,o),
(370,910,o),
(371,917,c),
(303,917,l),
(298,897,o),
(297,884,o),
(297,867,cs),
(297,794,o),
(344,749,o),
(428,749,cs)
);
}
);
};
hints = (
{
horizontal = 1;
place = (162,98);
type = Stem;
},
{
horizontal = 1;
place = (755,95);
type = Stem;
},
{
place = (-21,656);
type = Stem;
}
);
layerId = "C673E357-C9AB-4A21-92F5-E812FFC50395";
shapes = (
{
ref = A;
},
{
pos = (184,0);
ref = brevecomb.case;
}
);
width = 681;
},
{
background = {
anchors = (
{
name = bottom;
pos = (305,0);
},
{
name = ogonek;
pos = (650,0);
},
{
name = top;
pos = (468,928);
}
);
hints = (
{
horizontal = 1;
place = (135,104);
type = Stem;
},
{
place = (-41,676);
type = Stem;
},
{
horizontal = 1;
place = (596,-32);
type = Stem;
},
{
place = (35,-68);
type = Stem;
},
{
place = (287,-68);
type = Stem;
}
);
shapes = (
{
closed = 1;
nodes = (
(124,0,l),
(202,150,l),
(458,150,l),
(483,0,l),
(650,0,l),
(519,700,l),
(336,700,l),
(-41,0,l)
);
},
{
closed = 1;
nodes = (
(397,527,l),
(440,269,l),
(264,269,l)
);
},
{
closed = 1;
nodes = (
(534,744,o),
(613,804,o),
(630,909,cs),
(633,928,l),
(554,928,l),
(547,885,o),
(521,860,o),
(455,860,cs),
(400,860,o),
(380,878,o),
(380,911,cs),
(380,916,o),
(381,922,o),
(382,928,c),
(303,928,l),
(298,907,o),
(296,890,o),
(296,872,cs),
(296,790,o),
(349,744,o),
(435,744,cs)
);
}
);
};
hints = (
{
horizontal = 1;
place = (150,119);
type = Stem;
},
{
horizontal = 1;
place = (750,114);
type = Stem;
},
{
place = (-26,691);
type = Stem;
}
);
layerId = "3DCB9202-475F-4A42-ABEA-4A11C2D29AB5";
shapes = (
{
ref = A;
},
{
pos = (183,0);
ref = brevecomb.case;
}
);
width = 696;
}
);
note = Abreve;
unicode = 258;
},
{
glyphname = Acaron;
lastChange = "2023-05-03 08:05:36 +0000";
layers = (
{
background = {
anchors = (
{
name = bottom;
pos = (288,0);
},
{
name = ogonek;
pos = (590,0);
},
{
name = top;
pos = (447,901);
}
);
hints = (
{
horizontal = 1;
place = (180,66);
type = Stem;
},
{
place = (-14,604);
type = Stem;
},
{
horizontal = 1;
place = (608,1);
type = Stem;
},
{
place = (48,128);
type = Stem;
}
);
shapes = (
{
closed = 1;
nodes = (
(76,0,l),
(172,180,l),
(470,180,l),
(503,0,l),
(590,0,l),
(457,700,l),
(368,700,l),
(-14,0,l)
);
},
{
closed = 1;
nodes = (
(394,600,l),
(458,246,l),
(207,246,l)
);
},
{
closed = 1;
nodes = (
(572,836,l),
(584,901,l),
(432,817,l),
(310,901,l),
(298,836,l),
(421,754,l)
);
}
);
};
layerId = m01;
shapes = (
{
ref = A;
},
{
pos = (194,0);
ref = caroncomb.case;
}
);
width = 664;
},
{
background = {
anchors = (
{
name = bottom;
pos = (297,0);
},
{
name = ogonek;
pos = (625,0);
},
{
name = top;
pos = (459,918);
}
);
hints = (
{
horizontal = 1;
place = (152,88);
type = Stem;
},
{
place = (-31,646);
type = Stem;
},
{
horizontal = 1;
place = (599,25);
type = Stem;
},
{
place = (48,145);
type = Stem;
}
);
shapes = (
{
closed = 1;
nodes = (
(104,0,l),
(189,162,l),
(462,162,l),
(490,0,l),
(625,0,l),
(493,700,l),
(348,700,l),
(-31,0,l)
);
},
{
closed = 1;
nodes = (
(395,556,l),
(446,260,l),
(240,260,l)
);
},
{
closed = 1;
nodes = (
(589,826,l),
(605,918,l),
(444,833,l),
(313,918,l),
(297,826,l),
(429,746,l)
);
}
);
};
layerId = "C673E357-C9AB-4A21-92F5-E812FFC50395";
shapes = (
{
ref = A;
},
{
pos = (195,0);
ref = caroncomb.case;
}
);
width = 681;
},
{
background = {
anchors = (
{
name = bottom;
pos = (305,0);
},
{
name = ogonek;
pos = (650,0);
},
{
name = top;
pos = (469,929);
}
);
hints = (
{
horizontal = 1;
place = (135,104);
type = Stem;
},
{
place = (-41,676);
type = Stem;
},
{
horizontal = 1;
place = (593,41);
type = Stem;
},
{
place = (50,156);
type = Stem;
}
);
shapes = (
{
closed = 1;
nodes = (
(124,0,l),
(202,150,l),
(458,150,l),
(483,0,l),
(650,0,l),
(519,700,l),
(336,700,l),
(-41,0,l)
);
},
{
closed = 1;
nodes = (
(397,527,l),
(440,269,l),
(264,269,l)
);
},
{
closed = 1;
nodes = (
(603,819,l),
(621,929,l),
(454,844,l),
(317,929,l),
(299,819,l),
(437,741,l)
);
}
);
};
layerId = "3DCB9202-475F-4A42-ABEA-4A11C2D29AB5";
shapes = (
{
ref = A;
},
{
pos = (198,0);
ref = caroncomb.case;
}
);
width = 696;
}
);
unicode = 461;
},
{
glyphname = Acircumflex;
kernLeft = A;
lastChange = "2023-05-03 08:05:36 +0000";
layers = (
{
background = {
anchors = (
{
name = bottom;
pos = (288,0);
},
{
name = ogonek;
pos = (590,0);
},
{
name = top;
pos = (448,902);
}
);
hints = (
{
horizontal = 1;
place = (180,66);
type = Stem;
},
{
place = (-14,604);
type = Stem;
},
{
horizontal = 1;
place = (609,1);
type = Stem;
},
{
place = (50,128);
type = Stem;
}
);
shapes = (
{
closed = 1;
nodes = (
(76,0,l),
(172,180,l),
(470,180,l),
(503,0,l),
(590,0,l),
(457,700,l),
(368,700,l),
(-14,0,l)
);
},
{
closed = 1;
nodes = (
(394,600,l),
(458,246,l),
(207,246,l)
);
},
{
closed = 1;
nodes = (
(437,839,l),
(559,755,l),
(571,821,l),
(448,902,l),
(297,821,l),
(285,755,l)
);
}
);
};
hints = (
{
horizontal = 1;
place = (180,66);
type = Stem;
},
{
place = (-14,604);
type = Stem;
}
);
layerId = m01;
shapes = (
{
ref = A;
},
{
pos = (196,0);
ref = circumflexcomb.case;
}
);
width = 664;
},
{
background = {
anchors = (
{
name = bottom;
pos = (297,0);
},
{
name = ogonek;
pos = (625,0);
},
{
name = top;
pos = (459,919);
}
);
hints = (
{
horizontal = 1;
place = (152,88);
type = Stem;
},
{
place = (-31,646);
type = Stem;
},
{
horizontal = 1;
place = (600,25);
type = Stem;
},
{
place = (48,145);
type = Stem;
}
);
shapes = (
{
closed = 1;
nodes = (
(104,0,l),
(189,162,l),
(462,162,l),
(490,0,l),
(625,0,l),
(493,700,l),
(348,700,l),
(-31,0,l)
);
},
{
closed = 1;
nodes = (
(395,556,l),
(446,260,l),
(240,260,l)
);
},
{
closed = 1;
nodes = (
(443,829,l),
(575,747,l),
(591,839,l),
(459,919,l),
(299,839,l),
(283,747,l)
);
}
);
};
hints = (
{
horizontal = 1;
place = (162,98);
type = Stem;
},
{
place = (-21,656);
type = Stem;
}
);
layerId = "C673E357-C9AB-4A21-92F5-E812FFC50395";
shapes = (
{
ref = A;
},
{
pos = (195,0);
ref = circumflexcomb.case;
}
);
width = 681;
},
{
background = {
anchors = (
{
name = bottom;
pos = (305,0);
},
{
name = ogonek;
pos = (650,0);
},
{
name = top;
pos = (468,930);
}
);
hints = (
{
horizontal = 1;
place = (135,104);
type = Stem;
},
{
place = (-41,676);
type = Stem;
},
{
horizontal = 1;
place = (594,41);
type = Stem;
},
{
place = (48,156);
type = Stem;
}
);
shapes = (
{
closed = 1;
nodes = (
(124,0,l),
(202,150,l),
(458,150,l),
(483,0,l),
(650,0,l),
(519,700,l),
(336,700,l),
(-41,0,l)
);
},
{
closed = 1;
nodes = (
(397,527,l),
(440,269,l),
(264,269,l)
);
},
{
closed = 1;
nodes = (
(449,822,l),
(587,742,l),
(606,851,l),
(468,930,l),
(302,851,l),
(283,742,l)
);
}
);
};
hints = (
{
horizontal = 1;
place = (150,119);
type = Stem;
},
{
place = (-26,691);
type = Stem;
}
);
layerId = "3DCB9202-475F-4A42-ABEA-4A11C2D29AB5";
shapes = (
{
ref = A;
},
{
pos = (196,0);
ref = circumflexcomb.case;
}
);
width = 696;
}
);
note = Acircumflex;
unicode = 194;
},
{
glyphname = Adieresis;
kernLeft = A;
lastChange = "2023-05-03 08:05:36 +0000";
layers = (
{
background = {
anchors = (
{
name = bottom;
pos = (288,0);
},
{
name = ogonek;
pos = (590,0);
},
{
name = top;
pos = (445,889);
}
);
hints = (
{
horizontal = 1;
place = (180,66);
type = Stem;
},
{
place = (-14,604);
type = Stem;
},
{
horizontal = 1;
place = (628,-47);
type = Stem;
},
{
place = (37,-47);
type = Stem;
},
{
place = (197,-48);
type = Stem;
}
);
shapes = (
{
closed = 1;
nodes = (
(76,0,l),
(172,180,l),
(470,180,l),
(503,0,l),
(590,0,l),
(457,700,l),
(368,700,l),
(-14,0,l)
);
},
{
closed = 1;
nodes = (
(394,600,l),
(458,246,l),
(207,246,l)
);
},
{
closed = 1;
nodes = (
(555,775,o),
(581,800,o),
(581,833,cs),
(581,865,o),
(555,889,o),
(523,889,cs),
(490,889,o),
(465,865,o),
(465,833,cs),
(465,800,o),
(490,775,o),
(523,775,cs)
);
},
{
closed = 1;
nodes = (
(378,775,o),
(404,800,o),
(404,833,cs),
(404,865,o),
(378,889,o),
(346,889,cs),
(313,889,o),
(288,865,o),
(288,833,cs),
(288,800,o),
(313,775,o),
(346,775,cs)
);
}
);
};
hints = (
{
horizontal = 1;
place = (180,66);
type = Stem;
},
{
horizontal = 1;
place = (775,100);
type = Stem;
},
{
place = (304,100);
type = Stem;
},
{
place = (465,99);
type = Stem;
}
);
layerId = m01;
shapes = (
{
ref = A;
},
{
pos = (184,0);
ref = dieresiscomb.case;
}
);
width = 664;
},
{
background = {
anchors = (
{
name = bottom;
pos = (297,0);
},
{
name = ogonek;
pos = (625,0);
},
{
name = top;
pos = (463,934);
}
);
hints = (
{
horizontal = 1;
place = (152,88);
type = Stem;
},
{
place = (-31,646);
type = Stem;
},
{
horizontal = 1;
place = (618,-26);
type = Stem;
},
{
place = (-4,-26);
type = Stem;
},
{
place = (176,-26);
type = Stem;
}
);
shapes = (
{
closed = 1;
nodes = (
(104,0,l),
(189,162,l),
(462,162,l),
(490,0,l),
(625,0,l),
(493,700,l),
(348,700,l),
(-31,0,l)
);
},
{
closed = 1;
nodes = (
(395,556,l),
(446,260,l),
(240,260,l)
);
},
{
closed = 1;
nodes = (
(606,768,o),
(642,804,o),
(642,851,cs),
(642,898,o),
(606,934,o),
(559,934,cs),
(512,934,o),
(476,898,o),
(476,851,cs),
(476,804,o),
(512,768,o),
(559,768,cs)
);
},
{
closed = 1;
nodes = (
(384,768,o),
(420,804,o),
(420,851,cs),
(420,898,o),
(384,934,o),
(337,934,cs),
(290,934,o),
(254,898,o),
(254,851,cs),
(254,804,o),
(290,768,o),
(337,768,cs)
);
}
);
};
hints = (
{
horizontal = 1;
place = (162,98);
type = Stem;
},
{
horizontal = 1;
place = (768,124);
type = Stem;
},
{
place = (301,123);
type = Stem;
},
{
place = (481,123);
type = Stem;
}
);
layerId = "C673E357-C9AB-4A21-92F5-E812FFC50395";
shapes = (
{
ref = A;
},
{
pos = (146,0);
ref = dieresiscomb.case;
}
);
width = 681;
},
{
background = {
anchors = (
{
name = bottom;
pos = (305,0);
},
{
name = ogonek;
pos = (650,0);
},
{
name = top;
pos = (473,949);
}
);
hints = (
{
horizontal = 1;
place = (135,104);
type = Stem;
},
{
place = (-41,676);
type = Stem;
},
{
horizontal = 1;
place = (611,-12);
type = Stem;
},
{
place = (-19,-12);
type = Stem;
},
{
place = (174,-11);
type = Stem;
}
);
shapes = (
{
closed = 1;
nodes = (
(124,0,l),
(202,150,l),
(458,150,l),
(483,0,l),
(650,0,l),
(519,700,l),
(336,700,l),
(-41,0,l)
);
},
{
closed = 1;
nodes = (
(397,527,l),
(440,269,l),
(264,269,l)
);
},
{
closed = 1;
nodes = (
(629,759,o),
(670,801,o),
(670,854,cs),
(670,909,o),
(629,949,o),
(575,949,cs),
(521,949,o),
(480,909,o),
(480,854,cs),
(480,801,o),
(521,759,o),
(575,759,cs)
);
},
{
closed = 1;
nodes = (
(392,759,o),
(432,801,o),
(432,854,cs),
(432,909,o),
(392,949,o),
(337,949,cs),
(283,949,o),
(242,909,o),
(242,854,cs),
(242,801,o),
(283,759,o),
(337,759,cs)
);
}
);
};
hints = (
{
horizontal = 1;
place = (150,119);
type = Stem;
},
{
horizontal = 1;
place = (763,140);
type = Stem;
},
{
place = (299,138);
type = Stem;
},
{
place = (492,139);
type = Stem;
}
);
layerId = "3DCB9202-475F-4A42-ABEA-4A11C2D29AB5";
shapes = (
{
ref = A;
},
{
pos = (133,0);
ref = dieresiscomb.case;
}
);
width = 696;
}
);
note = Adieresis;
unicode = 196;
},
{
glyphname = Agrave;
kernLeft = A;
lastChange = "2023-05-03 08:05:36 +0000";
layers = (
{
background = {
anchors = (
{
name = bottom;
pos = (288,0);
},
{
name = ogonek;
pos = (590,0);
},
{
name = top;
pos = (453,931);
}
);
hints = (
{
horizontal = 1;
place = (180,66);
type = Stem;
},
{
place = (-14,604);
type = Stem;
},
{
horizontal = 1;
place = (594,43);
type = Stem;
},
{
place = (80,63);
type = Stem;
}
);
shapes = (
{
closed = 1;
nodes = (
(76,0,l),
(172,180,l),
(470,180,l),
(503,0,l),
(590,0,l),
(457,700,l),
(368,700,l),
(-14,0,l)
);
},
{
closed = 1;
nodes = (
(394,600,l),
(458,246,l),
(207,246,l)
);
},
{
closed = 1;
nodes = (
(535,804,l),
(348,931,l),
(335,858,l),
(524,741,l)
);
}
);
};
hints = (
{
horizontal = 1;
place = (180,66);
type = Stem;
},
{
place = (-14,604);
type = Stem;
}
);
layerId = m01;
shapes = (
{
ref = A;
},
{
pos = (227,0);
ref = gravecomb.case;
}
);
width = 664;
},
{
background = {
anchors = (
{
name = bottom;
pos = (297,0);
},
{
name = ogonek;
pos = (625,0);
},
{
name = top;
pos = (466,952);
}
);
hints = (
{
horizontal = 1;
place = (152,88);
type = Stem;
},
{
place = (-31,646);
type = Stem;
},
{
horizontal = 1;
place = (591,63);
type = Stem;
},
{
place = (79,77);
type = Stem;
}
);
shapes = (
{
closed = 1;
nodes = (
(104,0,l),
(189,162,l),
(462,162,l),
(490,0,l),
(625,0,l),
(493,700,l),
(348,700,l),
(-31,0,l)
);
},
{
closed = 1;
nodes = (
(395,556,l),
(446,260,l),
(240,260,l)
);
},
{
closed = 1;
nodes = (
(557,830,l),
(353,952,l),
(334,848,l),
(541,740,l)
);
}
);
};
hints = (
{
horizontal = 1;
place = (162,98);
type = Stem;
},
{
place = (-21,656);
type = Stem;
}
);
layerId = "C673E357-C9AB-4A21-92F5-E812FFC50395";
shapes = (
{
ref = A;
},
{
pos = (228,0);
ref = gravecomb.case;
}
);
width = 681;
},
{
background = {
anchors = (
{
name = bottom;
pos = (305,0);
},
{
name = ogonek;
pos = (650,0);
},
{
name = top;
pos = (477,966);
}
);
hints = (
{
horizontal = 1;
place = (135,104);
type = Stem;
},
{
place = (-41,676);
type = Stem;
},
{
horizontal = 1;
place = (589,76);
type = Stem;
},
{
place = (81,86);
type = Stem;
}
);
shapes = (
{
closed = 1;
nodes = (
(124,0,l),
(202,150,l),
(458,150,l),
(483,0,l),
(650,0,l),
(519,700,l),
(336,700,l),
(-41,0,l)
);
},
{
closed = 1;
nodes = (
(397,527,l),
(440,269,l),
(264,269,l)
);
},
{
closed = 1;
nodes = (
(574,847,l),
(359,966,l),
(336,841,l),
(555,739,l)
);
}
);
};
hints = (
{
horizontal = 1;
place = (150,119);
type = Stem;
},
{
place = (-26,691);
type = Stem;
}
);
layerId = "3DCB9202-475F-4A42-ABEA-4A11C2D29AB5";
shapes = (
{
ref = A;
},
{
pos = (231,0);
ref = gravecomb.case;
}
);
width = 696;
}
);
note = Agrave;
unicode = 192;
},
{
glyphname = Amacron;
kernLeft = A;
lastChange = "2023-05-03 08:05:36 +0000";
layers = (
{
background = {
anchors = (
{
name = bottom;
pos = (288,0);
},
{
name = ogonek;
pos = (590,0);
},
{
name = top;
pos = (440,859);
}
);
hints = (
{
horizontal = 1;
place = (180,66);
type = Stem;
},
{
place = (-14,604);
type = Stem;
},
{
horizontal = 1;
place = (650,-83);
type = Stem;
},
{
place = (11,201);
type = Stem;
}
);
shapes = (
{
closed = 1;
nodes = (
(76,0,l),
(172,180,l),
(470,180,l),
(503,0,l),
(590,0,l),
(457,700,l),
(368,700,l),
(-14,0,l)
);
},
{
closed = 1;
nodes = (
(394,600,l),
(458,246,l),
(207,246,l)
);
},
{
closed = 1;
nodes = (
(601,796,l),
(613,859,l),
(266,859,l),
(254,796,l)
);
}
);
};
hints = (
{
horizontal = 1;
place = (180,66);
type = Stem;
},
{
horizontal = 1;
place = (796,63);
type = Stem;
},
{
place = (-14,628);
type = Stem;
}
);
layerId = m01;
shapes = (
{
ref = A;
},
{
pos = (157,0);
ref = macroncomb.case;
}
);
width = 664;
},
{
background = {
anchors = (
{
name = bottom;
pos = (297,0);
},
{
name = ogonek;
pos = (625,0);
},
{
name = top;
pos = (452,874);
}
);
hints = (
{
horizontal = 1;
place = (152,88);
type = Stem;
},
{
place = (-31,646);
type = Stem;
},
{
horizontal = 1;
place = (637,-55);
type = Stem;
},
{
place = (9,228);
type = Stem;
}
);
shapes = (
{
closed = 1;
nodes = (
(104,0,l),
(189,162,l),
(462,162,l),
(490,0,l),
(625,0,l),
(493,700,l),
(348,700,l),
(-31,0,l)
);
},
{
closed = 1;
nodes = (
(395,556,l),
(446,260,l),
(240,260,l)
);
},
{
closed = 1;
nodes = (
(623,783,l),
(639,874,l),
(265,874,l),
(249,783,l)
);
}
);
};
hints = (
{
horizontal = 1;
place = (162,98);
type = Stem;
},
{
horizontal = 1;
place = (783,91);
type = Stem;
},
{
place = (-21,668);
type = Stem;
}
);
layerId = "C673E357-C9AB-4A21-92F5-E812FFC50395";
shapes = (
{
ref = A;
},
{
pos = (155,0);
ref = macroncomb.case;
}
);
width = 681;
},
{
background = {
anchors = (
{
name = bottom;
pos = (305,0);
},
{
name = ogonek;
pos = (650,0);
},
{
name = top;
pos = (462,884);
}
);
hints = (
{
horizontal = 1;
place = (135,104);
type = Stem;
},
{
place = (-41,676);
type = Stem;
},
{
horizontal = 1;
place = (628,-36);
type = Stem;
},
{
place = (10,246);
type = Stem;
}
);
shapes = (
{
closed = 1;
nodes = (
(124,0,l),
(202,150,l),
(458,150,l),
(483,0,l),
(650,0,l),
(519,700,l),
(336,700,l),
(-41,0,l)
);
},
{
closed = 1;
nodes = (
(397,527,l),
(440,269,l),
(264,269,l)
);
},
{
closed = 1;
nodes = (
(640,774,l),
(659,884,l),
(267,884,l),
(248,774,l)
);
}
);
};
hints = (
{
horizontal = 1;
place = (150,119);
type = Stem;
},
{
horizontal = 1;
place = (774,110);
type = Stem;
},
{
place = (-26,695);
type = Stem;
}
);
layerId = "3DCB9202-475F-4A42-ABEA-4A11C2D29AB5";
shapes = (
{
ref = A;
},
{
pos = (156,0);
ref = macroncomb.case;
}
);
width = 696;
}
);
note = Amacron;
unicode = 256;
},
{
glyphname = Aogonek;
kernLeft = A;
lastChange = "2023-05-03 08:05:36 +0000";
layers = (
{
background = {
anchors = (
{
name = bottom;
pos = (288,0);
},
{
name = ogonek;
pos = (590,0);
},
{
name = top;
pos = (412,700);
}
);
hints = (
{
horizontal = 1;
place = (180,66);
type = Stem;
},
{
place = (-14,604);
type = Stem;
},
{
horizontal = 1;
place = (-189,68);
type = Stem;
},
{
place = (457,82);
type = Stem;
}
);
shapes = (
{
closed = 1;
nodes = (
(76,0,l),
(172,180,l),
(470,180,l),
(503,0,l),
(590,0,l),
(457,700,l),
(368,700,l),
(-14,0,l)
);
},
{
closed = 1;
nodes = (
(394,600,l),
(458,246,l),
(207,246,l)
);
},
{
closed = 1;
nodes = (
(507,-203,o),
(533,-199,o),
(560,-190,c),
(569,-134,l),
(545,-144,o),
(522,-149,o),
(502,-149,cs),
(470,-149,o),
(449,-134,o),
(449,-109,cs),
(449,-81,o),
(469,-54,o),
(527,-28,cs),
(590,0,l),
(577,43,l),
(520,20,ls),
(414,-23,o),
(379,-72,o),
(379,-127,cs),
(379,-179,o),
(426,-203,o),
(482,-203,cs)
);
}
);
};
hints = (
{
horizontal = 1;
place = (-203,54);
type = Stem;
},
{
horizontal = 1;
place = (180,66);
type = Stem;
},
{
place = (-14,604);
type = Stem;
},
{
place = (375,71);
type = Stem;
}
);
layerId = m01;
shapes = (
{
ref = A;
},
{
pos = (443,0);
ref = ogonekcomb.case;
}
);
width = 664;
},
{
background = {
anchors = (
{
name = bottom;
pos = (297,0);
},
{
name = ogonek;
pos = (625,0);
},
{
name = top;
pos = (421,700);
}
);
hints = (
{
horizontal = 1;
place = (152,88);
type = Stem;
},
{
place = (-31,646);
type = Stem;
},
{
horizontal = 1;
place = (-197,88);
type = Stem;
},
{
place = (467,110);
type = Stem;
},
{
place = (467,233);
type = Stem;
}
);
shapes = (
{
closed = 1;
nodes = (
(104,0,l),
(189,162,l),
(462,162,l),
(490,0,l),
(625,0,l),
(493,700,l),
(348,700,l),
(-31,0,l)
);
},
{
closed = 1;
nodes = (
(395,556,l),
(446,260,l),
(240,260,l)
);
},
{
closed = 1;
nodes = (
(537,-210,o),
(569,-204,o),
(596,-196,c),
(609,-120,l),
(581,-130,o),
(556,-135,o),
(535,-135,cs),
(507,-135,o),
(490,-122,o),
(490,-102,cs),
(490,-74,o),
(510,-53,o),
(569,-26,cs),
(625,0,l),
(607,60,l),
(557,40,ls),
(428,-12,o),
(390,-65,o),
(390,-126,cs),
(390,-184,o),
(441,-210,o),
(506,-210,cs)
);
}
);
};
hints = (
{
horizontal = 1;
place = (-210,75);
type = Stem;
},
{
horizontal = 1;
place = (162,98);
type = Stem;
},
{
place = (-21,656);
type = Stem;
}
);
layerId = "C673E357-C9AB-4A21-92F5-E812FFC50395";
shapes = (
{
ref = A;
},
{
pos = (454,0);
ref = ogonekcomb.case;
}
);
width = 681;
},
{
background = {
anchors = (
{
name = bottom;
pos = (305,0);
},
{
name = ogonek;
pos = (650,0);
},
{
name = top;
pos = (429,700);
}
);
hints = (
{
horizontal = 1;
place = (135,104);
type = Stem;
},
{
place = (-41,676);
type = Stem;
},
{
horizontal = 1;
place = (-202,101);
type = Stem;
},
{
place = (475,334);
type = Stem;
}
);
shapes = (
{
closed = 1;
nodes = (
(124,0,l),
(202,150,l),
(458,150,l),
(483,0,l),
(650,0,l),
(519,700,l),
(336,700,l),
(-41,0,l)
);
},
{
closed = 1;
nodes = (
(397,527,l),
(440,269,l),
(264,269,l)
);
},
{
closed = 1;
nodes = (
(558,-215,o),
(594,-207,o),
(621,-200,c),
(637,-111,l),
(606,-121,o),
(580,-126,o),
(558,-126,cs),
(533,-126,o),
(519,-115,o),
(519,-98,cs),
(519,-71,o),
(539,-52,o),
(598,-25,cs),
(650,0,l),
(628,71,l),
(583,53,ls),
(440,-5,o),
(399,-61,o),
(399,-127,cs),
(399,-188,o),
(453,-215,o),
(523,-215,cs)
);
}
);
};
hints = (
{
horizontal = 1;
place = (-215,89);
type = Stem;
},
{
horizontal = 1;
place = (150,119);
type = Stem;
},
{
place = (9,-403);
type = Stem;
},
{
place = (-285,1046);
type = Stem;
}
);
layerId = "3DCB9202-475F-4A42-ABEA-4A11C2D29AB5";
shapes = (
{
ref = A;
},
{
pos = (463,0);
ref = ogonekcomb.case;
}
);
width = 696;
}
);
note = Aogonek;
unicode = 260;
},
{
glyphname = Aring;
kernLeft = A;
lastChange = "2023-05-03 08:05:36 +0000";
layers = (
{
background = {
anchors = (
{
name = bottom;
pos = (288,0);
},
{
name = ogonek;
pos = (590,0);
},
{
name = top;
pos = (459,967);
}
);
hints = (
{
horizontal = 1;
place = (180,66);
type = Stem;
},
{
place = (-14,604);
type = Stem;
},
{
horizontal = 1;
place = (609,-109);
type = Stem;
},
{
horizontal = 1;
place = (771,-108);
type = Stem;
},
{
place = (74,-104);
type = Stem;
},
{
place = (236,-104);
type = Stem;
}
);
shapes = (
{
closed = 1;
nodes = (
(76,0,l),
(172,180,l),
(470,180,l),
(503,0,l),
(590,0,l),
(457,700,l),
(368,700,l),
(-14,0,l)
);
},
{
closed = 1;
nodes = (
(394,600,l),
(458,246,l),
(207,246,l)
);
},
{
closed = 1;
nodes = (
(500,761,o),
(546,800,o),
(546,864,cs),
(546,928,o),
(500,967,o),
(441,967,cs),
(384,967,o),
(336,928,o),
(336,864,cs),
(336,800,o),
(384,761,o),
(441,761,cs)
);
},
{
closed = 1;
nodes = (
(409,804,o),
(384,828,o),
(384,864,cs),
(384,900,o),
(409,923,o),
(441,923,cs),
(473,923,o),
(498,900,o),
(498,864,cs),
(498,828,o),
(473,804,o),
(441,804,cs)
);
}
);
};
hints = (
{
horizontal = 1;
place = (180,66);
type = Stem;
},
{
horizontal = 1;
place = (761,43);
type = Stem;
},
{
horizontal = 1;
place = (923,44);
type = Stem;
},
{
place = (337,48);
type = Stem;
},
{
place = (499,48);
type = Stem;
}
);
layerId = m01;
shapes = (
{
ref = A;
},
{
pos = (226,0);
ref = ringcomb.case;
}
);
width = 664;
},
{
background = {
anchors = (
{
name = bottom;
pos = (297,0);
},
{
name = ogonek;
pos = (625,0);
},
{
name = top;
pos = (470,975);
}
);
hints = (
{
horizontal = 1;
place = (152,88);
type = Stem;
},
{
place = (-31,646);
type = Stem;
},
{
horizontal = 1;
place = (599,-94);
type = Stem;
},
{
horizontal = 1;
place = (765,-94);
type = Stem;
},
{
place = (74,-90);
type = Stem;
},
{
place = (240,-90);
type = Stem;
}
);
shapes = (
{
closed = 1;
nodes = (
(104,0,l),
(189,162,l),
(462,162,l),
(490,0,l),
(625,0,l),
(493,700,l),
(348,700,l),
(-31,0,l)
);
},
{
closed = 1;
nodes = (
(395,556,l),
(446,260,l),
(240,260,l)
);
},
{
closed = 1;
nodes = (
(513,751,o),
(564,794,o),
(564,863,cs),
(564,932,o),
(513,975,o),
(449,975,cs),
(388,975,o),
(336,932,o),
(336,863,cs),
(336,794,o),
(388,751,o),
(449,751,cs)
);
},
{
closed = 1;
nodes = (
(421,809,o),
(398,831,o),
(398,863,cs),
(398,896,o),
(421,917,o),
(449,917,cs),
(480,917,o),
(502,896,o),
(502,863,cs),
(502,831,o),
(480,809,o),
(449,809,cs)
);
}
);
};
hints = (
{
horizontal = 1;
place = (162,98);
type = Stem;
},
{
horizontal = 1;
place = (751,58);
type = Stem;
},
{
horizontal = 1;
place = (917,58);
type = Stem;
},
{
place = (345,61);
type = Stem;
},
{
place = (511,61);
type = Stem;
}
);
layerId = "C673E357-C9AB-4A21-92F5-E812FFC50395";
shapes = (
{
ref = A;
},
{
pos = (226,0);
ref = ringcomb.case;
}
);
width = 681;
},
{
background = {
anchors = (
{
name = bottom;
pos = (305,0);
},
{
name = ogonek;
pos = (650,0);
},
{
name = top;
pos = (479,980);
}
);
hints = (
{
horizontal = 1;
place = (135,104);
type = Stem;
},
{
place = (-41,676);
type = Stem;
},
{
horizontal = 1;
place = (592,-84);
type = Stem;
},
{
horizontal = 1;
place = (761,-85);
type = Stem;
},
{
place = (76,-81);
type = Stem;
},
{
place = (245,-81);
type = Stem;
}
);
shapes = (
{
closed = 1;
nodes = (
(124,0,l),
(202,150,l),
(458,150,l),
(483,0,l),
(650,0,l),
(519,700,l),
(336,700,l),
(-41,0,l)
);
},
{
closed = 1;
nodes = (
(397,527,l),
(440,269,l),
(264,269,l)
);
},
{
closed = 1;
nodes = (
(525,744,o),
(578,790,o),
(578,862,cs),
(578,935,o),
(525,980,o),
(457,980,cs),
(394,980,o),
(338,935,o),
(338,862,cs),
(338,790,o),
(394,744,o),
(457,744,cs)
);
},
{
closed = 1;
nodes = (
(432,812,o),
(409,833,o),
(409,862,cs),
(409,893,o),
(432,913,o),
(457,913,cs),
(488,913,o),
(507,893,o),
(507,862,cs),
(507,833,o),
(488,812,o),
(457,812,cs)
);
}
);
};
hints = (
{
horizontal = 1;
place = (150,119);
type = Stem;
},
{
horizontal = 1;
place = (744,68);
type = Stem;
},
{
horizontal = 1;
place = (913,67);
type = Stem;
},
{
place = (350,70);
type = Stem;
},
{
place = (519,70);
type = Stem;
}
);
layerId = "3DCB9202-475F-4A42-ABEA-4A11C2D29AB5";
shapes = (
{
ref = A;
},
{
pos = (228,0);
ref = ringcomb.case;
}
);
width = 696;
}
);
note = Aring;
unicode = 197;
},
{
glyphname = Atilde;
kernLeft = A;
lastChange = "2023-05-11 00:53:52 +0000";
layers = (
{
background = {
anchors = (
{
name = bottom;
pos = (288,0);
},
{
name = ogonek;
pos = (590,0);
},
{
name = top;
pos = (440,859);
}
);
hints = (
{
horizontal = 1;
place = (180,66);
type = Stem;
},
{
place = (-14,604);
type = Stem;
},
{
horizontal = 1;
place = (614,-86);
type = Stem;
},
{
place = (39,-93);
type = Stem;
},
{
place = (292,-93);
type = Stem;
},
{
horizontal = 1;
place = (661,-86);
type = Stem;
}
);
shapes = (
{
closed = 1;
nodes = (
(76,0,l),
(172,180,l),
(470,180,l),
(503,0,l),
(590,0,l),
(457,700,l),
(368,700,l),
(-14,0,l)
);
},
{
closed = 1;
nodes = (
(394,600,l),
(458,246,l),
(207,246,l)
);
},
{
closed = 1;
nodes = (
(528,756,o),
(571,792,o),
(591,857,c),
(542,857,l),
(532,826,o),
(512,812,o),
(491,812,cs),
(445,812,o),
(438,859,o),
(384,859,cs),
(333,859,o),
(292,826,o),
(271,758,c),
(320,758,l),
(330,788,o),
(346,803,o),
(370,803,cs),
(417,803,o),
(422,756,o),
(477,756,cs)
);
}
);
};
hints = (
{
horizontal = 1;
place = (180,66);
type = Stem;
},
{
horizontal = 1;
place = (804,56);
type = Stem;
},
{
place = (-14,616);
type = Stem;
},
{
horizontal = 1;
place = (757,56);
type = Stem;
}
);
layerId = m01;
shapes = (
{
ref = A;
},
{
pos = (181,0);
ref = tildecomb.case;
}
);
width = 664;
},
{
background = {
anchors = (
{
name = bottom;
pos = (297,0);
},
{
name = ogonek;
pos = (625,0);
},
{
name = top;
pos = (452,877);
}
);
hints = (
{
horizontal = 1;
place = (152,88);
type = Stem;
},
{
place = (-31,646);
type = Stem;
},
{
horizontal = 1;
place = (608,-65);
type = Stem;
},
{
place = (21,207);
type = Stem;
},
{
horizontal = 1;
place = (654,-65);
type = Stem;
}
);
shapes = (
{
closed = 1;
nodes = (
(104,0,l),
(189,162,l),
(462,162,l),
(490,0,l),
(625,0,l),
(493,700,l),
(348,700,l),
(-31,0,l)
);
},
{
closed = 1;
nodes = (
(395,556,l),
(446,260,l),
(240,260,l)
);
},
{
closed = 1;
nodes = (
(548,752,o),
(600,791,o),
(627,876,c),
(559,876,l),
(549,845,o),
(531,831,o),
(508,831,cs),
(461,831,o),
(448,877,o),
(393,877,cs),
(332,877,o),
(282,838,o),
(254,753,c),
(322,753,l),
(332,783,o),
(349,798,o),
(373,798,cs),
(420,798,o),
(433,752,o),
(488,752,cs)
);
}
);
};
hints = (
{
horizontal = 1;
place = (162,98);
type = Stem;
},
{
horizontal = 1;
place = (800,80);
type = Stem;
},
{
place = (-21,663);
type = Stem;
},
{
horizontal = 1;
place = (755,79);
type = Stem;
}
);
layerId = "C673E357-C9AB-4A21-92F5-E812FFC50395";
shapes = (
{
ref = A;
},
{
pos = (165,0);
ref = tildecomb.case;
}
);
width = 681;
},
{
background = {
anchors = (
{
name = bottom;
pos = (305,0);
},
{
name = ogonek;
pos = (650,0);
},
{
name = top;
pos = (462,889);
}
);
hints = (
{
horizontal = 1;
place = (135,104);
type = Stem;
},
{
place = (-41,676);
type = Stem;
},
{
horizontal = 1;
place = (604,-51);
type = Stem;
},
{
place = (251,62);
type = Stem;
},
{
place = (-158,407);
type = Stem;
},
{
horizontal = 1;
place = (649,-51);
type = Stem;
}
);
shapes = (
{
closed = 1;
nodes = (
(124,0,l),
(202,150,l),
(458,150,l),
(483,0,l),
(650,0,l),
(519,700,l),
(336,700,l),
(-41,0,l)
);
},
{
closed = 1;
nodes = (
(397,527,l),
(440,269,l),
(264,269,l)
);
},
{
closed = 1;
nodes = (
(563,749,o),
(621,790,o),
(653,889,c),
(572,889,l),
(562,858,o),
(545,844,o),
(521,844,cs),
(473,844,o),
(456,889,o),
(401,889,cs),
(333,889,o),
(277,846,o),
(244,750,c),
(325,750,l),
(335,780,o),
(353,795,o),
(377,795,cs),
(424,795,o),
(442,749,o),
(497,749,cs)
);
}
);
};
hints = (
{
horizontal = 1;
place = (150,119);
type = Stem;
},
{
horizontal = 1;
place = (797,96);
type = Stem;
},
{
place = (-26,694);
type = Stem;
},
{
horizontal = 1;
place = (754,94);
type = Stem;
}
);
layerId = "3DCB9202-475F-4A42-ABEA-4A11C2D29AB5";
shapes = (
{
ref = A;
},
{
pos = (168,0);
ref = tildecomb.case;
}
);
width = 696;
}
);
note = Atilde;
unicode = 195;
},
{
glyphname = AE;
kernLeft = AE;
lastChange = "2023-05-03 08:29:20 +0000";
layers = (
{
anchors = (
{
name = bottom;
pos = (415,0);
},
{
name = top;
pos = (719,700);
}
);
background = {
anchors = (
{
name = bottom;
pos = (415,0);
},
{
name = top;
pos = (539,700);
}
);
shapes = (
{
closed = 1;
nodes = (
(78,0,l),
(197,159,l),
(465,159,l),
(437,0,l),
(810,0,l),
(822,67,l),
(534,67,l),
(578,320,l),
(837,320,l),
(848,386,l),
(589,386,l),
(633,633,l),
(922,633,l),
(934,700,l),
(509,700,l),
(-14,0,l)
);
},
{
closed = 1;
nodes = (
(549,631,l),
(477,226,l),
(246,226,l)
);
}
);
};
hints = (
{
horizontal = 1;
place = (0,226);
type = Stem;
},
{
horizontal = 1;
place = (320,66);
type = Stem;
},
{
horizontal = 1;
place = (633,67);
type = Stem;
},
{
place = (-14,948);
type = Stem;
},
{
horizontal = 1;
place = (0,67);
type = Stem;
},
{
horizontal = 1;
place = (159,67);
type = Stem;
}
);
layerId = m01;
shapes = (
{
closed = 1;
nodes = (
(78,0,l),
(197,159,l),
(465,159,l),
(437,0,l),
(810,0,l),
(822,67,l),
(534,67,l),
(578,320,l),
(837,320,l),
(848,386,l),
(589,386,l),
(633,633,l),
(922,633,l),
(934,700,l),
(509,700,l),
(-14,0,l)
);
},
{
closed = 1;
nodes = (
(549,631,l),
(477,226,l),
(246,226,l)
);
}
);
width = 917;
},
{
anchors = (
{
name = bottom;
pos = (419,0);
},
{
name = top;
pos = (683,700);
}
);
background = {
anchors = (
{
name = bottom;
pos = (419,0);
},
{
name = top;
pos = (543,700);
}
);
shapes = (
{
closed = 1;
nodes = (
(108,0,l),
(208,138,l),
(457,138,l),
(432,0,l),
(831,0,l),
(849,101,l),
(579,101,l),
(615,306,l),
(856,306,l),
(873,405,l),
(631,405,l),
(666,599,l),
(937,599,l),
(955,700,l),
(472,700,l),
(-31,0,l)
);
},
{
closed = 1;
nodes = (
(539,602,l),
(474,237,l),
(278,237,l)
);
}
);
};
hints = (
{
horizontal = 1;
place = (-10,91);
type = Stem;
},
{
horizontal = 1;
place = (128,89);
type = Stem;
},
{
horizontal = 1;
place = (296,89);
type = Stem;
},
{
horizontal = 1;
place = (589,91);
type = Stem;
},
{
place = (-31,976);
type = Stem;
}
);
layerId = "C673E357-C9AB-4A21-92F5-E812FFC50395";
shapes = (
{
closed = 1;
nodes = (
(108,0,l),
(208,138,l),
(457,138,l),
(432,0,l),
(831,0,l),
(849,101,l),
(579,101,l),
(615,306,l),
(856,306,l),
(873,405,l),
(631,405,l),
(666,599,l),
(937,599,l),
(955,700,l),
(472,700,l),
(-31,0,l)
);
},
{
closed = 1;
nodes = (
(539,602,l),
(474,237,l),
(278,237,l)
);
}
);
width = 925;
},
{
anchors = (
{
name = bottom;
pos = (423,0);
},
{
name = top;
pos = (687,700);
}
);
background = {
anchors = (
{
name = bottom;
pos = (423,0);
},
{
name = top;
pos = (547,700);
}
);
shapes = (
{
closed = 1;
nodes = (
(130,0,l),
(217,124,l),
(453,124,l),
(430,0,l),
(847,0,l),
(869,124,l),
(611,124,l),
(641,297,l),
(870,297,l),
(891,418,l),
(661,418,l),
(690,576,l),
(949,576,l),
(971,700,l),
(449,700,l),
(-41,0,l)
);
},
{
closed = 1;
nodes = (
(534,583,l),
(474,244,l),
(301,244,l)
);
}
);
};
hints = (
{
horizontal = 1;
place = (-15,3);
type = Stem;
},
{
horizontal = 1;
place = (282,106);
type = Stem;
},
{
horizontal = 1;
place = (561,109);
type = Stem;
},
{
place = (-6,-647);
type = Stem;
},
{
horizontal = 1;
place = (-50,1584);
type = Stem;
},
{
horizontal = 1;
place = (109,105);
type = Stem;
}
);
layerId = "3DCB9202-475F-4A42-ABEA-4A11C2D29AB5";
shapes = (
{
closed = 1;
nodes = (
(130,0,l),
(217,124,l),
(453,124,l),
(430,0,l),
(847,0,l),
(869,124,l),
(611,124,l),
(641,297,l),
(870,297,l),
(891,418,l),
(661,418,l),
(690,576,l),
(949,576,l),
(971,700,l),
(449,700,l),
(-41,0,l)
);
},
{
closed = 1;
nodes = (
(534,583,l),
(474,244,l),
(301,244,l)
);
}
);
width = 934;
}
);
note = AE;
unicode = 198;
},
{
glyphname = AEacute;
kernLeft = AE;
lastChange = "2023-05-03 08:29:20 +0000";
layers = (
{
background = {
anchors = (
{
name = bottom;
pos = (415,0);
},
{
name = top;
pos = (580,931);
}
);
hints = (
{
horizontal = 1;
place = (0,226);
type = Stem;
},
{
horizontal = 1;
place = (320,66);
type = Stem;
},
{
horizontal = 1;
place = (633,67);
type = Stem;
},
{
place = (-14,948);
type = Stem;
},
{
horizontal = 1;
place = (0,67);
type = Stem;
},
{
horizontal = 1;
place = (159,67);
type = Stem;
},
{
horizontal = 1;
place = (594,43);
type = Stem;
},
{
place = (207,63);
type = Stem;
}
);
shapes = (
{
closed = 1;
nodes = (
(78,0,l),
(197,159,l),
(465,159,l),
(437,0,l),
(810,0,l),
(822,67,l),
(534,67,l),
(578,320,l),
(837,320,l),
(848,386,l),
(589,386,l),
(633,633,l),
(922,633,l),
(934,700,l),
(509,700,l),
(-14,0,l)
);
},
{
closed = 1;
nodes = (
(549,631,l),
(477,226,l),
(246,226,l)
);
},
{
closed = 1;
nodes = (
(672,858,l),
(685,931,l),
(452,804,l),
(441,741,l)
);
}
);
};
hints = (
{
horizontal = 1;
place = (0,67);
type = Stem;
},
{
horizontal = 1;
place = (159,67);
type = Stem;
},
{
horizontal = 1;
place = (320,66);
type = Stem;
},
{
horizontal = 1;
place = (633,67);
type = Stem;
},
{
place = (-14,948);
type = Stem;
}
);
layerId = m01;
shapes = (
{
ref = AE;
},
{
pos = (534,0);
ref = acutecomb.case;
}
);
width = 917;
},
{
background = {
anchors = (
{
name = bottom;
pos = (419,0);
},
{
name = top;
pos = (588,952);
}
);
hints = (
{
horizontal = 1;
place = (-10,91);
type = Stem;
},
{
horizontal = 1;
place = (128,89);
type = Stem;
},
{
horizontal = 1;
place = (296,89);
type = Stem;
},
{
horizontal = 1;
place = (589,91);
type = Stem;
},
{
place = (-31,976);
type = Stem;
},
{
horizontal = 1;
place = (591,63);
type = Stem;
},
{
place = (201,77);
type = Stem;
}
);
shapes = (
{
closed = 1;
nodes = (
(108,0,l),
(208,138,l),
(457,138,l),
(432,0,l),
(831,0,l),
(849,101,l),
(579,101,l),
(615,306,l),
(856,306,l),
(873,405,l),
(631,405,l),
(666,599,l),
(937,599,l),
(955,700,l),
(472,700,l),
(-31,0,l)
);
},
{
closed = 1;
nodes = (
(539,602,l),
(474,237,l),
(278,237,l)
);
},
{
closed = 1;
nodes = (
(682,848,l),
(701,952,l),
(453,830,l),
(437,740,l)
);
}
);
};
hints = (
{
horizontal = 1;
place = (0,101);
type = Stem;
},
{
horizontal = 1;
place = (138,99);
type = Stem;
},
{
horizontal = 1;
place = (306,99);
type = Stem;
},
{
horizontal = 1;
place = (599,101);
type = Stem;
},
{
place = (-21,986);
type = Stem;
}
);
layerId = "C673E357-C9AB-4A21-92F5-E812FFC50395";
shapes = (
{
ref = AE;
},
{
pos = (490,0);
ref = acutecomb.case;
}
);
width = 925;
},
{
background = {
anchors = (
{
name = bottom;
pos = (423,0);
},
{
name = top;
pos = (595,966);
}
);
hints = (
{
horizontal = 1;
place = (-15,3);
type = Stem;
},
{
horizontal = 1;
place = (282,106);
type = Stem;
},
{
horizontal = 1;
place = (561,109);
type = Stem;
},
{
place = (-6,-647);
type = Stem;
},
{
horizontal = 1;
place = (-50,1584);
type = Stem;
},
{
horizontal = 1;
place = (109,105);
type = Stem;
},
{
horizontal = 1;
place = (589,76);
type = Stem;
},
{
place = (199,86);
type = Stem;
}
);
shapes = (
{
closed = 1;
nodes = (
(130,0,l),
(217,124,l),
(453,124,l),
(430,0,l),
(847,0,l),
(869,124,l),
(611,124,l),
(641,297,l),
(870,297,l),
(891,418,l),
(661,418,l),
(690,576,l),
(949,576,l),
(971,700,l),
(449,700,l),
(-41,0,l)
);
},
{
closed = 1;
nodes = (
(534,583,l),
(474,244,l),
(301,244,l)
);
},
{
closed = 1;
nodes = (
(690,841,l),
(713,966,l),
(455,847,l),
(436,739,l)
);
}
);
};
hints = (
{
horizontal = 1;
place = (0,124);
type = Stem;
},
{
horizontal = 1;
place = (124,120);
type = Stem;
},
{
horizontal = 1;
place = (297,121);
type = Stem;
},
{
horizontal = 1;
place = (576,124);
type = Stem;
},
{
place = (-26,1011);
type = Stem;
}
);
layerId = "3DCB9202-475F-4A42-ABEA-4A11C2D29AB5";
shapes = (
{
ref = AE;
},
{
pos = (489,0);
ref = acutecomb.case;
}
);
width = 934;
}
);
note = AEacute;
unicode = 508;
},
{
glyphname = B;
kernRight = D;
lastChange = "2023-05-16 19:24:34 +0000";
layers = (
{
background = {
shapes = (
{
closed = 1;
nodes = (
(295,0,ls),
(457,0,o),
(556,94,o),
(556,225,cs),
(556,292,o),
(519,352,o),
(445,377,c),
(524,399,o),
(583,467,o),
(583,548,cs),
(583,633,o),
(525,700,o),
(396,700,cs),
(155,700,l),
(31,0,l)
);
},
{
closed = 1;
nodes = (
(175,339,l),
(327,339,ls),
(422,339,o),
(472,297,o),
(472,223,cs),
(472,124,o),
(405,70,o),
(282,70,cs),
(128,70,l)
);
},
{
closed = 1;
nodes = (
(226,630,l),
(374,630,ls),
(464,630,o),
(495,587,o),
(495,531,cs),
(495,451,o),
(430,406,o),
(338,406,cs),
(187,406,l)
);
}
);
};
hints = (
{
horizontal = 1;
place = (0,68);
type = Stem;
},
{
horizontal = 1;
place = (327,66);
type = Stem;
},
{
horizontal = 1;
place = (633,67);
type = Stem;
},
{
place = (465,83);
type = Stem;
},
{
place = (503,88);
type = Stem;
}
);
layerId = m01;
shapes = (
{
closed = 1;
nodes = (
(295,0,ls),
(457,0,o),
(556,94,o),
(556,225,cs),
(556,292,o),
(519,352,o),
(445,377,c),
(524,399,o),
(583,467,o),
(583,548,cs),
(583,633,o),
(525,700,o),
(396,700,cs),
(155,700,l),
(31,0,l)
);
},
{
closed = 1;
nodes = (
(175,339,l),
(327,339,ls),
(422,339,o),
(472,297,o),
(472,223,cs),
(472,124,o),
(405,70,o),
(282,70,cs),
(128,70,l)
);
},
{
closed = 1;
nodes = (
(226,630,l),
(374,630,ls),
(464,630,o),
(495,587,o),
(495,531,cs),
(495,451,o),
(430,406,o),
(338,406,cs),
(187,406,l)
);
}
);
width = 609;
},
{
background = {
shapes = (
{
closed = 1;
nodes = (
(305,0,ls),
(461,0,o),
(573,93,o),
(573,217,cs),
(573,287,o),
(528,352,o),
(467,375,c),
(558,408,o),
(599,478,o),
(599,547,cs),
(599,633,o),
(534,700,o),
(403,700,cs),
(138,700,l),
(14,0,l)
);
},
{
closed = 1;
nodes = (
(197,311,l),
(346,311,ls),
(414,311,o),
(444,274,o),
(444,225,cs),
(444,153,o),
(402,109,o),
(313,109,cs),
(162,109,l)
);
},
{
closed = 1;
nodes = (
(246,591,l),
(370,591,ls),
(438,591,o),
(464,558,o),
(464,516,cs),
(464,465,o),
(437,420,o),
(342,420,cs),
(216,420,l)
);
}
);
};
hints = (
{
horizontal = 1;
place = (-10,92);
type = Stem;
},
{
horizontal = 1;
place = (300,85);
type = Stem;
},
{
horizontal = 1;
place = (589,91);
type = Stem;
},
{
place = (444,118);
type = Stem;
},
{
place = (479,125);
type = Stem;
}
);
layerId = "C673E357-C9AB-4A21-92F5-E812FFC50395";
shapes = (
{
closed = 1;
nodes = (
(305,0,ls),
(461,0,o),
(573,93,o),
(573,217,cs),
(573,287,o),
(528,352,o),
(467,375,c),
(558,408,o),
(599,478,o),
(599,547,cs),
(599,633,o),
(534,700,o),
(403,700,cs),
(138,700,l),
(14,0,l)
);
},
{
closed = 1;
nodes = (
(197,311,l),
(346,311,ls),
(414,311,o),
(444,274,o),
(444,225,cs),
(444,153,o),
(402,109,o),
(313,109,cs),
(162,109,l)
);
},
{
closed = 1;
nodes = (
(246,591,l),
(370,591,ls),
(438,591,o),
(464,558,o),
(464,516,cs),
(464,465,o),
(437,420,o),
(342,420,cs),
(216,420,l)
);
}
);
width = 618;
},
{
background = {
hints = (
{
horizontal = 1;
place = (0,125);
type = Stem;
},
{
horizontal = 1;
place = (299,114);
type = Stem;
},
{
horizontal = 1;
place = (576,124);
type = Stem;
},
{
place = (447,158);
type = Stem;
},
{
place = (480,166);
type = Stem;
}
);
shapes = (
{
closed = 1;
nodes = (
(313,0,ls),
(465,0,o),
(586,92,o),
(586,212,cs),
(586,284,o),
(536,352,o),
(483,374,c),
(582,414,o),
(611,485,o),
(611,546,cs),
(611,633,o),
(542,700,o),
(409,700,cs),
(128,700,l),
(4,0,l)
);
},
{
closed = 1;
nodes = (
(213,292,l),
(360,292,ls),
(410,292,o),
(427,259,o),
(427,226,cs),
(427,169,o),
(398,135,o),
(335,135,cs),
(186,135,l)
);
},
{
closed = 1;
nodes = (
(261,565,l),
(369,565,ls),
(422,565,o),
(445,539,o),
(445,506,cs),
(445,454,o),
(413,429,o),
(346,429,cs),
(237,429,l)
);
}
);
};
hints = (
{
horizontal = 1;
place = (-15,110);
type = Stem;
},
{
horizontal = 1;
place = (284,99);
type = Stem;
},
{
horizontal = 1;
place = (561,109);
type = Stem;
},
{
place = (432,143);
type = Stem;
},
{
place = (465,151);
type = Stem;
}
);
layerId = "3DCB9202-475F-4A42-ABEA-4A11C2D29AB5";
shapes = (
{
closed = 1;
nodes = (
(313,0,ls),
(465,0,o),
(586,92,o),
(586,212,cs),
(586,284,o),
(536,352,o),
(483,374,c),
(582,414,o),
(611,485,o),
(611,546,cs),
(611,633,o),
(542,700,o),
(409,700,cs),
(128,700,l),
(4,0,l)
);
},
{
closed = 1;
nodes = (
(213,292,l),
(360,292,ls),
(410,292,o),
(427,259,o),
(427,226,cs),
(427,169,o),
(398,135,o),
(335,135,cs),
(186,135,l)
);
},
{
closed = 1;
nodes = (
(261,565,l),
(369,565,ls),
(422,565,o),
(445,539,o),
(445,506,cs),
(445,454,o),
(413,429,o),
(346,429,cs),
(237,429,l)
);
}
);
width = 627;
}
);
note = B;
unicode = 66;
},
{
glyphname = C;
kernLeft = C;
kernRight = D;
lastChange = "2023-05-16 19:27:07 +0000";
layers = (
{
anchors = (
{
name = bottom;
pos = (317,0);
},
{
name = top;
pos = (441,700);
}
);
background = {
anchors = (
{
name = bottom;
pos = (317,0);
},
{
name = top;
pos = (441,700);
}
);
hints = (
{
horizontal = 1;
place = (-12,74);
type = Stem;
},
{
horizontal = 1;
place = (638,74);
type = Stem;
},
{
place = (59,88);
type = Stem;
}
);
shapes = (
{
closed = 1;
nodes = (
(498,-12,o),
(615,67,o),
(667,203,c),
(572,203,l),
(537,116,o),
(463,62,o),
(351,62,cs),
(223,62,o),
(147,140,o),
(147,275,cs),
(147,470,o),
(268,638,o),
(451,638,cs),
(563,638,o),
(620,583,o),
(623,494,c),
(718,494,l),
(714,631,o),
(623,712,o),
(463,712,cs),
(227,712,o),
(59,514,o),
(59,268,cs),
(59,132,o),
(132,-12,o),
(339,-12,cs)
);
}
);
};
hints = (
{
horizontal = 1;
place = (-12,74);
type = Stem;
},
{
horizontal = 1;
place = (638,74);
type = Stem;
},
{
place = (59,88);
type = Stem;
}
);
layerId = m01;
shapes = (
{
closed = 1;
nodes = (
(498,-12,o),
(615,67,o),
(667,203,c),
(572,203,l),
(537,116,o),
(463,62,o),
(351,62,cs),
(223,62,o),
(147,140,o),
(147,275,cs),
(147,470,o),
(268,638,o),
(451,638,cs),
(563,638,o),
(620,583,o),
(623,494,c),
(718,494,l),
(714,631,o),
(623,712,o),
(463,712,cs),
(227,712,o),
(59,514,o),
(59,268,cs),
(59,132,o),
(132,-12,o),
(339,-12,cs)
);
}
);
width = 722;
},
{
anchors = (
{
name = bottom;
pos = (316,0);
},
{
name = top;
pos = (440,700);
}
);
background = {
anchors = (
{
name = bottom;
pos = (316,0);
},
{
name = top;
pos = (440,700);
}
);
hints = (
{
horizontal = 1;
place = (-12,115);
type = Stem;
},
{
horizontal = 1;
place = (596,116);
type = Stem;
},
{
place = (57,132);
type = Stem;
}
);
shapes = (
{
closed = 1;
nodes = (
(498,-12,o),
(626,73,o),
(679,218,c),
(537,218,l),
(506,145,o),
(444,103,o),
(352,103,cs),
(243,103,o),
(179,170,o),
(179,283,cs),
(179,424,o),
(260,596,o),
(437,596,cs),
(529,596,o),
(579,551,o),
(582,474,c),
(724,474,l),
(723,625,o),
(625,712,o),
(457,712,cs),
(219,712,o),
(47,515,o),
(47,269,cs),
(47,131,o),
(125,-12,o),
(331,-12,cs)
);
}
);
};
hints = (
{
horizontal = 1;
place = (-22,105);
type = Stem;
},
{
horizontal = 1;
place = (586,106);
type = Stem;
},
{
place = (47,122);
type = Stem;
}
);
layerId = "C673E357-C9AB-4A21-92F5-E812FFC50395";
shapes = (
{
closed = 1;
nodes = (
(498,-12,o),
(626,73,o),
(679,218,c),
(537,218,l),
(506,145,o),
(444,103,o),
(352,103,cs),
(243,103,o),
(179,170,o),
(179,283,cs),
(179,424,o),
(260,596,o),
(437,596,cs),
(529,596,o),
(579,551,o),
(582,474,c),
(724,474,l),
(723,625,o),
(625,712,o),
(457,712,cs),
(219,712,o),
(47,515,o),
(47,269,cs),
(47,131,o),
(125,-12,o),
(331,-12,cs)
);
}
);
width = 719;
},
{
anchors = (
{
name = bottom;
pos = (317,0);
},
{
name = top;
pos = (441,700);
}
);
background = {
anchors = (
{
name = bottom;
pos = (317,0);
},
{
name = top;
pos = (441,700);
}
);
shapes = (
{
closed = 1;
nodes = (
(500,-12,o),
(635,77,o),
(689,228,c),
(515,228,l),
(487,164,o),
(433,130,o),
(354,130,cs),
(258,130,o),
(202,190,o),
(202,288,cs),
(202,393,o),
(256,568,o),
(429,568,cs),
(508,568,o),
(553,530,o),
(556,461,c),
(730,461,l),
(731,621,o),
(628,712,o),
(455,712,cs),
(215,712,o),
(41,516,o),
(41,270,cs),
(41,130,o),
(122,-12,o),
(327,-12,cs)
);
}
);
};
hints = (
{
horizontal = 1;
place = (-27,127);
type = Stem;
},
{
horizontal = 1;
place = (553,129);
type = Stem;
},
{
place = (41,146);
type = Stem;
}
);
layerId = "3DCB9202-475F-4A42-ABEA-4A11C2D29AB5";
shapes = (
{
closed = 1;
nodes = (
(500,-12,o),
(635,77,o),
(689,228,c),
(515,228,l),
(487,164,o),
(433,130,o),
(354,130,cs),
(258,130,o),
(202,190,o),
(202,288,cs),
(202,393,o),
(256,568,o),
(429,568,cs),
(508,568,o),
(553,530,o),
(556,461,c),
(730,461,l),
(731,621,o),
(628,712,o),
(455,712,cs),
(215,712,o),
(41,516,o),
(41,270,cs),
(41,130,o),
(122,-12,o),
(327,-12,cs)
);
}
);
width = 720;
}
);
note = C;
unicode = 67;
},
{
glyphname = Cacute;
kernLeft = C;
kernRight = C;
lastChange = "2023-05-03 08:05:36 +0000";
layers = (
{
background = {
anchors = (
{
name = bottom;
pos = (317,0);
},
{
name = top;
pos = (482,931);
}
);
hints = (
{
horizontal = 1;
place = (-12,74);
type = Stem;
},
{
horizontal = 1;
place = (638,74);
type = Stem;
},
{
place = (59,88);
type = Stem;
},
{
horizontal = 1;
place = (594,43);
type = Stem;
},
{
place = (109,63);
type = Stem;
}
);
shapes = (
{
closed = 1;
nodes = (
(498,-12,o),
(615,67,o),
(667,203,c),
(572,203,l),
(537,116,o),
(463,62,o),
(351,62,cs),
(223,62,o),
(147,140,o),
(147,275,cs),
(147,470,o),
(268,638,o),
(451,638,cs),
(563,638,o),
(620,583,o),
(623,494,c),
(718,494,l),
(714,631,o),
(623,712,o),
(463,712,cs),
(227,712,o),
(59,514,o),
(59,268,cs),
(59,132,o),
(132,-12,o),
(339,-12,cs)
);
},
{
closed = 1;
nodes = (
(574,858,l),
(587,931,l),
(354,804,l),
(343,741,l)
);
}
);
};
hints = (
{
horizontal = 1;
place = (-12,74);
type = Stem;
},
{
horizontal = 1;
place = (638,74);
type = Stem;
},
{
place = (59,88);
type = Stem;
}
);
layerId = m01;
shapes = (
{
ref = C;
},
{
pos = (256,0);
ref = acutecomb.case;
}
);
width = 722;
},
{
background = {
anchors = (
{
name = bottom;
pos = (316,0);
},
{
name = top;
pos = (485,952);
}
);
hints = (
{
horizontal = 1;
place = (-22,105);
type = Stem;
},
{
horizontal = 1;
place = (586,106);
type = Stem;
},
{
place = (47,122);
type = Stem;
},
{
horizontal = 1;
place = (591,63);
type = Stem;
},
{
place = (98,77);
type = Stem;
}
);
shapes = (
{
closed = 1;
nodes = (
(498,-12,o),
(626,73,o),
(679,218,c),
(537,218,l),
(506,145,o),
(444,103,o),
(352,103,cs),
(243,103,o),
(179,170,o),
(179,283,cs),
(179,424,o),
(260,596,o),
(437,596,cs),
(529,596,o),
(579,551,o),
(582,474,c),
(724,474,l),
(723,625,o),
(625,712,o),
(457,712,cs),
(219,712,o),
(47,515,o),
(47,269,cs),
(47,131,o),
(125,-12,o),
(331,-12,cs)
);
},
{
closed = 1;
nodes = (
(579,848,l),
(598,952,l),
(350,830,l),
(334,740,l)
);
}
);
};
hints = (
{
horizontal = 1;
place = (-12,115);
type = Stem;
},
{
horizontal = 1;
place = (596,116);
type = Stem;
},
{
place = (57,132);
type = Stem;
}
);
layerId = "C673E357-C9AB-4A21-92F5-E812FFC50395";
shapes = (
{
ref = C;
},
{
pos = (247,0);
ref = acutecomb.case;
}
);
width = 719;
},
{
background = {
anchors = (
{
name = bottom;
pos = (317,0);
},
{
name = top;
pos = (489,966);
}
);
hints = (
{
horizontal = 1;
place = (-27,127);
type = Stem;
},
{
horizontal = 1;
place = (553,129);
type = Stem;
},
{
place = (41,146);
type = Stem;
},
{
horizontal = 1;
place = (589,76);
type = Stem;
},
{
place = (93,86);
type = Stem;
}
);
shapes = (
{
closed = 1;
nodes = (
(500,-12,o),
(635,77,o),
(689,228,c),
(515,228,l),
(487,164,o),
(433,130,o),
(354,130,cs),
(258,130,o),
(202,190,o),
(202,288,cs),
(202,393,o),
(256,568,o),
(429,568,cs),
(508,568,o),
(553,530,o),
(556,461,c),
(730,461,l),
(731,621,o),
(628,712,o),
(455,712,cs),
(215,712,o),
(41,516,o),
(41,270,cs),
(41,130,o),
(122,-12,o),
(327,-12,cs)
);
},
{
closed = 1;
nodes = (
(584,841,l),
(607,966,l),
(349,847,l),
(330,739,l)
);
}
);
};
hints = (
{
horizontal = 1;
place = (-12,142);
type = Stem;
},
{
horizontal = 1;
place = (568,144);
type = Stem;
},
{
place = (56,161);
type = Stem;
}
);
layerId = "3DCB9202-475F-4A42-ABEA-4A11C2D29AB5";
shapes = (
{
ref = C;
},
{
pos = (243,0);
ref = acutecomb.case;
}
);
width = 720;
}
);
note = Cacute;
unicode = 262;
},
{
glyphname = Ccaron;
kernLeft = C;
kernRight = C;
lastChange = "2023-05-03 08:05:36 +0000";
layers = (
{
background = {
anchors = (
{
name = bottom;
pos = (317,0);
},
{
name = top;
pos = (476,901);
}
);
hints = (
{
horizontal = 1;
place = (-12,74);
type = Stem;
},
{
horizontal = 1;
place = (638,74);
type = Stem;
},
{
place = (59,88);
type = Stem;
},
{
horizontal = 1;
place = (608,1);
type = Stem;
},
{
place = (77,128);
type = Stem;
}
);
shapes = (
{
closed = 1;
nodes = (
(498,-12,o),
(615,67,o),
(667,203,c),
(572,203,l),
(537,116,o),
(463,62,o),
(351,62,cs),
(223,62,o),
(147,140,o),
(147,275,cs),
(147,470,o),
(268,638,o),
(451,638,cs),
(563,638,o),
(620,583,o),
(623,494,c),
(718,494,l),
(714,631,o),
(623,712,o),
(463,712,cs),
(227,712,o),
(59,514,o),
(59,268,cs),
(59,132,o),
(132,-12,o),
(339,-12,cs)
);
},
{
closed = 1;
nodes = (
(601,836,l),
(613,901,l),
(461,817,l),
(339,901,l),
(327,836,l),
(450,754,l)
);
}
);
};
hints = (
{
horizontal = 1;
place = (-12,74);
type = Stem;
},
{
horizontal = 1;
place = (638,74);
type = Stem;
},
{
place = (59,88);
type = Stem;
}
);
layerId = m01;
shapes = (
{
ref = C;
},
{
pos = (223,0);
ref = caroncomb.case;
}
);
width = 722;
},
{
background = {
anchors = (
{
name = bottom;
pos = (316,0);
},
{
name = top;
pos = (478,918);
}
);
hints = (
{
horizontal = 1;
place = (-22,105);
type = Stem;
},
{
horizontal = 1;
place = (586,106);
type = Stem;
},
{
place = (47,122);
type = Stem;
},
{
horizontal = 1;
place = (599,25);
type = Stem;
},
{
place = (67,145);
type = Stem;
}
);
shapes = (
{
closed = 1;
nodes = (
(498,-12,o),
(626,73,o),
(679,218,c),
(537,218,l),
(506,145,o),
(444,103,o),
(352,103,cs),
(243,103,o),
(179,170,o),
(179,283,cs),
(179,424,o),
(260,596,o),
(437,596,cs),
(529,596,o),
(579,551,o),
(582,474,c),
(724,474,l),
(723,625,o),
(625,712,o),
(457,712,cs),
(219,712,o),
(47,515,o),
(47,269,cs),
(47,131,o),
(125,-12,o),
(331,-12,cs)
);
},
{
closed = 1;
nodes = (
(608,826,l),
(624,918,l),
(463,833,l),
(332,918,l),
(316,826,l),
(448,746,l)
);
}
);
};
hints = (
{
horizontal = 1;
place = (-12,115);
type = Stem;
},
{
horizontal = 1;
place = (596,116);
type = Stem;
},
{
place = (57,132);
type = Stem;
}
);
layerId = "C673E357-C9AB-4A21-92F5-E812FFC50395";
shapes = (
{
ref = C;
},
{
pos = (214,0);
ref = caroncomb.case;
}
);
width = 719;
},
{
background = {
anchors = (
{
name = bottom;
pos = (317,0);
},
{
name = top;
pos = (481,929);
}
);
hints = (
{
horizontal = 1;
place = (-27,127);
type = Stem;
},
{
horizontal = 1;
place = (553,129);
type = Stem;
},
{
place = (41,146);
type = Stem;
},
{
horizontal = 1;
place = (593,41);
type = Stem;
},
{
place = (62,156);
type = Stem;
}
);
shapes = (
{
closed = 1;
nodes = (
(500,-12,o),
(635,77,o),
(689,228,c),
(515,228,l),
(487,164,o),
(433,130,o),
(354,130,cs),
(258,130,o),
(202,190,o),
(202,288,cs),
(202,393,o),
(256,568,o),
(429,568,cs),
(508,568,o),
(553,530,o),
(556,461,c),
(730,461,l),
(731,621,o),
(628,712,o),
(455,712,cs),
(215,712,o),
(41,516,o),
(41,270,cs),
(41,130,o),
(122,-12,o),
(327,-12,cs)
);
},
{
closed = 1;
nodes = (
(615,819,l),
(633,929,l),
(466,844,l),
(329,929,l),
(311,819,l),
(449,741,l)
);
}
);
};
hints = (
{
horizontal = 1;
place = (-12,142);
type = Stem;
},
{
horizontal = 1;
place = (568,144);
type = Stem;
},
{
place = (56,161);
type = Stem;
}
);
layerId = "3DCB9202-475F-4A42-ABEA-4A11C2D29AB5";
shapes = (
{
ref = C;
},
{
pos = (210,0);
ref = caroncomb.case;
}
);
width = 720;
}
);
note = Ccaron;
unicode = 268;
},
{
glyphname = Ccedilla;
kernLeft = C;
kernRight = C;
lastChange = "2023-05-03 08:05:36 +0000";
layers = (
{
background = {
anchors = (
{
name = bottom;
pos = (272,-259);
},
{
name = top;
pos = (441,700);
}
);
hints = (
{
horizontal = 1;
place = (-12,74);
type = Stem;
},
{
horizontal = 1;
place = (638,74);
type = Stem;
},
{
place = (59,88);
type = Stem;
},
{
horizontal = 1;
place = (-238,74);
type = Stem;
},
{
horizontal = 1;
place = (-92,71);
type = Stem;
},
{
place = (355,77);
type = Stem;
},
{
place = (472,89);
type = Stem;
}
);
shapes = (
{
closed = 1;
nodes = (
(498,-12,o),
(615,67,o),
(667,203,c),
(572,203,l),
(537,116,o),
(463,62,o),
(351,62,cs),
(223,62,o),
(147,140,o),
(147,275,cs),
(147,470,o),
(268,638,o),
(451,638,cs),
(563,638,o),
(620,583,o),
(623,494,c),
(718,494,l),
(714,631,o),
(623,712,o),
(463,712,cs),
(227,712,o),
(59,514,o),
(59,268,cs),
(59,132,o),
(132,-12,o),
(339,-12,cs)
);
},
{
closed = 1;
nodes = (
(310,-259,ls),
(386,-259,o),
(449,-214,o),
(449,-140,cs),
(449,-88,o),
(403,-62,o),
(335,-63,c),
(349,17,l),
(293,17,l),
(270,-113,l),
(319,-113,ls),
(359,-113,o),
(380,-125,o),
(380,-149,cs),
(380,-187,o),
(352,-206,o),
(303,-206,cs),
(211,-206,l),
(202,-259,l)
);
}
);
};
hints = (
{
horizontal = 1;
place = (-260,53);
type = Stem;
},
{
horizontal = 1;
place = (-114,50);
type = Stem;
},
{
horizontal = 1;
place = (-11,73);
type = Stem;
},
{
horizontal = 1;
place = (638,74);
type = Stem;
},
{
place = (59,88);
type = Stem;
},
{
place = (400,70);
type = Stem;
}
);
layerId = m01;
shapes = (
{
ref = C;
},
{
pos = (291,0);
ref = cedillacomb.case;
}
);
width = 722;
},
{
background = {
anchors = (
{
name = bottom;
pos = (269,-263);
},
{
name = top;
pos = (440,700);
}
);
hints = (
{
horizontal = 1;
place = (-22,105);
type = Stem;
},
{
horizontal = 1;
place = (586,106);
type = Stem;
},
{
place = (47,122);
type = Stem;
},
{
horizontal = 1;
place = (-241,96);
type = Stem;
},
{
horizontal = 1;
place = (-96,147);
type = Stem;
},
{
place = (340,102);
type = Stem;
},
{
place = (454,118);
type = Stem;
},
{
horizontal = 1;
place = (-96,90);
type = Stem;
}
);
shapes = (
{
closed = 1;
nodes = (
(498,-12,o),
(626,73,o),
(679,218,c),
(537,218,l),
(506,145,o),
(444,103,o),
(352,103,cs),
(243,103,o),
(179,170,o),
(179,283,cs),
(179,424,o),
(260,596,o),
(437,596,cs),
(529,596,o),
(579,551,o),
(582,474,c),
(724,474,l),
(723,625,o),
(625,712,o),
(457,712,cs),
(219,712,o),
(47,515,o),
(47,269,cs),
(47,131,o),
(125,-12,o),
(331,-12,cs)
);
},
{
closed = 1;
nodes = (
(308,-263,ls),
(383,-263,o),
(459,-220,o),
(459,-134,cs),
(459,-76,o),
(409,-48,o),
(346,-50,c),
(358,17,l),
(278,17,l),
(254,-118,l),
(315,-118,ls),
(347,-118,o),
(363,-128,o),
(363,-147,cs),
(362,-176,o),
(334,-189,o),
(302,-189,cs),
(190,-189,l),
(177,-263,l)
);
}
);
};
hints = (
{
horizontal = 1;
place = (-265,74);
type = Stem;
},
{
horizontal = 1;
place = (-120,68);
type = Stem;
},
{
horizontal = 1;
place = (-10,113);
type = Stem;
},
{
horizontal = 1;
place = (596,116);
type = Stem;
},
{
place = (57,132);
type = Stem;
},
{
place = (391,96);
type = Stem;
}
);
layerId = "C673E357-C9AB-4A21-92F5-E812FFC50395";
shapes = (
{
ref = C;
},
{
pos = (267,0);
ref = cedillacomb.case;
}
);
width = 719;
},
{
background = {
anchors = (
{
name = bottom;
pos = (269,-266);
},
{
name = top;
pos = (441,700);
}
);
hints = (
{
horizontal = 1;
place = (-27,127);
type = Stem;
},
{
horizontal = 1;
place = (553,129);
type = Stem;
},
{
place = (41,146);
type = Stem;
},
{
horizontal = 1;
place = (-1,101);
type = Stem;
},
{
horizontal = 1;
place = (-99,198);
type = Stem;
},
{
place = (522,145);
type = Stem;
},
{
place = (-269,101);
type = Stem;
}
);
shapes = (
{
closed = 1;
nodes = (
(500,-12,o),
(635,77,o),
(689,228,c),
(515,228,l),
(487,164,o),
(433,130,o),
(354,130,cs),
(258,130,o),
(202,190,o),
(202,288,cs),
(202,393,o),
(256,568,o),
(429,568,cs),
(508,568,o),
(553,530,o),
(556,461,c),
(730,461,l),
(731,621,o),
(628,712,o),
(455,712,cs),
(215,712,o),
(41,516,o),
(41,270,cs),
(41,130,o),
(122,-12,o),
(327,-12,cs)
);
},
{
closed = 1;
nodes = (
(309,-266,ls),
(384,-266,o),
(468,-223,o),
(468,-130,cs),
(468,-69,o),
(415,-39,o),
(356,-41,c),
(366,17,l),
(270,17,l),
(246,-121,l),
(315,-121,ls),
(340,-121,o),
(354,-129,o),
(354,-144,cs),
(354,-166,o),
(335,-178,o),
(304,-178,cs),
(178,-178,l),
(163,-266,l)
);
}
);
};
hints = (
{
horizontal = 1;
place = (-268,88);
type = Stem;
},
{
horizontal = 1;
place = (-124,80);
type = Stem;
},
{
horizontal = 1;
place = (-9,140);
type = Stem;
},
{
horizontal = 1;
place = (568,144);
type = Stem;
},
{
place = (56,161);
type = Stem;
},
{
place = (385,113);
type = Stem;
}
);
layerId = "3DCB9202-475F-4A42-ABEA-4A11C2D29AB5";
shapes = (
{
ref = C;
},
{
pos = (253,0);
ref = cedillacomb.case;
}
);
width = 720;
}
);
note = Ccedilla;
unicode = 199;
},
{
glyphname = Cdotaccent;
kernLeft = C;
kernRight = C;
lastChange = "2023-05-03 08:05:36 +0000";
layers = (
{
background = {
anchors = (
{
name = bottom;
pos = (317,0);
},
{
name = top;
pos = (474,889);
}
);
hints = (
{
horizontal = 1;
place = (-12,74);
type = Stem;
},
{
horizontal = 1;
place = (638,74);
type = Stem;
},
{
place = (59,88);
type = Stem;
},
{
horizontal = 1;
place = (619,-47);
type = Stem;
},
{
place = (155,-47);
type = Stem;
}
);
shapes = (
{
closed = 1;
nodes = (
(498,-12,o),
(615,67,o),
(667,203,c),
(572,203,l),
(537,116,o),
(463,62,o),
(351,62,cs),
(223,62,o),
(147,140,o),
(147,275,cs),
(147,470,o),
(268,638,o),
(451,638,cs),
(563,638,o),
(620,583,o),
(623,494,c),
(718,494,l),
(714,631,o),
(623,712,o),
(463,712,cs),
(227,712,o),
(59,514,o),
(59,268,cs),
(59,132,o),
(132,-12,o),
(339,-12,cs)
);
},
{
closed = 1;
nodes = (
(496,775,o),
(522,800,o),
(522,833,cs),
(522,865,o),
(496,889,o),
(464,889,cs),
(431,889,o),
(406,865,o),
(406,833,cs),
(406,800,o),
(431,775,o),
(464,775,cs)
);
}
);
};
hints = (
{
horizontal = 1;
place = (-12,74);
type = Stem;
},
{
horizontal = 1;
place = (638,74);
type = Stem;
},
{
horizontal = 1;
place = (766,100);
type = Stem;
},
{
place = (59,88);
type = Stem;
},
{
place = (435,99);
type = Stem;
}
);
layerId = m01;
shapes = (
{
ref = C;
},
{
pos = (302,0);
ref = dotaccentcomb.case;
}
);
width = 722;
},
{
background = {
anchors = (
{
name = bottom;
pos = (316,0);
},
{
name = top;
pos = (482,934);
}
);
hints = (
{
horizontal = 1;
place = (-22,105);
type = Stem;
},
{
horizontal = 1;
place = (586,106);
type = Stem;
},
{
place = (47,122);
type = Stem;
},
{
horizontal = 1;
place = (614,-26);
type = Stem;
},
{
place = (126,-26);
type = Stem;
}
);
shapes = (
{
closed = 1;
nodes = (
(498,-12,o),
(626,73,o),
(679,218,c),
(537,218,l),
(506,145,o),
(444,103,o),
(352,103,cs),
(243,103,o),
(179,170,o),
(179,283,cs),
(179,424,o),
(260,596,o),
(437,596,cs),
(529,596,o),
(579,551,o),
(582,474,c),
(724,474,l),
(723,625,o),
(625,712,o),
(457,712,cs),
(219,712,o),
(47,515,o),
(47,269,cs),
(47,131,o),
(125,-12,o),
(331,-12,cs)
);
},
{
closed = 1;
nodes = (
(514,768,o),
(550,804,o),
(550,851,cs),
(550,898,o),
(514,934,o),
(467,934,cs),
(420,934,o),
(384,898,o),
(384,851,cs),
(384,804,o),
(420,768,o),
(467,768,cs)
);
}
);
};
hints = (
{
horizontal = 1;
place = (-12,115);
type = Stem;
},
{
horizontal = 1;
place = (596,116);
type = Stem;
},
{
horizontal = 1;
place = (764,124);
type = Stem;
},
{
place = (57,132);
type = Stem;
},
{
place = (427,123);
type = Stem;
}
);
layerId = "C673E357-C9AB-4A21-92F5-E812FFC50395";
shapes = (
{
ref = C;
},
{
pos = (276,0);
ref = dotaccentcomb.case;
}
);
width = 719;
},
{
background = {
anchors = (
{
name = bottom;
pos = (317,0);
},
{
name = top;
pos = (485,949);
}
);
hints = (
{
horizontal = 1;
place = (-27,127);
type = Stem;
},
{
horizontal = 1;
place = (553,129);
type = Stem;
},
{
place = (41,146);
type = Stem;
},
{
horizontal = 1;
place = (611,-12);
type = Stem;
},
{
place = (113,-12);
type = Stem;
}
);
shapes = (
{
closed = 1;
nodes = (
(500,-12,o),
(635,77,o),
(689,228,c),
(515,228,l),
(487,164,o),
(433,130,o),
(354,130,cs),
(258,130,o),
(202,190,o),
(202,288,cs),
(202,393,o),
(256,568,o),
(429,568,cs),
(508,568,o),
(553,530,o),
(556,461,c),
(730,461,l),
(731,621,o),
(628,712,o),
(455,712,cs),
(215,712,o),
(41,516,o),
(41,270,cs),
(41,130,o),
(122,-12,o),
(327,-12,cs)
);
},
{
closed = 1;
nodes = (
(522,759,o),
(564,800,o),
(564,854,cs),
(564,908,o),
(522,949,o),
(467,949,cs),
(417,949,o),
(373,908,o),
(373,854,cs),
(373,800,o),
(417,759,o),
(467,759,cs)
);
}
);
};
hints = (
{
horizontal = 1;
place = (-12,142);
type = Stem;
},
{
horizontal = 1;
place = (568,144);
type = Stem;
},
{
horizontal = 1;
place = (763,140);
type = Stem;
},
{
place = (56,161);
type = Stem;
},
{
place = (422,139);
type = Stem;
}
);
layerId = "3DCB9202-475F-4A42-ABEA-4A11C2D29AB5";
shapes = (
{
ref = C;
},
{
pos = (265,0);
ref = dotaccentcomb.case;
}
);
width = 720;
}
);
note = Cdotaccent;
unicode = 266;
},
{
glyphname = D;
kernRight = D;
lastChange = "2023-05-03 08:05:32 +0000";
layers = (
{
anchors = (
{
name = bottom;
pos = (307,0);
},
{
name = center;
pos = (369,350);
},
{
name = top;
pos = (431,700);
}
);
background = {
anchors = (
{
name = bottom;
pos = (307,0);
},
{
name = center;
pos = (369,350);
},
{
name = top;
pos = (431,700);
}
);
hints = (
{
horizontal = 1;
place = (0,70);
type = Stem;
},
{
horizontal = 1;
place = (630,70);
type = Stem;
},
{
place = (589,87);
type = Stem;
}
);
shapes = (
{
closed = 1;
nodes = (
(31,0,l),
(246,0,ls),
(475,0,o),
(676,139,o),
(676,417,cs),
(676,598,o),
(580,700,o),
(369,700,cs),
(154,700,l)
);
},
{
closed = 1;
nodes = (
(127,70,l),
(226,630,l),
(355,630,ls),
(522,630,o),
(589,554,o),
(589,411,cs),
(589,232,o),
(492,70,o),
(257,70,cs)
);
}
);
};
hints = (
{
horizontal = 1;
place = (0,70);
type = Stem;
},
{
horizontal = 1;
place = (630,70);
type = Stem;
},
{
place = (589,87);
type = Stem;
}
);
layerId = m01;
shapes = (
{
closed = 1;
nodes = (
(31,0,l),
(246,0,ls),
(475,0,o),
(676,139,o),
(676,417,cs),
(676,598,o),
(580,700,o),
(369,700,cs),
(154,700,l)
);
},
{
closed = 1;
nodes = (
(127,70,l),
(226,630,l),
(355,630,ls),
(522,630,o),
(589,554,o),
(589,411,cs),
(589,232,o),
(492,70,o),
(257,70,cs)
);
}
);
width = 701;
},
{
anchors = (
{
name = bottom;
pos = (304,0);
},
{
name = center;
pos = (366,350);
},
{
name = top;
pos = (428,700);
}
);
background = {
anchors = (
{
name = bottom;
pos = (304,0);
},
{
name = center;
pos = (366,350);
},
{
name = top;
pos = (428,700);
}
);
hints = (
{
horizontal = 1;
place = (0,110);
type = Stem;
},
{
horizontal = 1;
place = (591,109);
type = Stem;
},
{
place = (561,132);
type = Stem;
}
);
shapes = (
{
closed = 1;
nodes = (
(15,0,l),
(254,0,ls),
(461,0,o),
(683,124,o),
(683,415,cs),
(683,590,o),
(588,700,o),
(377,700,cs),
(138,700,l)
);
},
{
closed = 1;
nodes = (
(162,110,l),
(247,591,l),
(352,591,ls),
(489,591,o),
(551,529,o),
(551,404,cs),
(551,252,o),
(474,110,o),
(267,110,cs)
);
}
);
};
hints = (
{
horizontal = 1;
place = (-10,100);
type = Stem;
},
{
horizontal = 1;
place = (581,99);
type = Stem;
},
{
place = (551,122);
type = Stem;
}
);
layerId = "C673E357-C9AB-4A21-92F5-E812FFC50395";
shapes = (
{
closed = 1;
nodes = (
(15,0,l),
(254,0,ls),
(461,0,o),
(683,124,o),
(683,415,cs),
(683,590,o),
(588,700,o),
(377,700,cs),
(138,700,l)
);
},
{
closed = 1;
nodes = (
(162,110,l),
(247,591,l),
(352,591,ls),
(489,591,o),
(551,529,o),
(551,404,cs),
(551,252,o),
(474,110,o),
(267,110,cs)
);
}
);
width = 696;
},
{
anchors = (
{
name = bottom;
pos = (304,0);
},
{
name = center;
pos = (366,350);
},
{
name = top;
pos = (428,700);
}
);
background = {
anchors = (
{
name = bottom;
pos = (304,0);
},
{
name = center;
pos = (366,350);
},
{
name = top;
pos = (428,700);
}
);
shapes = (
{
closed = 1;
nodes = (
(6,0,l),
(261,0,ls),
(453,0,o),
(689,114,o),
(689,414,cs),
(689,585,o),
(595,700,o),
(384,700,cs),
(129,700,l)
);
},
{
closed = 1;
nodes = (
(187,137,l),
(263,565,l),
(352,565,ls),
(469,565,o),
(527,512,o),
(527,399,cs),
(527,265,o),
(464,137,o),
(275,137,cs)
);
}
);
};
hints = (
{
horizontal = 1;
place = (-15,122);
type = Stem;
},
{
horizontal = 1;
place = (550,120);
type = Stem;
},
{
place = (527,147);
type = Stem;
}
);
layerId = "3DCB9202-475F-4A42-ABEA-4A11C2D29AB5";
shapes = (
{
closed = 1;
nodes = (
(6,0,l),
(261,0,ls),
(453,0,o),
(689,114,o),
(689,414,cs),
(689,585,o),
(595,700,o),
(384,700,cs),
(129,700,l)
);
},
{
closed = 1;
nodes = (
(187,137,l),
(263,565,l),
(352,565,ls),
(469,565,o),
(527,512,o),
(527,399,cs),
(527,265,o),
(464,137,o),
(275,137,cs)
);
}
);
width = 696;
}
);
note = D;
unicode = 68;
},
{
glyphname = Dcaron;
kernRight = D;
lastChange = "2023-05-03 08:05:36 +0000";
layers = (
{
background = {
anchors = (
{
name = bottom;
pos = (307,0);
},
{
name = center;
pos = (369,350);
},
{
name = top;
pos = (466,901);
}
);
hints = (
{
horizontal = 1;
place = (0,70);
type = Stem;
},
{
horizontal = 1;
place = (630,70);
type = Stem;
},
{
place = (589,87);
type = Stem;
},
{
horizontal = 1;
place = (608,1);
type = Stem;
},
{
place = (67,128);
type = Stem;
}
);
shapes = (
{
closed = 1;
nodes = (
(31,0,l),
(246,0,ls),
(475,0,o),
(676,139,o),
(676,417,cs),
(676,598,o),
(580,700,o),
(369,700,cs),
(154,700,l)
);
},
{
closed = 1;
nodes = (
(127,70,l),
(226,630,l),
(355,630,ls),
(522,630,o),
(589,554,o),
(589,411,cs),
(589,232,o),
(492,70,o),
(257,70,cs)
);
},
{
closed = 1;
nodes = (
(591,836,l),
(603,901,l),
(451,817,l),
(329,901,l),
(317,836,l),
(440,754,l)
);
}
);
};
hints = (
{
horizontal = 1;
place = (0,70);
type = Stem;
},
{
horizontal = 1;
place = (630,70);
type = Stem;
},
{
place = (589,87);
type = Stem;
}
);
layerId = m01;
shapes = (
{
ref = D;
},
{
pos = (213,0);
ref = caroncomb.case;
}
);
width = 701;
},
{
background = {
anchors = (
{
name = bottom;
pos = (304,0);
},
{
name = center;
pos = (366,350);
},
{
name = top;
pos = (466,918);
}
);
hints = (
{
horizontal = 1;
place = (-10,100);
type = Stem;
},
{
horizontal = 1;
place = (581,99);
type = Stem;
},
{
place = (551,122);
type = Stem;
},
{
horizontal = 1;
place = (599,25);
type = Stem;
},
{
place = (55,145);
type = Stem;
}
);
shapes = (
{
closed = 1;
nodes = (
(15,0,l),
(254,0,ls),
(461,0,o),
(683,124,o),
(683,415,cs),
(683,590,o),
(588,700,o),
(377,700,cs),
(138,700,l)
);
},
{
closed = 1;
nodes = (
(162,110,l),
(247,591,l),
(352,591,ls),
(489,591,o),
(551,529,o),
(551,404,cs),
(551,252,o),
(474,110,o),
(267,110,cs)
);
},
{
closed = 1;
nodes = (
(596,826,l),
(612,918,l),
(451,833,l),
(320,918,l),
(304,826,l),
(436,746,l)
);
}
);
};
hints = (
{
horizontal = 1;
place = (0,110);
type = Stem;
},
{
horizontal = 1;
place = (591,109);
type = Stem;
},
{
place = (561,132);
type = Stem;
}
);
layerId = "C673E357-C9AB-4A21-92F5-E812FFC50395";
shapes = (
{
ref = D;
},
{
pos = (202,0);
ref = caroncomb.case;
}
);
width = 696;
},
{
background = {
anchors = (
{
name = bottom;
pos = (304,0);
},
{
name = center;
pos = (366,350);
},
{
name = top;
pos = (468,929);
}
);
hints = (
{
horizontal = 1;
place = (-15,122);
type = Stem;
},
{
horizontal = 1;
place = (550,120);
type = Stem;
},
{
place = (527,147);
type = Stem;
},
{
horizontal = 1;
place = (593,41);
type = Stem;
},
{
place = (49,156);
type = Stem;
}
);
shapes = (
{
closed = 1;
nodes = (
(6,0,l),
(261,0,ls),
(453,0,o),
(689,114,o),
(689,414,cs),
(689,585,o),
(595,700,o),
(384,700,cs),
(129,700,l)
);
},
{
closed = 1;
nodes = (
(187,137,l),
(263,565,l),
(352,565,ls),
(469,565,o),
(527,512,o),
(527,399,cs),
(527,265,o),
(464,137,o),
(275,137,cs)
);
},
{
closed = 1;
nodes = (
(602,819,l),
(620,929,l),
(453,844,l),
(316,929,l),
(298,819,l),
(436,741,l)
);
}
);
};
hints = (
{
horizontal = 1;
place = (0,137);
type = Stem;
},
{
horizontal = 1;
place = (565,135);
type = Stem;
},
{
place = (542,162);
type = Stem;
}
);
layerId = "3DCB9202-475F-4A42-ABEA-4A11C2D29AB5";
shapes = (
{
ref = D;
},
{
pos = (197,0);
ref = caroncomb.case;
}
);
width = 696;
}
);
note = Dcaron;
unicode = 270;
},
{
glyphname = Dcroat;
kernRight = D;
lastChange = "2023-05-03 08:05:32 +0000";
layers = (
{
background = {
shapes = (
{
closed = 1;
nodes = (
(46,0,l),
(261,0,ls),
(348,0,o),
(424,18,o),
(489,53,cs),
(617,124,o),
(691,253,o),
(691,417,cs),
(691,598,o),
(595,700,o),
(384,700,cs),
(169,700,l),
(114,387,l),
(27,387,l),
(14,311,l),
(101,311,l)
);
},
{
closed = 1;
nodes = (
(143,70,l),
(185,311,l),
(386,311,l),
(399,387,l),
(198,387,l),
(241,630,l),
(370,630,ls),
(537,630,o),
(604,554,o),
(604,411,cs),
(604,342,o),
(591,282,o),
(565,231,cs),
(512,129,o),
(412,70,o),
(272,70,cs)
);
}
);
};
hints = (
{
horizontal = 1;
place = (0,70);
type = Stem;
},
{
horizontal = 1;
place = (311,76);
type = Stem;
},
{
horizontal = 1;
place = (630,70);
type = Stem;
},
{
place = (604,87);
type = Stem;
}
);
layerId = m01;
shapes = (
{
closed = 1;
nodes = (
(46,0,l),
(261,0,ls),
(348,0,o),
(424,18,o),
(489,53,cs),
(617,124,o),
(691,253,o),
(691,417,cs),
(691,598,o),
(595,700,o),
(384,700,cs),
(169,700,l),
(114,387,l),
(27,387,l),
(14,311,l),
(101,311,l)
);
},
{
closed = 1;
nodes = (
(143,70,l),
(185,311,l),
(386,311,l),
(399,387,l),
(198,387,l),
(241,630,l),
(370,630,ls),
(537,630,o),
(604,554,o),
(604,411,cs),
(604,342,o),
(591,282,o),
(565,231,cs),
(512,129,o),
(412,70,o),
(272,70,cs)
);
}
);
width = 716;
},
{
background = {
shapes = (
{
closed = 1;
nodes = (
(21,0,l),
(261,0,ls),
(347,0,o),
(422,18,o),
(487,53,cs),
(615,123,o),
(689,252,o),
(689,415,cs),
(689,590,o),
(593,700,o),
(384,700,cs),
(144,700,l),
(93,405,l),
(18,405,l),
(-1,295,l),
(73,295,l)
);
},
{
closed = 1;
nodes = (
(169,110,l),
(201,295,l),
(378,295,l),
(397,405,l),
(221,405,l),
(254,591,l),
(359,591,ls),
(495,591,o),
(558,529,o),
(558,404,cs),
(558,344,o),
(547,292,o),
(525,248,cs),
(480,160,o),
(394,110,o),
(274,110,cs)
);
}
);
};
hints = (
{
horizontal = 1;
place = (-10,100);
type = Stem;
},
{
horizontal = 1;
place = (285,100);
type = Stem;
},
{
horizontal = 1;
place = (581,99);
type = Stem;
},
{
place = (558,121);
type = Stem;
}
);
layerId = "C673E357-C9AB-4A21-92F5-E812FFC50395";
shapes = (
{
closed = 1;
nodes = (
(21,0,l),
(261,0,ls),
(347,0,o),
(422,18,o),
(487,53,cs),
(615,123,o),
(689,252,o),
(689,415,cs),
(689,590,o),
(593,700,o),
(384,700,cs),
(144,700,l),
(93,405,l),
(18,405,l),
(-1,295,l),
(73,295,l)
);
},
{
closed = 1;
nodes = (
(169,110,l),
(201,295,l),
(378,295,l),
(397,405,l),
(221,405,l),
(254,591,l),
(359,591,ls),
(495,591,o),
(558,529,o),
(558,404,cs),
(558,344,o),
(547,292,o),
(525,248,cs),
(480,160,o),
(394,110,o),
(274,110,cs)
);
}
);
width = 703;
},
{
background = {
shapes = (
{
closed = 1;
nodes = (
(6,0,l),
(263,0,ls),
(348,0,o),
(422,18,o),
(487,53,cs),
(615,122,o),
(689,251,o),
(689,414,cs),
(689,585,o),
(593,700,o),
(386,700,cs),
(129,700,l),
(81,417,l),
(14,417,l),
(-9,284,l),
(56,284,l)
);
},
{
closed = 1;
nodes = (
(188,137,l),
(213,284,l),
(374,284,l),
(397,417,l),
(238,417,l),
(264,565,l),
(353,565,ls),
(469,565,o),
(529,512,o),
(529,399,cs),
(529,345,o),
(519,299,o),
(500,259,cs),
(460,181,o),
(384,137,o),
(277,137,cs)
);
}
);
};
hints = (
{
horizontal = 1;
place = (-15,122);
type = Stem;
},
{
horizontal = 1;
place = (269,118);
type = Stem;
},
{
horizontal = 1;
place = (550,120);
type = Stem;
},
{
place = (529,145);
type = Stem;
}
);
layerId = "3DCB9202-475F-4A42-ABEA-4A11C2D29AB5";
shapes = (
{
closed = 1;
nodes = (
(6,0,l),
(263,0,ls),
(348,0,o),
(422,18,o),
(487,53,cs),
(615,122,o),
(689,251,o),
(689,414,cs),
(689,585,o),
(593,700,o),
(386,700,cs),
(129,700,l),
(81,417,l),
(14,417,l),
(-9,284,l),
(56,284,l)
);
},
{
closed = 1;
nodes = (
(188,137,l),
(213,284,l),
(374,284,l),
(397,417,l),
(238,417,l),
(264,565,l),
(353,565,ls),
(469,565,o),
(529,512,o),
(529,399,cs),
(529,345,o),
(519,299,o),
(500,259,cs),
(460,181,o),
(384,137,o),
(277,137,cs)
);
}
);
width = 698;
}
);
note = Dcroat;
unicode = 272;
},
{
glyphname = Eth;
kernRight = D;
lastChange = "2023-05-03 08:05:32 +0000";
layers = (
{
background = {
shapes = (
{
closed = 1;
nodes = (
(46,0,l),
(261,0,ls),
(348,0,o),
(424,18,o),
(489,53,cs),
(617,124,o),
(691,253,o),
(691,417,cs),
(691,598,o),
(595,700,o),
(384,700,cs),
(169,700,l),
(114,387,l),
(27,387,l),
(14,311,l),
(101,311,l)
);
},
{
closed = 1;
nodes = (
(143,70,l),
(185,311,l),
(386,311,l),
(399,387,l),
(198,387,l),
(241,630,l),
(370,630,ls),
(537,630,o),
(604,554,o),
(604,411,cs),
(604,342,o),
(591,282,o),
(565,231,cs),
(512,129,o),
(412,70,o),
(272,70,cs)
);
}
);
};
hints = (
{
horizontal = 1;
place = (0,70);
type = Stem;
},
{
horizontal = 1;
place = (311,76);
type = Stem;
},
{
horizontal = 1;
place = (630,70);
type = Stem;
},
{
place = (604,87);
type = Stem;
}
);
layerId = m01;
shapes = (
{
closed = 1;
nodes = (
(46,0,l),
(261,0,ls),
(348,0,o),
(424,18,o),
(489,53,cs),
(617,124,o),
(691,253,o),
(691,417,cs),
(691,598,o),
(595,700,o),
(384,700,cs),
(169,700,l),
(114,387,l),
(27,387,l),
(14,311,l),
(101,311,l)
);
},
{
closed = 1;
nodes = (
(143,70,l),
(185,311,l),
(386,311,l),
(399,387,l),
(198,387,l),
(241,630,l),
(370,630,ls),
(537,630,o),
(604,554,o),
(604,411,cs),
(604,342,o),
(591,282,o),
(565,231,cs),
(512,129,o),
(412,70,o),
(272,70,cs)
);
}
);
width = 716;
},
{
background = {
shapes = (
{
closed = 1;
nodes = (
(21,0,l),
(261,0,ls),
(347,0,o),
(422,18,o),
(487,53,cs),
(615,123,o),
(689,252,o),
(689,415,cs),
(689,590,o),
(593,700,o),
(384,700,cs),
(144,700,l),
(93,405,l),
(18,405,l),
(-1,295,l),
(73,295,l)
);
},
{
closed = 1;
nodes = (
(169,110,l),
(201,295,l),
(378,295,l),
(397,405,l),
(221,405,l),
(254,591,l),
(359,591,ls),
(495,591,o),
(558,529,o),
(558,404,cs),
(558,344,o),
(547,292,o),
(525,248,cs),
(480,160,o),
(394,110,o),
(274,110,cs)
);
}
);
};
hints = (
{
horizontal = 1;
place = (-10,100);
type = Stem;
},
{
horizontal = 1;
place = (285,100);
type = Stem;
},
{
horizontal = 1;
place = (581,99);
type = Stem;
},
{
place = (558,121);
type = Stem;
}
);
layerId = "C673E357-C9AB-4A21-92F5-E812FFC50395";
shapes = (
{
closed = 1;
nodes = (
(21,0,l),
(261,0,ls),
(347,0,o),
(422,18,o),
(487,53,cs),
(615,123,o),
(689,252,o),
(689,415,cs),
(689,590,o),
(593,700,o),
(384,700,cs),
(144,700,l),
(93,405,l),
(18,405,l),
(-1,295,l),
(73,295,l)
);
},
{
closed = 1;
nodes = (
(169,110,l),
(201,295,l),
(378,295,l),
(397,405,l),
(221,405,l),
(254,591,l),
(359,591,ls),
(495,591,o),
(558,529,o),
(558,404,cs),
(558,344,o),
(547,292,o),
(525,248,cs),
(480,160,o),
(394,110,o),
(274,110,cs)
);
}
);
width = 703;
},
{
background = {
shapes = (
{
closed = 1;
nodes = (
(6,0,l),
(263,0,ls),
(348,0,o),
(422,18,o),
(487,53,cs),
(615,122,o),
(689,251,o),
(689,414,cs),
(689,585,o),
(593,700,o),
(386,700,cs),
(129,700,l),
(81,417,l),
(14,417,l),
(-9,284,l),
(56,284,l)
);
},
{
closed = 1;
nodes = (
(188,137,l),
(213,284,l),
(374,284,l),
(397,417,l),
(238,417,l),
(264,565,l),
(353,565,ls),
(469,565,o),
(529,512,o),
(529,399,cs),
(529,345,o),
(519,299,o),
(500,259,cs),
(460,181,o),
(384,137,o),
(277,137,cs)
);
}
);
};
hints = (
{
horizontal = 1;
place = (-15,122);
type = Stem;
},
{
horizontal = 1;
place = (269,118);
type = Stem;
},
{
horizontal = 1;
place = (550,120);
type = Stem;
},
{
place = (529,145);
type = Stem;
}
);
layerId = "3DCB9202-475F-4A42-ABEA-4A11C2D29AB5";
shapes = (
{
closed = 1;
nodes = (
(6,0,l),
(263,0,ls),
(348,0,o),
(422,18,o),
(487,53,cs),
(615,122,o),
(689,251,o),
(689,414,cs),
(689,585,o),
(593,700,o),
(386,700,cs),
(129,700,l),
(81,417,l),
(14,417,l),
(-9,284,l),
(56,284,l)
);
},
{
closed = 1;
nodes = (
(188,137,l),
(213,284,l),
(374,284,l),
(397,417,l),
(238,417,l),
(264,565,l),
(353,565,ls),
(469,565,o),
(529,512,o),
(529,399,cs),
(529,345,o),
(519,299,o),
(500,259,cs),
(460,181,o),
(384,137,o),
(277,137,cs)
);
}
);
width = 698;
}
);
note = Eth;
unicode = 208;
},
{
glyphname = E;
lastChange = "2023-05-03 08:05:32 +0000";
layers = (
{
anchors = (
{
name = bottom;
pos = (227,0);
},
{
name = ogonek;
pos = (435,0);
},
{
name = top;
pos = (351,700);
},
{
name = topleft;
pos = (100,700);
}
);
background = {
anchors = (
{
name = bottom;
pos = (227,0);
},
{
name = ogonek;
pos = (435,0);
},
{
name = top;
pos = (351,700);
},
{
name = topleft;
pos = (100,700);
}
);
shapes = (
{
closed = 1;
nodes = (
(435,0,l),
(447,69,l),
(126,69,l),
(174,336,l),
(451,336,l),
(463,404,l),
(186,404,l),
(226,631,l),
(547,631,l),
(559,700,l),
(154,700,l),
(30,0,l)
);
}
);
};
hints = (
{
horizontal = 1;
place = (0,67);
type = Stem;
},
{
horizontal = 1;
place = (320,66);
type = Stem;
},
{
horizontal = 1;
place = (633,67);
type = Stem;
},
{
place = (31,528);
type = Stem;
}
);
layerId = m01;
shapes = (
{
closed = 1;
nodes = (
(435,0,l),
(447,69,l),
(126,69,l),
(174,336,l),
(451,336,l),
(463,404,l),
(186,404,l),
(226,631,l),
(547,631,l),
(559,700,l),
(154,700,l),
(30,0,l)
);
}
);
width = 542;
},
{
anchors = (
{
name = bottom;
pos = (229,0);
},
{
name = ogonek;
pos = (453,0);
},
{
name = top;
pos = (353,700);
},
{
name = topleft;
pos = (90,700);
}
);
background = {
anchors = (
{
name = bottom;
pos = (229,0);
},
{
name = ogonek;
pos = (453,0);
},
{
name = top;
pos = (353,700);
},
{
name = topleft;
pos = (90,700);
}
);
shapes = (
{
closed = 1;
nodes = (
(453,0,l),
(473,109,l),
(162,109,l),
(198,315,l),
(463,315,l),
(482,424,l),
(217,424,l),
(246,591,l),
(557,591,l),
(577,700,l),
(138,700,l),
(14,0,l)
);
}
);
};
hints = (
{
horizontal = 1;
place = (-10,91);
type = Stem;
},
{
horizontal = 1;
place = (296,88);
type = Stem;
},
{
horizontal = 1;
place = (589,91);
type = Stem;
},
{
place = (14,547);
type = Stem;
}
);
layerId = "C673E357-C9AB-4A21-92F5-E812FFC50395";
shapes = (
{
closed = 1;
nodes = (
(453,0,l),
(473,109,l),
(162,109,l),
(198,315,l),
(463,315,l),
(482,424,l),
(217,424,l),
(246,591,l),
(557,591,l),
(577,700,l),
(138,700,l),
(14,0,l)
);
}
);
width = 545;
},
{
anchors = (
{
name = bottom;
pos = (232,0);
},
{
name = ogonek;
pos = (467,0);
},
{
name = top;
pos = (356,700);
},
{
name = topleft;
pos = (85,700);
}
);
background = {
anchors = (
{
name = bottom;
pos = (232,0);
},
{
name = ogonek;
pos = (467,0);
},
{
name = top;
pos = (356,700);
},
{
name = topleft;
pos = (85,700);
}
);
shapes = (
{
closed = 1;
nodes = (
(467,0,l),
(492,136,l),
(188,136,l),
(216,301,l),
(473,301,l),
(496,437,l),
(239,437,l),
(261,564,l),
(565,564,l),
(591,700,l),
(129,700,l),
(5,0,l)
);
}
);
};
hints = (
{
horizontal = 1;
place = (-15,109);
type = Stem;
},
{
horizontal = 1;
place = (282,104);
type = Stem;
},
{
horizontal = 1;
place = (561,109);
type = Stem;
},
{
place = (4,561);
type = Stem;
}
);
layerId = "3DCB9202-475F-4A42-ABEA-4A11C2D29AB5";
shapes = (
{
closed = 1;
nodes = (
(467,0,l),
(492,136,l),
(188,136,l),
(216,301,l),
(473,301,l),
(496,437,l),
(239,437,l),
(261,564,l),
(565,564,l),
(591,700,l),
(129,700,l),
(5,0,l)
);
}
);
width = 550;
}
);
note = E;
unicode = 69;
},
{
glyphname = Eacute;
lastChange = "2023-05-03 08:05:36 +0000";
layers = (
{
background = {
anchors = (
{
name = bottom;
pos = (227,0);
},
{
name = ogonek;
pos = (435,0);
},
{
name = top;
pos = (392,931);
},
{
name = topleft;
pos = (100,700);
}
);
hints = (
{
horizontal = 1;
place = (0,67);
type = Stem;
},
{
horizontal = 1;
place = (320,66);
type = Stem;
},
{
horizontal = 1;
place = (633,67);
type = Stem;
},
{
place = (31,528);
type = Stem;
},
{
horizontal = 1;
place = (594,43);
type = Stem;
},
{
place = (19,63);
type = Stem;
}
);
shapes = (
{
closed = 1;
nodes = (
(435,0,l),
(447,69,l),
(126,69,l),
(174,336,l),
(451,336,l),
(463,404,l),
(186,404,l),
(226,631,l),
(547,631,l),
(559,700,l),
(154,700,l),
(30,0,l)
);
},
{
closed = 1;
nodes = (
(484,858,l),
(497,931,l),
(264,804,l),
(253,741,l)
);
}
);
};
hints = (
{
horizontal = 1;
place = (0,67);
type = Stem;
},
{
horizontal = 1;
place = (320,66);
type = Stem;
},
{
horizontal = 1;
place = (633,67);
type = Stem;
},
{
place = (31,532);
type = Stem;
}
);
layerId = m01;
shapes = (
{
ref = E;
},
{
pos = (166,0);
ref = acutecomb.case;
}
);
width = 542;
},
{
background = {
anchors = (
{
name = bottom;
pos = (229,0);
},
{
name = ogonek;
pos = (453,0);
},
{
name = top;
pos = (398,952);
},
{
name = topleft;
pos = (90,700);
}
);
hints = (
{
horizontal = 1;
place = (-10,91);
type = Stem;
},
{
horizontal = 1;
place = (296,88);
type = Stem;
},
{
horizontal = 1;
place = (589,91);
type = Stem;
},
{
place = (14,547);
type = Stem;
},
{
horizontal = 1;
place = (591,63);
type = Stem;
},
{
place = (11,77);
type = Stem;
}
);
shapes = (
{
closed = 1;
nodes = (
(453,0,l),
(473,109,l),
(162,109,l),
(198,315,l),
(463,315,l),
(482,424,l),
(217,424,l),
(246,591,l),
(557,591,l),
(577,700,l),
(138,700,l),
(14,0,l)
);
},
{
closed = 1;
nodes = (
(492,848,l),
(511,952,l),
(263,830,l),
(247,740,l)
);
}
);
};
hints = (
{
horizontal = 1;
place = (0,101);
type = Stem;
},
{
horizontal = 1;
place = (306,98);
type = Stem;
},
{
horizontal = 1;
place = (599,101);
type = Stem;
},
{
place = (24,566);
type = Stem;
}
);
layerId = "C673E357-C9AB-4A21-92F5-E812FFC50395";
shapes = (
{
ref = E;
},
{
pos = (160,0);
ref = acutecomb.case;
}
);
width = 545;
},
{
background = {
anchors = (
{
name = bottom;
pos = (232,0);
},
{
name = ogonek;
pos = (467,0);
},
{
name = top;
pos = (404,966);
},
{
name = topleft;
pos = (85,700);
}
);
hints = (
{
horizontal = 1;
place = (-15,109);
type = Stem;
},
{
horizontal = 1;
place = (282,104);
type = Stem;
},
{
horizontal = 1;
place = (561,109);
type = Stem;
},
{
place = (4,561);
type = Stem;
},
{
horizontal = 1;
place = (589,76);
type = Stem;
},
{
place = (8,86);
type = Stem;
}
);
shapes = (
{
closed = 1;
nodes = (
(467,0,l),
(492,136,l),
(188,136,l),
(216,301,l),
(473,301,l),
(496,437,l),
(239,437,l),
(261,564,l),
(565,564,l),
(591,700,l),
(129,700,l),
(5,0,l)
);
},
{
closed = 1;
nodes = (
(499,841,l),
(522,966,l),
(264,847,l),
(245,739,l)
);
}
);
};
hints = (
{
horizontal = 1;
place = (0,124);
type = Stem;
},
{
horizontal = 1;
place = (297,119);
type = Stem;
},
{
horizontal = 1;
place = (576,124);
type = Stem;
},
{
place = (19,589);
type = Stem;
}
);
layerId = "3DCB9202-475F-4A42-ABEA-4A11C2D29AB5";
shapes = (
{
ref = E;
},
{
pos = (158,0);
ref = acutecomb.case;
}
);
width = 550;
}
);
note = Eacute;
unicode = 201;
},
{
glyphname = Ebreve;
lastChange = "2023-05-03 08:05:36 +0000";
layers = (
{
background = {
anchors = (
{
name = bottom;
pos = (227,0);
},
{
name = ogonek;
pos = (435,0);
},
{
name = top;
pos = (387,901);
},
{
name = topleft;
pos = (100,700);
}
);
hints = (
{
horizontal = 1;
place = (0,67);
type = Stem;
},
{
horizontal = 1;
place = (320,66);
type = Stem;
},
{
horizontal = 1;
place = (633,67);
type = Stem;
},
{
place = (31,528);
type = Stem;
},
{
horizontal = 1;
place = (611,-80);
type = Stem;
},
{
place = (-16,-96);
type = Stem;
},
{
place = (214,-95);
type = Stem;
}
);
shapes = (
{
closed = 1;
nodes = (
(435,0,l),
(447,69,l),
(126,69,l),
(174,336,l),
(451,336,l),
(463,404,l),
(186,404,l),
(226,631,l),
(547,631,l),
(559,700,l),
(154,700,l),
(30,0,l)
);
},
{
closed = 1;
nodes = (
(451,757,o),
(508,814,o),
(524,887,cs),
(527,901,l),
(475,901,l),
(466,852,o),
(436,823,o),
(372,823,cs),
(317,823,o),
(294,844,o),
(294,881,cs),
(294,887,o),
(295,894,o),
(296,901,c),
(246,901,l),
(242,885,o),
(241,874,o),
(241,860,cs),
(241,800,o),
(280,757,o),
(360,757,cs)
);
}
);
};
hints = (
{
horizontal = 1;
place = (0,67);
type = Stem;
},
{
horizontal = 1;
place = (320,66);
type = Stem;
},
{
horizontal = 1;
place = (633,67);
type = Stem;
},
{
horizontal = 1;
place = (763,66);
type = Stem;
},
{
place = (31,528);
type = Stem;
}
);
layerId = m01;
shapes = (
{
ref = E;
},
{
pos = (130,0);
ref = brevecomb.case;
}
);
width = 542;
},
{
background = {
anchors = (
{
name = bottom;
pos = (229,0);
},
{
name = ogonek;
pos = (453,0);
},
{
name = top;
pos = (391,917);
},
{
name = topleft;
pos = (90,700);
}
);
hints = (
{
horizontal = 1;
place = (-10,91);
type = Stem;
},
{
horizontal = 1;
place = (296,88);
type = Stem;
},
{
horizontal = 1;
place = (589,91);
type = Stem;
},
{
place = (14,547);
type = Stem;
},
{
horizontal = 1;
place = (602,-51);
type = Stem;
},
{
place = (-31,-79);
type = Stem;
},
{
place = (212,-79);
type = Stem;
}
);
shapes = (
{
closed = 1;
nodes = (
(453,0,l),
(473,109,l),
(162,109,l),
(198,315,l),
(463,315,l),
(482,424,l),
(217,424,l),
(246,591,l),
(557,591,l),
(577,700,l),
(138,700,l),
(14,0,l)
);
},
{
closed = 1;
nodes = (
(456,749,o),
(527,808,o),
(543,900,cs),
(546,917,l),
(478,917,l),
(470,872,o),
(442,845,o),
(377,845,cs),
(322,845,o),
(301,865,o),
(301,899,cs),
(301,904,o),
(302,910,o),
(303,917,c),
(235,917,l),
(230,897,o),
(229,884,o),
(229,867,cs),
(229,794,o),
(276,749,o),
(360,749,cs)
);
}
);
};
hints = (
{
horizontal = 1;
place = (0,101);
type = Stem;
},
{
horizontal = 1;
place = (306,98);
type = Stem;
},
{
horizontal = 1;
place = (599,101);
type = Stem;
},
{
horizontal = 1;
place = (755,95);
type = Stem;
},
{
place = (24,557);
type = Stem;
}
);
layerId = "C673E357-C9AB-4A21-92F5-E812FFC50395";
shapes = (
{
ref = E;
},
{
pos = (116,0);
ref = brevecomb.case;
}
);
width = 545;
},
{
background = {
anchors = (
{
name = bottom;
pos = (232,0);
},
{
name = ogonek;
pos = (467,0);
},
{
name = top;
pos = (395,928);
},
{
name = topleft;
pos = (85,700);
}
);
hints = (
{
horizontal = 1;
place = (-15,109);
type = Stem;
},
{
horizontal = 1;
place = (282,104);
type = Stem;
},
{
horizontal = 1;
place = (561,109);
type = Stem;
},
{
place = (4,561);
type = Stem;
},
{
horizontal = 1;
place = (596,-32);
type = Stem;
},
{
place = (-38,-68);
type = Stem;
},
{
place = (214,-68);
type = Stem;
}
);
shapes = (
{
closed = 1;
nodes = (
(467,0,l),
(492,136,l),
(188,136,l),
(216,301,l),
(473,301,l),
(496,437,l),
(239,437,l),
(261,564,l),
(565,564,l),
(591,700,l),
(129,700,l),
(5,0,l)
);
},
{
closed = 1;
nodes = (
(461,744,o),
(540,804,o),
(557,909,cs),
(560,928,l),
(481,928,l),
(474,885,o),
(448,860,o),
(382,860,cs),
(327,860,o),
(307,878,o),
(307,911,cs),
(307,916,o),
(308,922,o),
(309,928,c),
(230,928,l),
(225,907,o),
(223,890,o),
(223,872,cs),
(223,790,o),
(276,744,o),
(362,744,cs)
);
}
);
};
hints = (
{
horizontal = 1;
place = (0,124);
type = Stem;
},
{
horizontal = 1;
place = (297,119);
type = Stem;
},
{
horizontal = 1;
place = (576,124);
type = Stem;
},
{
horizontal = 1;
place = (750,114);
type = Stem;
},
{
place = (19,576);
type = Stem;
}
);
layerId = "3DCB9202-475F-4A42-ABEA-4A11C2D29AB5";
shapes = (
{
ref = E;
},
{
pos = (110,0);
ref = brevecomb.case;
}
);
width = 550;
}
);
note = Ebreve;
unicode = 276;
},
{
glyphname = Ecaron;
lastChange = "2023-05-03 08:05:36 +0000";
layers = (
{
background = {
anchors = (
{
name = bottom;
pos = (227,0);
},
{
name = ogonek;
pos = (435,0);
},
{
name = top;
pos = (386,901);
},
{
name = topleft;
pos = (100,700);
}
);
hints = (
{
horizontal = 1;
place = (0,67);
type = Stem;
},
{
horizontal = 1;
place = (320,66);
type = Stem;
},
{
horizontal = 1;
place = (633,67);
type = Stem;
},
{
place = (31,528);
type = Stem;
},
{
horizontal = 1;
place = (608,1);
type = Stem;
},
{
place = (-13,128);
type = Stem;
}
);
shapes = (
{
closed = 1;
nodes = (
(435,0,l),
(447,69,l),
(126,69,l),
(174,336,l),
(451,336,l),
(463,404,l),
(186,404,l),
(226,631,l),
(547,631,l),
(559,700,l),
(154,700,l),
(30,0,l)
);
},
{
closed = 1;
nodes = (
(511,836,l),
(523,901,l),
(371,817,l),
(249,901,l),
(237,836,l),
(360,754,l)
);
}
);
};
hints = (
{
horizontal = 1;
place = (0,67);
type = Stem;
},
{
horizontal = 1;
place = (320,66);
type = Stem;
},
{
horizontal = 1;
place = (633,67);
type = Stem;
},
{
place = (31,528);
type = Stem;
}
);
layerId = m01;
shapes = (
{
ref = E;
},
{
pos = (133,0);
ref = caroncomb.case;
}
);
width = 542;
},
{
background = {
anchors = (
{
name = bottom;
pos = (229,0);
},
{
name = ogonek;
pos = (453,0);
},
{
name = top;
pos = (391,918);
},
{
name = topleft;
pos = (90,700);
}
);
hints = (
{
horizontal = 1;
place = (-10,91);
type = Stem;
},
{
horizontal = 1;
place = (296,88);
type = Stem;
},
{
horizontal = 1;
place = (589,91);
type = Stem;
},
{
place = (14,547);
type = Stem;
},
{
horizontal = 1;
place = (599,25);
type = Stem;
},
{
place = (-20,145);
type = Stem;
}
);
shapes = (
{
closed = 1;
nodes = (
(453,0,l),
(473,109,l),
(162,109,l),
(198,315,l),
(463,315,l),
(482,424,l),
(217,424,l),
(246,591,l),
(557,591,l),
(577,700,l),
(138,700,l),
(14,0,l)
);
},
{
closed = 1;
nodes = (
(521,826,l),
(537,918,l),
(376,833,l),
(245,918,l),
(229,826,l),
(361,746,l)
);
}
);
};
hints = (
{
horizontal = 1;
place = (0,101);
type = Stem;
},
{
horizontal = 1;
place = (306,98);
type = Stem;
},
{
horizontal = 1;
place = (599,101);
type = Stem;
},
{
place = (24,557);
type = Stem;
}
);
layerId = "C673E357-C9AB-4A21-92F5-E812FFC50395";
shapes = (
{
ref = E;
},
{
pos = (127,0);
ref = caroncomb.case;
}
);
width = 545;
},
{
background = {
anchors = (
{
name = bottom;
pos = (232,0);
},
{
name = ogonek;
pos = (467,0);
},
{
name = top;
pos = (396,929);
},
{
name = topleft;
pos = (85,700);
}
);
hints = (
{
horizontal = 1;
place = (-15,109);
type = Stem;
},
{
horizontal = 1;
place = (282,104);
type = Stem;
},
{
horizontal = 1;
place = (561,109);
type = Stem;
},
{
place = (4,561);
type = Stem;
},
{
horizontal = 1;
place = (593,41);
type = Stem;
},
{
place = (-23,156);
type = Stem;
}
);
shapes = (
{
closed = 1;
nodes = (
(467,0,l),
(492,136,l),
(188,136,l),
(216,301,l),
(473,301,l),
(496,437,l),
(239,437,l),
(261,564,l),
(565,564,l),
(591,700,l),
(129,700,l),
(5,0,l)
);
},
{
closed = 1;
nodes = (
(530,819,l),
(548,929,l),
(381,844,l),
(244,929,l),
(226,819,l),
(364,741,l)
);
}
);
};
hints = (
{
horizontal = 1;
place = (0,124);
type = Stem;
},
{
horizontal = 1;
place = (297,119);
type = Stem;
},
{
horizontal = 1;
place = (576,124);
type = Stem;
},
{
place = (19,576);
type = Stem;
}
);
layerId = "3DCB9202-475F-4A42-ABEA-4A11C2D29AB5";
shapes = (
{
ref = E;
},
{
pos = (125,0);
ref = caroncomb.case;
}
);
width = 550;
}
);
note = Ecaron;
unicode = 282;
},
{
glyphname = Ecircumflex;
lastChange = "2023-05-03 08:05:36 +0000";
layers = (
{
background = {
anchors = (
{
name = bottom;
pos = (227,0);
},
{
name = ogonek;
pos = (435,0);
},
{
name = top;
pos = (387,902);
},
{
name = topleft;
pos = (100,700);
}
);
hints = (
{
horizontal = 1;
place = (0,67);
type = Stem;
},
{
horizontal = 1;
place = (320,66);
type = Stem;
},
{
horizontal = 1;
place = (633,67);
type = Stem;
},
{
place = (31,528);
type = Stem;
},
{
horizontal = 1;
place = (609,1);
type = Stem;
},
{
place = (-11,128);
type = Stem;
}
);
shapes = (
{
closed = 1;
nodes = (
(435,0,l),
(447,69,l),
(126,69,l),
(174,336,l),
(451,336,l),
(463,404,l),
(186,404,l),
(226,631,l),
(547,631,l),
(559,700,l),
(154,700,l),
(30,0,l)
);
},
{
closed = 1;
nodes = (
(376,839,l),
(498,755,l),
(510,821,l),
(387,902,l),
(236,821,l),
(224,755,l)
);
}
);
};
hints = (
{
horizontal = 1;
place = (0,67);
type = Stem;
},
{
horizontal = 1;
place = (320,66);
type = Stem;
},
{
horizontal = 1;
place = (633,67);
type = Stem;
},
{
place = (31,528);
type = Stem;
}
);
layerId = m01;
shapes = (
{
ref = E;
},
{
pos = (135,0);
ref = circumflexcomb.case;
}
);
width = 542;
},
{
background = {
anchors = (
{
name = bottom;
pos = (229,0);
},
{
name = ogonek;
pos = (453,0);
},
{
name = top;
pos = (391,919);
},
{
name = topleft;
pos = (90,700);
}
);
hints = (
{
horizontal = 1;
place = (-10,91);
type = Stem;
},
{
horizontal = 1;
place = (296,88);
type = Stem;
},
{
horizontal = 1;
place = (589,91);
type = Stem;
},
{
place = (14,547);
type = Stem;
},
{
horizontal = 1;
place = (600,25);
type = Stem;
},
{
place = (-20,145);
type = Stem;
}
);
shapes = (
{
closed = 1;
nodes = (
(453,0,l),
(473,109,l),
(162,109,l),
(198,315,l),
(463,315,l),
(482,424,l),
(217,424,l),
(246,591,l),
(557,591,l),
(577,700,l),
(138,700,l),
(14,0,l)
);
},
{
closed = 1;
nodes = (
(375,829,l),
(507,747,l),
(523,839,l),
(391,919,l),
(231,839,l),
(215,747,l)
);
}
);
};
hints = (
{
horizontal = 1;
place = (0,101);
type = Stem;
},
{
horizontal = 1;
place = (306,98);
type = Stem;
},
{
horizontal = 1;
place = (599,101);
type = Stem;
},
{
place = (24,557);
type = Stem;
}
);
layerId = "C673E357-C9AB-4A21-92F5-E812FFC50395";
shapes = (
{
ref = E;
},
{
pos = (127,0);
ref = circumflexcomb.case;
}
);
width = 545;
},
{
background = {
anchors = (
{
name = bottom;
pos = (232,0);
},
{
name = ogonek;
pos = (467,0);
},
{
name = top;
pos = (395,930);
},
{
name = topleft;
pos = (85,700);
}
);
hints = (
{
horizontal = 1;
place = (-15,109);
type = Stem;
},
{
horizontal = 1;
place = (282,104);
type = Stem;
},
{
horizontal = 1;
place = (561,109);
type = Stem;
},
{
place = (4,561);
type = Stem;
},
{
horizontal = 1;
place = (594,41);
type = Stem;
},
{
place = (-25,156);
type = Stem;
}
);
shapes = (
{
closed = 1;
nodes = (
(467,0,l),
(492,136,l),
(188,136,l),
(216,301,l),
(473,301,l),
(496,437,l),
(239,437,l),
(261,564,l),
(565,564,l),
(591,700,l),
(129,700,l),
(5,0,l)
);
},
{
closed = 1;
nodes = (
(376,822,l),
(514,742,l),
(533,851,l),
(395,930,l),
(229,851,l),
(210,742,l)
);
}
);
};
hints = (
{
horizontal = 1;
place = (0,124);
type = Stem;
},
{
horizontal = 1;
place = (297,119);
type = Stem;
},
{
horizontal = 1;
place = (576,124);
type = Stem;
},
{
place = (19,576);
type = Stem;
}
);
layerId = "3DCB9202-475F-4A42-ABEA-4A11C2D29AB5";
shapes = (
{
ref = E;
},
{
pos = (123,0);
ref = circumflexcomb.case;
}
);
width = 550;
}
);
note = Ecircumflex;
unicode = 202;
},
{
glyphname = Edieresis;
lastChange = "2023-05-03 08:05:36 +0000";
layers = (
{
background = {
anchors = (
{
name = bottom;
pos = (227,0);
},
{
name = ogonek;
pos = (435,0);
},
{
name = top;
pos = (384,889);
},
{
name = topleft;
pos = (100,700);
}
);
hints = (
{
horizontal = 1;
place = (0,67);
type = Stem;
},
{
horizontal = 1;
place = (320,66);
type = Stem;
},
{
horizontal = 1;
place = (633,67);
type = Stem;
},
{
place = (31,528);
type = Stem;
},
{
horizontal = 1;
place = (628,-47);
type = Stem;
},
{
place = (-24,-47);
type = Stem;
},
{
place = (136,-48);
type = Stem;
}
);
shapes = (
{
closed = 1;
nodes = (
(435,0,l),
(447,69,l),
(126,69,l),
(174,336,l),
(451,336,l),
(463,404,l),
(186,404,l),
(226,631,l),
(547,631,l),
(559,700,l),
(154,700,l),
(30,0,l)
);
},
{
closed = 1;
nodes = (
(494,775,o),
(520,800,o),
(520,833,cs),
(520,865,o),
(494,889,o),
(462,889,cs),
(429,889,o),
(404,865,o),
(404,833,cs),
(404,800,o),
(429,775,o),
(462,775,cs)
);
},
{
closed = 1;
nodes = (
(317,775,o),
(343,800,o),
(343,833,cs),
(343,865,o),
(317,889,o),
(285,889,cs),
(252,889,o),
(227,865,o),
(227,833,cs),
(227,800,o),
(252,775,o),
(285,775,cs)
);
}
);
};
hints = (
{
horizontal = 1;
place = (0,67);
type = Stem;
},
{
horizontal = 1;
place = (320,66);
type = Stem;
},
{
horizontal = 1;
place = (633,67);
type = Stem;
},
{
horizontal = 1;
place = (775,100);
type = Stem;
},
{
place = (249,100);
type = Stem;
},
{
place = (410,99);
type = Stem;
}
);
layerId = m01;
shapes = (
{
ref = E;
},
{
pos = (123,0);
ref = dieresiscomb.case;
}
);
width = 542;
},
{
background = {
anchors = (
{
name = bottom;
pos = (229,0);
},
{
name = ogonek;
pos = (453,0);
},
{
name = top;
pos = (395,934);
},
{
name = topleft;
pos = (90,700);
}
);
hints = (
{
horizontal = 1;
place = (-10,91);
type = Stem;
},
{
horizontal = 1;
place = (296,88);
type = Stem;
},
{
horizontal = 1;
place = (589,91);
type = Stem;
},
{
place = (14,547);
type = Stem;
},
{
horizontal = 1;
place = (618,-26);
type = Stem;
},
{
place = (-72,-26);
type = Stem;
},
{
place = (108,-26);
type = Stem;
}
);
shapes = (
{
closed = 1;
nodes = (
(453,0,l),
(473,109,l),
(162,109,l),
(198,315,l),
(463,315,l),
(482,424,l),
(217,424,l),
(246,591,l),
(557,591,l),
(577,700,l),
(138,700,l),
(14,0,l)
);
},
{
closed = 1;
nodes = (
(538,768,o),
(574,804,o),
(574,851,cs),
(574,898,o),
(538,934,o),
(491,934,cs),
(444,934,o),
(408,898,o),
(408,851,cs),
(408,804,o),
(444,768,o),
(491,768,cs)
);
},
{
closed = 1;
nodes = (
(316,768,o),
(352,804,o),
(352,851,cs),
(352,898,o),
(316,934,o),
(269,934,cs),
(222,934,o),
(186,898,o),
(186,851,cs),
(186,804,o),
(222,768,o),
(269,768,cs)
);
}
);
};
hints = (
{
horizontal = 1;
place = (0,101);
type = Stem;
},
{
horizontal = 1;
place = (306,98);
type = Stem;
},
{
horizontal = 1;
place = (599,101);
type = Stem;
},
{
horizontal = 1;
place = (768,124);
type = Stem;
},
{
place = (242,123);
type = Stem;
},
{
place = (422,123);
type = Stem;
}
);
layerId = "C673E357-C9AB-4A21-92F5-E812FFC50395";
shapes = (
{
ref = E;
},
{
pos = (78,0);
ref = dieresiscomb.case;
}
);
width = 545;
},
{
background = {
anchors = (
{
name = bottom;
pos = (232,0);
},
{
name = ogonek;
pos = (467,0);
},
{
name = top;
pos = (400,949);
},
{
name = topleft;
pos = (85,700);
}
);
hints = (
{
horizontal = 1;
place = (-15,109);
type = Stem;
},
{
horizontal = 1;
place = (282,104);
type = Stem;
},
{
horizontal = 1;
place = (561,109);
type = Stem;
},
{
place = (4,561);
type = Stem;
},
{
horizontal = 1;
place = (611,-12);
type = Stem;
},
{
place = (-92,-12);
type = Stem;
},
{
place = (101,-11);
type = Stem;
}
);
shapes = (
{
closed = 1;
nodes = (
(467,0,l),
(492,136,l),
(188,136,l),
(216,301,l),
(473,301,l),
(496,437,l),
(239,437,l),
(261,564,l),
(565,564,l),
(591,700,l),
(129,700,l),
(5,0,l)
);
},
{
closed = 1;
nodes = (
(556,759,o),
(597,801,o),
(597,854,cs),
(597,909,o),
(556,949,o),
(502,949,cs),
(448,949,o),
(407,909,o),
(407,854,cs),
(407,801,o),
(448,759,o),
(502,759,cs)
);
},
{
closed = 1;
nodes = (
(319,759,o),
(359,801,o),
(359,854,cs),
(359,909,o),
(319,949,o),
(264,949,cs),
(210,949,o),
(169,909,o),
(169,854,cs),
(169,801,o),
(210,759,o),
(264,759,cs)
);
}
);
};
hints = (
{
horizontal = 1;
place = (0,124);
type = Stem;
},
{
horizontal = 1;
place = (297,119);
type = Stem;
},
{
horizontal = 1;
place = (576,124);
type = Stem;
},
{
horizontal = 1;
place = (763,140);
type = Stem;
},
{
place = (237,138);
type = Stem;
},
{
place = (430,139);
type = Stem;
}
);
layerId = "3DCB9202-475F-4A42-ABEA-4A11C2D29AB5";
shapes = (
{
ref = E;
},
{
pos = (60,0);
ref = dieresiscomb.case;
}
);
width = 550;
}
);
note = Edieresis;
unicode = 203;
},
{
glyphname = Edotaccent;
lastChange = "2023-05-03 08:05:36 +0000";
layers = (
{
background = {
anchors = (
{
name = bottom;
pos = (227,0);
},
{
name = ogonek;
pos = (435,0);
},
{
name = top;
pos = (384,889);
},
{
name = topleft;
pos = (100,700);
}
);
hints = (
{
horizontal = 1;
place = (0,67);
type = Stem;
},
{
horizontal = 1;
place = (320,66);
type = Stem;
},
{
horizontal = 1;
place = (633,67);
type = Stem;
},
{
place = (31,528);
type = Stem;
},
{
horizontal = 1;
place = (619,-47);
type = Stem;
},
{
place = (65,-47);
type = Stem;
}
);
shapes = (
{
closed = 1;
nodes = (
(435,0,l),
(447,69,l),
(126,69,l),
(174,336,l),
(451,336,l),
(463,404,l),
(186,404,l),
(226,631,l),
(547,631,l),
(559,700,l),
(154,700,l),
(30,0,l)
);
},
{
closed = 1;
nodes = (
(406,775,o),
(432,800,o),
(432,833,cs),
(432,865,o),
(406,889,o),
(374,889,cs),
(341,889,o),
(316,865,o),
(316,833,cs),
(316,800,o),
(341,775,o),
(374,775,cs)
);
}
);
};
hints = (
{
horizontal = 1;
place = (0,67);
type = Stem;
},
{
horizontal = 1;
place = (320,66);
type = Stem;
},
{
horizontal = 1;
place = (633,67);
type = Stem;
},
{
horizontal = 1;
place = (766,100);
type = Stem;
},
{
place = (328,99);
type = Stem;
}
);
layerId = m01;
shapes = (
{
ref = E;
},
{
pos = (212,0);
ref = dotaccentcomb.case;
}
);
width = 542;
},
{
background = {
anchors = (
{
name = bottom;
pos = (229,0);
},
{
name = ogonek;
pos = (453,0);
},
{
name = top;
pos = (395,934);
},
{
name = topleft;
pos = (90,700);
}
);
hints = (
{
horizontal = 1;
place = (-10,91);
type = Stem;
},
{
horizontal = 1;
place = (296,88);
type = Stem;
},
{
horizontal = 1;
place = (589,91);
type = Stem;
},
{
place = (14,547);
type = Stem;
},
{
horizontal = 1;
place = (614,-26);
type = Stem;
},
{
place = (39,-26);
type = Stem;
}
);
shapes = (
{
closed = 1;
nodes = (
(453,0,l),
(473,109,l),
(162,109,l),
(198,315,l),
(463,315,l),
(482,424,l),
(217,424,l),
(246,591,l),
(557,591,l),
(577,700,l),
(138,700,l),
(14,0,l)
);
},
{
closed = 1;
nodes = (
(427,768,o),
(463,804,o),
(463,851,cs),
(463,898,o),
(427,934,o),
(380,934,cs),
(333,934,o),
(297,898,o),
(297,851,cs),
(297,804,o),
(333,768,o),
(380,768,cs)
);
}
);
};
hints = (
{
horizontal = 1;
place = (0,101);
type = Stem;
},
{
horizontal = 1;
place = (306,98);
type = Stem;
},
{
horizontal = 1;
place = (599,101);
type = Stem;
},
{
horizontal = 1;
place = (764,124);
type = Stem;
},
{
place = (331,123);
type = Stem;
}
);
layerId = "C673E357-C9AB-4A21-92F5-E812FFC50395";
shapes = (
{
ref = E;
},
{
pos = (189,0);
ref = dotaccentcomb.case;
}
);
width = 545;
},
{
background = {
anchors = (
{
name = bottom;
pos = (232,0);
},
{
name = ogonek;
pos = (467,0);
},
{
name = top;
pos = (400,949);
},
{
name = topleft;
pos = (85,700);
}
);
hints = (
{
horizontal = 1;
place = (-15,109);
type = Stem;
},
{
horizontal = 1;
place = (282,104);
type = Stem;
},
{
horizontal = 1;
place = (561,109);
type = Stem;
},
{
place = (4,561);
type = Stem;
},
{
horizontal = 1;
place = (611,-12);
type = Stem;
},
{
place = (28,-12);
type = Stem;
}
);
shapes = (
{
closed = 1;
nodes = (
(467,0,l),
(492,136,l),
(188,136,l),
(216,301,l),
(473,301,l),
(496,437,l),
(239,437,l),
(261,564,l),
(565,564,l),
(591,700,l),
(129,700,l),
(5,0,l)
);
},
{
closed = 1;
nodes = (
(437,759,o),
(479,800,o),
(479,854,cs),
(479,908,o),
(437,949,o),
(382,949,cs),
(332,949,o),
(288,908,o),
(288,854,cs),
(288,800,o),
(332,759,o),
(382,759,cs)
);
}
);
};
hints = (
{
horizontal = 1;
place = (0,124);
type = Stem;
},
{
horizontal = 1;
place = (297,119);
type = Stem;
},
{
horizontal = 1;
place = (576,124);
type = Stem;
},
{
horizontal = 1;
place = (763,140);
type = Stem;
},
{
place = (333,139);
type = Stem;
}
);
layerId = "3DCB9202-475F-4A42-ABEA-4A11C2D29AB5";
shapes = (
{
ref = E;
},
{
pos = (180,0);
ref = dotaccentcomb.case;
}
);
width = 550;
}
);
note = Edotaccent;
unicode = 278;
},
{
glyphname = Egrave;
lastChange = "2023-05-03 08:05:36 +0000";
layers = (
{
background = {
anchors = (
{
name = bottom;
pos = (227,0);
},
{
name = ogonek;
pos = (435,0);
},
{
name = top;
pos = (392,931);
},
{
name = topleft;
pos = (100,700);
}
);
hints = (
{
horizontal = 1;
place = (0,67);
type = Stem;
},
{
horizontal = 1;
place = (320,66);
type = Stem;
},
{
horizontal = 1;
place = (633,67);
type = Stem;
},
{
place = (31,528);
type = Stem;
},
{
horizontal = 1;
place = (594,43);
type = Stem;
},
{
place = (19,63);
type = Stem;
}
);
shapes = (
{
closed = 1;
nodes = (
(435,0,l),
(447,69,l),
(126,69,l),
(174,336,l),
(451,336,l),
(463,404,l),
(186,404,l),
(226,631,l),
(547,631,l),
(559,700,l),
(154,700,l),
(30,0,l)
);
},
{
closed = 1;
nodes = (
(474,804,l),
(287,931,l),
(274,858,l),
(463,741,l)
);
}
);
};
hints = (
{
horizontal = 1;
place = (0,67);
type = Stem;
},
{
horizontal = 1;
place = (320,66);
type = Stem;
},
{
horizontal = 1;
place = (633,67);
type = Stem;
},
{
place = (31,528);
type = Stem;
}
);
layerId = m01;
shapes = (
{
ref = E;
},
{
pos = (166,0);
ref = gravecomb.case;
}
);
width = 542;
},
{
background = {
anchors = (
{
name = bottom;
pos = (229,0);
},
{
name = ogonek;
pos = (453,0);
},
{
name = top;
pos = (398,952);
},
{
name = topleft;
pos = (90,700);
}
);
hints = (
{
horizontal = 1;
place = (-10,91);
type = Stem;
},
{
horizontal = 1;
place = (296,88);
type = Stem;
},
{
horizontal = 1;
place = (589,91);
type = Stem;
},
{
place = (14,547);
type = Stem;
},
{
horizontal = 1;
place = (591,63);
type = Stem;
},
{
place = (11,77);
type = Stem;
}
);
shapes = (
{
closed = 1;
nodes = (
(453,0,l),
(473,109,l),
(162,109,l),
(198,315,l),
(463,315,l),
(482,424,l),
(217,424,l),
(246,591,l),
(557,591,l),
(577,700,l),
(138,700,l),
(14,0,l)
);
},
{
closed = 1;
nodes = (
(489,830,l),
(285,952,l),
(266,848,l),
(473,740,l)
);
}
);
};
hints = (
{
horizontal = 1;
place = (0,101);
type = Stem;
},
{
horizontal = 1;
place = (306,98);
type = Stem;
},
{
horizontal = 1;
place = (599,101);
type = Stem;
},
{
place = (24,557);
type = Stem;
}
);
layerId = "C673E357-C9AB-4A21-92F5-E812FFC50395";
shapes = (
{
ref = E;
},
{
pos = (160,0);
ref = gravecomb.case;
}
);
width = 545;
},
{
background = {
anchors = (
{
name = bottom;
pos = (232,0);
},
{
name = ogonek;
pos = (467,0);
},
{
name = top;
pos = (404,966);
},
{
name = topleft;
pos = (85,700);
}
);
hints = (
{
horizontal = 1;
place = (-15,109);
type = Stem;
},
{
horizontal = 1;
place = (282,104);
type = Stem;
},
{
horizontal = 1;
place = (561,109);
type = Stem;
},
{
place = (4,561);
type = Stem;
},
{
horizontal = 1;
place = (589,76);
type = Stem;
},
{
place = (8,86);
type = Stem;
}
);
shapes = (
{
closed = 1;
nodes = (
(467,0,l),
(492,136,l),
(188,136,l),
(216,301,l),
(473,301,l),
(496,437,l),
(239,437,l),
(261,564,l),
(565,564,l),
(591,700,l),
(129,700,l),
(5,0,l)
);
},
{
closed = 1;
nodes = (
(501,847,l),
(286,966,l),
(263,841,l),
(482,739,l)
);
}
);
};
hints = (
{
horizontal = 1;
place = (0,124);
type = Stem;
},
{
horizontal = 1;
place = (297,119);
type = Stem;
},
{
horizontal = 1;
place = (576,124);
type = Stem;
},
{
place = (19,576);
type = Stem;
}
);
layerId = "3DCB9202-475F-4A42-ABEA-4A11C2D29AB5";
shapes = (
{
ref = E;
},
{
pos = (158,0);
ref = gravecomb.case;
}
);
width = 550;
}
);
note = Egrave;
unicode = 200;
},
{
glyphname = Emacron;
lastChange = "2023-05-03 08:05:36 +0000";
layers = (
{
background = {
anchors = (
{
name = bottom;
pos = (227,0);
},
{
name = ogonek;
pos = (435,0);
},
{
name = top;
pos = (379,859);
},
{
name = topleft;
pos = (100,700);
}
);
hints = (
{
horizontal = 1;
place = (0,67);
type = Stem;
},
{
horizontal = 1;
place = (320,66);
type = Stem;
},
{
horizontal = 1;
place = (633,67);
type = Stem;
},
{
place = (31,528);
type = Stem;
},
{
horizontal = 1;
place = (650,-83);
type = Stem;
},
{
place = (-50,201);
type = Stem;
}
);
shapes = (
{
closed = 1;
nodes = (
(435,0,l),
(447,69,l),
(126,69,l),
(174,336,l),
(451,336,l),
(463,404,l),
(186,404,l),
(226,631,l),
(547,631,l),
(559,700,l),
(154,700,l),
(30,0,l)
);
},
{
closed = 1;
nodes = (
(540,796,l),
(552,859,l),
(205,859,l),
(193,796,l)
);
}
);
};
hints = (
{
horizontal = 1;
place = (0,67);
type = Stem;
},
{
horizontal = 1;
place = (320,66);
type = Stem;
},
{
horizontal = 1;
place = (633,67);
type = Stem;
},
{
horizontal = 1;
place = (796,63);
type = Stem;
},
{
place = (31,528);
type = Stem;
}
);
layerId = m01;
shapes = (
{
ref = E;
},
{
pos = (96,0);
ref = macroncomb.case;
}
);
width = 542;
},
{
background = {
anchors = (
{
name = bottom;
pos = (229,0);
},
{
name = ogonek;
pos = (453,0);
},
{
name = top;
pos = (384,874);
},
{
name = topleft;
pos = (90,700);
}
);
hints = (
{
horizontal = 1;
place = (-10,91);
type = Stem;
},
{
horizontal = 1;
place = (296,88);
type = Stem;
},
{
horizontal = 1;
place = (589,91);
type = Stem;
},
{
place = (14,547);
type = Stem;
},
{
horizontal = 1;
place = (637,-55);
type = Stem;
},
{
place = (-59,228);
type = Stem;
}
);
shapes = (
{
closed = 1;
nodes = (
(453,0,l),
(473,109,l),
(162,109,l),
(198,315,l),
(463,315,l),
(482,424,l),
(217,424,l),
(246,591,l),
(557,591,l),
(577,700,l),
(138,700,l),
(14,0,l)
);
},
{
closed = 1;
nodes = (
(555,783,l),
(571,874,l),
(197,874,l),
(181,783,l)
);
}
);
};
hints = (
{
horizontal = 1;
place = (0,101);
type = Stem;
},
{
horizontal = 1;
place = (306,98);
type = Stem;
},
{
horizontal = 1;
place = (599,101);
type = Stem;
},
{
horizontal = 1;
place = (783,91);
type = Stem;
},
{
place = (24,563);
type = Stem;
}
);
layerId = "C673E357-C9AB-4A21-92F5-E812FFC50395";
shapes = (
{
ref = E;
},
{
pos = (87,0);
ref = macroncomb.case;
}
);
width = 545;
},
{
background = {
anchors = (
{
name = bottom;
pos = (232,0);
},
{
name = ogonek;
pos = (467,0);
},
{
name = top;
pos = (389,884);
},
{
name = topleft;
pos = (85,700);
}
);
hints = (
{
horizontal = 1;
place = (-15,109);
type = Stem;
},
{
horizontal = 1;
place = (282,104);
type = Stem;
},
{
horizontal = 1;
place = (561,109);
type = Stem;
},
{
place = (4,561);
type = Stem;
},
{
horizontal = 1;
place = (628,-36);
type = Stem;
},
{
place = (-63,246);
type = Stem;
}
);
shapes = (
{
closed = 1;
nodes = (
(467,0,l),
(492,136,l),
(188,136,l),
(216,301,l),
(473,301,l),
(496,437,l),
(239,437,l),
(261,564,l),
(565,564,l),
(591,700,l),
(129,700,l),
(5,0,l)
);
},
{
closed = 1;
nodes = (
(567,774,l),
(586,884,l),
(194,884,l),
(175,774,l)
);
}
);
};
hints = (
{
horizontal = 1;
place = (0,124);
type = Stem;
},
{
horizontal = 1;
place = (297,119);
type = Stem;
},
{
horizontal = 1;
place = (576,124);
type = Stem;
},
{
horizontal = 1;
place = (774,110);
type = Stem;
},
{
place = (19,586);
type = Stem;
}
);
layerId = "3DCB9202-475F-4A42-ABEA-4A11C2D29AB5";
shapes = (
{
ref = E;
},
{
pos = (83,0);
ref = macroncomb.case;
}
);
width = 550;
}
);
note = Emacron;
unicode = 274;
},
{
glyphname = Eogonek;
lastChange = "2023-05-03 08:05:36 +0000";
layers = (
{
background = {
anchors = (
{
name = bottom;
pos = (227,0);
},
{
name = ogonek;
pos = (435,0);
},
{
name = top;
pos = (351,700);
},
{
name = topleft;
pos = (100,700);
}
);
hints = (
{
horizontal = 1;
place = (0,67);
type = Stem;
},
{
horizontal = 1;
place = (320,66);
type = Stem;
},
{
horizontal = 1;
place = (633,67);
type = Stem;
},
{
place = (31,528);
type = Stem;
},
{
horizontal = 1;
place = (-189,68);
type = Stem;
},
{
place = (302,82);
type = Stem;
}
);
shapes = (
{
closed = 1;
nodes = (
(435,0,l),
(447,69,l),
(126,69,l),
(174,336,l),
(451,336,l),
(463,404,l),
(186,404,l),
(226,631,l),
(547,631,l),
(559,700,l),
(154,700,l),
(30,0,l)
);
},
{
closed = 1;
nodes = (
(352,-203,o),
(378,-199,o),
(405,-190,c),
(414,-134,l),
(390,-144,o),
(367,-149,o),
(347,-149,cs),
(315,-149,o),
(294,-134,o),
(294,-109,cs),
(294,-81,o),
(314,-54,o),
(372,-28,cs),
(435,0,l),
(422,43,l),
(365,20,ls),
(259,-23,o),
(224,-72,o),
(224,-127,cs),
(224,-179,o),
(271,-203,o),
(327,-203,cs)
);
}
);
};
hints = (
{
horizontal = 1;
place = (-203,54);
type = Stem;
},
{
horizontal = 1;
place = (0,67);
type = Stem;
},
{
horizontal = 1;
place = (320,66);
type = Stem;
},
{
horizontal = 1;
place = (633,67);
type = Stem;
},
{
place = (31,528);
type = Stem;
}
);
layerId = m01;
shapes = (
{
ref = E;
},
{
pos = (288,0);
ref = ogonekcomb.case;
}
);
width = 542;
},
{
background = {
anchors = (
{
name = bottom;
pos = (229,0);
},
{
name = ogonek;
pos = (453,0);
},
{
name = top;
pos = (353,700);
},
{
name = topleft;
pos = (90,700);
}
);
hints = (
{
horizontal = 1;
place = (-10,91);
type = Stem;
},
{
horizontal = 1;
place = (296,88);
type = Stem;
},
{
horizontal = 1;
place = (589,91);
type = Stem;
},
{
place = (14,547);
type = Stem;
},
{
horizontal = 1;
place = (-197,88);
type = Stem;
},
{
place = (295,110);
type = Stem;
},
{
place = (295,233);
type = Stem;
}
);
shapes = (
{
closed = 1;
nodes = (
(453,0,l),
(473,109,l),
(162,109,l),
(198,315,l),
(463,315,l),
(482,424,l),
(217,424,l),
(246,591,l),
(557,591,l),
(577,700,l),
(138,700,l),
(14,0,l)
);
},
{
closed = 1;
nodes = (
(365,-210,o),
(397,-204,o),
(424,-196,c),
(437,-120,l),
(409,-130,o),
(384,-135,o),
(363,-135,cs),
(335,-135,o),
(318,-122,o),
(318,-102,cs),
(318,-74,o),
(338,-53,o),
(397,-26,cs),
(453,0,l),
(435,60,l),
(385,40,ls),
(256,-12,o),
(218,-65,o),
(218,-126,cs),
(218,-184,o),
(269,-210,o),
(334,-210,cs)
);
}
);
};
hints = (
{
horizontal = 1;
place = (-210,75);
type = Stem;
},
{
horizontal = 1;
place = (0,101);
type = Stem;
},
{
horizontal = 1;
place = (306,98);
type = Stem;
},
{
horizontal = 1;
place = (599,101);
type = Stem;
},
{
place = (24,557);
type = Stem;
}
);
layerId = "C673E357-C9AB-4A21-92F5-E812FFC50395";
shapes = (
{
ref = E;
},
{
pos = (282,0);
ref = ogonekcomb.case;
}
);
width = 545;
},
{
background = {
anchors = (
{
name = bottom;
pos = (232,0);
},
{
name = ogonek;
pos = (467,0);
},
{
name = top;
pos = (356,700);
},
{
name = topleft;
pos = (85,700);
}
);
hints = (
{
horizontal = 1;
place = (-15,109);
type = Stem;
},
{
horizontal = 1;
place = (282,104);
type = Stem;
},
{
horizontal = 1;
place = (561,109);
type = Stem;
},
{
place = (4,561);
type = Stem;
},
{
horizontal = 1;
place = (-202,101);
type = Stem;
},
{
place = (292,334);
type = Stem;
}
);
shapes = (
{
closed = 1;
nodes = (
(467,0,l),
(492,136,l),
(188,136,l),
(216,301,l),
(473,301,l),
(496,437,l),
(239,437,l),
(261,564,l),
(565,564,l),
(591,700,l),
(129,700,l),
(5,0,l)
);
},
{
closed = 1;
nodes = (
(375,-215,o),
(411,-207,o),
(438,-200,c),
(454,-111,l),
(423,-121,o),
(397,-126,o),
(375,-126,cs),
(350,-126,o),
(336,-115,o),
(336,-98,cs),
(336,-71,o),
(356,-52,o),
(415,-25,cs),
(467,0,l),
(445,71,l),
(400,53,ls),
(257,-5,o),
(216,-61,o),
(216,-127,cs),
(216,-188,o),
(270,-215,o),
(340,-215,cs)
);
}
);
};
hints = (
{
horizontal = 1;
place = (-215,89);
type = Stem;
},
{
horizontal = 1;
place = (0,124);
type = Stem;
},
{
horizontal = 1;
place = (297,119);
type = Stem;
},
{
horizontal = 1;
place = (576,124);
type = Stem;
},
{
place = (19,576);
type = Stem;
}
);
layerId = "3DCB9202-475F-4A42-ABEA-4A11C2D29AB5";
shapes = (
{
ref = E;
},
{
pos = (280,0);
ref = ogonekcomb.case;
}
);
width = 550;
}
);
note = Eogonek;
unicode = 280;
},
{
glyphname = Ereversed;
lastChange = "2023-05-03 08:05:55 +0000";
layers = (
{
background = {
shapes = (
{
closed = 1;
nodes = (
(445,0,l),
(569,700,l),
(136,700,l),
(124,631,l),
(473,631,l),
(433,404,l),
(128,404,l),
(116,336,l),
(421,336,l),
(373,69,l),
(24,69,l),
(12,0,l)
);
}
);
};
layerId = m01;
shapes = (
{
closed = 1;
nodes = (
(445,0,l),
(569,700,l),
(136,700,l),
(124,631,l),
(473,631,l),
(433,404,l),
(128,404,l),
(116,336,l),
(421,336,l),
(373,69,l),
(24,69,l),
(12,0,l)
);
}
);
width = 600;
},
{
background = {
shapes = (
{
closed = 1;
nodes = (
(452,0,l),
(576,700,l),
(127,700,l),
(107,591,l),
(428,591,l),
(399,424,l),
(124,424,l),
(105,315,l),
(380,315,l),
(344,109,l),
(23,109,l),
(3,0,l)
);
}
);
};
layerId = "C673E357-C9AB-4A21-92F5-E812FFC50395";
shapes = (
{
closed = 1;
nodes = (
(452,0,l),
(576,700,l),
(127,700,l),
(107,591,l),
(428,591,l),
(399,424,l),
(124,424,l),
(105,315,l),
(380,315,l),
(344,109,l),
(23,109,l),
(3,0,l)
);
}
);
width = 554;
},
{
background = {
shapes = (
{
closed = 1;
nodes = (
(458,0,l),
(582,700,l),
(123,700,l),
(97,564,l),
(400,564,l),
(378,437,l),
(123,437,l),
(99,301,l),
(354,301,l),
(326,136,l),
(24,136,l),
(-1,0,l)
);
}
);
};
layerId = "3DCB9202-475F-4A42-ABEA-4A11C2D29AB5";
shapes = (
{
closed = 1;
nodes = (
(458,0,l),
(582,700,l),
(123,700,l),
(97,564,l),
(400,564,l),
(378,437,l),
(123,437,l),
(99,301,l),
(354,301,l),
(326,136,l),
(24,136,l),
(-1,0,l)
);
}
);
width = 527;
}
);
unicode = (398,477);
},
{
glyphname = Etilde;
lastChange = "2023-05-11 00:53:52 +0000";
layers = (
{
background = {
anchors = (
{
name = bottom;
pos = (227,0);
},
{
name = ogonek;
pos = (435,0);
},
{
name = top;
pos = (379,859);
},
{
name = topleft;
pos = (100,700);
}
);
hints = (
{
horizontal = 1;
place = (0,67);
type = Stem;
},
{
horizontal = 1;
place = (320,66);
type = Stem;
},
{
horizontal = 1;
place = (633,67);
type = Stem;
},
{
place = (31,528);
type = Stem;
},
{
horizontal = 1;
place = (614,-86);
type = Stem;
},
{
place = (-22,-93);
type = Stem;
},
{
place = (231,-93);
type = Stem;
},
{
horizontal = 1;
place = (661,-86);
type = Stem;
}
);
shapes = (
{
closed = 1;
nodes = (
(435,0,l),
(447,69,l),
(126,69,l),
(174,336,l),
(451,336,l),
(463,404,l),
(186,404,l),
(226,631,l),
(547,631,l),
(559,700,l),
(154,700,l),
(30,0,l)
);
},
{
closed = 1;
nodes = (
(467,756,o),
(510,792,o),
(530,857,c),
(481,857,l),
(471,826,o),
(451,812,o),
(430,812,cs),
(384,812,o),
(377,859,o),
(323,859,cs),
(272,859,o),
(231,826,o),
(210,758,c),
(259,758,l),
(269,788,o),
(285,803,o),
(309,803,cs),
(356,803,o),
(361,756,o),
(416,756,cs)
);
}
);
};
hints = (
{
horizontal = 1;
place = (0,67);
type = Stem;
},
{
horizontal = 1;
place = (320,66);
type = Stem;
},
{
horizontal = 1;
place = (633,67);
type = Stem;
},
{
horizontal = 1;
place = (804,56);
type = Stem;
},
{
place = (31,528);
type = Stem;
},
{
horizontal = 1;
place = (757,56);
type = Stem;
}
);
layerId = m01;
shapes = (
{
ref = E;
},
{
pos = (120,0);
ref = tildecomb.case;
}
);
width = 542;
},
{
background = {
anchors = (
{
name = bottom;
pos = (229,0);
},
{
name = ogonek;
pos = (453,0);
},
{
name = top;
pos = (384,877);
},
{
name = topleft;
pos = (90,700);
}
);
hints = (
{
horizontal = 1;
place = (-10,91);
type = Stem;
},
{
horizontal = 1;
place = (296,88);
type = Stem;
},
{
horizontal = 1;
place = (589,91);
type = Stem;
},
{
place = (14,547);
type = Stem;
},
{
horizontal = 1;
place = (608,-65);
type = Stem;
},
{
place = (-47,207);
type = Stem;
},
{
horizontal = 1;
place = (654,-65);
type = Stem;
}
);
shapes = (
{
closed = 1;
nodes = (
(453,0,l),
(473,109,l),
(162,109,l),
(198,315,l),
(463,315,l),
(482,424,l),
(217,424,l),
(246,591,l),
(557,591,l),
(577,700,l),
(138,700,l),
(14,0,l)
);
},
{
closed = 1;
nodes = (
(480,752,o),
(532,791,o),
(559,876,c),
(491,876,l),
(481,845,o),
(463,831,o),
(440,831,cs),
(393,831,o),
(380,877,o),
(325,877,cs),
(264,877,o),
(214,838,o),
(186,753,c),
(254,753,l),
(264,783,o),
(281,798,o),
(305,798,cs),
(352,798,o),
(365,752,o),
(420,752,cs)
);
}
);
};
hints = (
{
horizontal = 1;
place = (0,101);
type = Stem;
},
{
horizontal = 1;
place = (306,98);
type = Stem;
},
{
horizontal = 1;
place = (599,101);
type = Stem;
},
{
horizontal = 1;
place = (800,80);
type = Stem;
},
{
place = (24,559);
type = Stem;
},
{
horizontal = 1;
place = (755,79);
type = Stem;
}
);
layerId = "C673E357-C9AB-4A21-92F5-E812FFC50395";
shapes = (
{
ref = E;
},
{
pos = (97,0);
ref = tildecomb.case;
}
);
width = 545;
},
{
background = {
anchors = (
{
name = bottom;
pos = (232,0);
},
{
name = ogonek;
pos = (467,0);
},
{
name = top;
pos = (389,889);
},
{
name = topleft;
pos = (85,700);
}
);
hints = (
{
horizontal = 1;
place = (-15,109);
type = Stem;
},
{
horizontal = 1;
place = (282,104);
type = Stem;
},
{
horizontal = 1;
place = (561,109);
type = Stem;
},
{
place = (4,561);
type = Stem;
},
{
horizontal = 1;
place = (604,-51);
type = Stem;
},
{
place = (178,62);
type = Stem;
},
{
place = (-231,407);
type = Stem;
},
{
horizontal = 1;
place = (649,-51);
type = Stem;
}
);
shapes = (
{
closed = 1;
nodes = (
(467,0,l),
(492,136,l),
(188,136,l),
(216,301,l),
(473,301,l),
(496,437,l),
(239,437,l),
(261,564,l),
(565,564,l),
(591,700,l),
(129,700,l),
(5,0,l)
);
},
{
closed = 1;
nodes = (
(490,749,o),
(548,790,o),
(580,889,c),
(499,889,l),
(489,858,o),
(472,844,o),
(448,844,cs),
(400,844,o),
(383,889,o),
(328,889,cs),
(260,889,o),
(204,846,o),
(171,750,c),
(252,750,l),
(262,780,o),
(280,795,o),
(304,795,cs),
(351,795,o),
(369,749,o),
(424,749,cs)
);
}
);
};
hints = (
{
horizontal = 1;
place = (0,124);
type = Stem;
},
{
horizontal = 1;
place = (297,119);
type = Stem;
},
{
horizontal = 1;
place = (576,124);
type = Stem;
},
{
horizontal = 1;
place = (797,96);
type = Stem;
},
{
place = (19,580);
type = Stem;
},
{
horizontal = 1;
place = (754,94);
type = Stem;
}
);
layerId = "3DCB9202-475F-4A42-ABEA-4A11C2D29AB5";
shapes = (
{
ref = E;
},
{
pos = (95,0);
ref = tildecomb.case;
}
);
width = 550;
}
);
note = uni1EBC;
unicode = 7868;
},
{
glyphname = Schwa;
kernRight = D;
lastChange = "2023-05-03 08:44:32 +0000";
layers = (
{
background = {
hints = (
{
horizontal = 1;
place = (-12,76);
type = Stem;
},
{
horizontal = 1;
place = (304,71);
type = Stem;
},
{
horizontal = 1;
place = (636,76);
type = Stem;
},
{
place = (53,86);
type = Stem;
},
{
place = (642,90);
type = Stem;
}
);
shapes = (
{
closed = 1;
nodes = (
(569,-12,o),
(732,188,o),
(732,434,cs),
(732,572,o),
(647,712,o),
(452,712,cs),
(316,712,o),
(165,641,o),
(91,479,c),
(187,479,l),
(232,578,o),
(332,636,o),
(440,636,cs),
(561,636,o),
(642,556,o),
(642,425,cs),
(642,416,o),
(641,405,o),
(640,394,cs),
(638,375,l),
(72,375,l),
(61,336,o),
(53,289,o),
(53,250,cs),
(53,115,o),
(138,-12,o),
(325,-12,cs)
);
},
{
closed = 1;
nodes = (
(215,64,o),
(139,133,o),
(139,248,cs),
(139,266,o),
(141,285,o),
(144,304,c),
(629,304,l),
(602,187,o),
(504,64,o),
(336,64,cs)
);
}
);
};
hints = (
{
horizontal = 1;
place = (-12,76);
type = Stem;
},
{
horizontal = 1;
place = (304,71);
type = Stem;
},
{
horizontal = 1;
place = (636,76);
type = Stem;
},
{
place = (53,86);
type = Stem;
},
{
place = (642,90);
type = Stem;
}
);
layerId = m01;
shapes = (
{
closed = 1;
nodes = (
(569,-12,o),
(732,188,o),
(732,434,cs),
(732,572,o),
(647,712,o),
(452,712,cs),
(316,712,o),
(165,641,o),
(91,479,c),
(187,479,l),
(232,578,o),
(332,636,o),
(440,636,cs),
(561,636,o),
(642,556,o),
(642,425,cs),
(642,407,o),
(641,393,o),
(638,375,c),
(72,375,l),
(61,336,o),
(53,289,o),
(53,250,cs),
(53,115,o),
(138,-12,o),
(325,-12,cs)
);
},
{
closed = 1;
nodes = (
(215,64,o),
(139,133,o),
(139,248,cs),
(139,266,o),
(141,285,o),
(144,304,c),
(629,304,l),
(602,187,o),
(504,64,o),
(336,64,cs)
);
}
);
width = 756;
},
{
background = {
hints = (
{
horizontal = 1;
place = (-12,117);
type = Stem;
},
{
horizontal = 1;
place = (296,92);
type = Stem;
},
{
horizontal = 1;
place = (596,116);
type = Stem;
},
{
place = (53,130);
type = Stem;
},
{
place = (612,134);
type = Stem;
}
);
shapes = (
{
closed = 1;
nodes = (
(573,-12,o),
(736,195,o),
(736,433,cs),
(736,571,o),
(648,712,o),
(449,712,cs),
(318,712,o),
(157,647,o),
(83,474,c),
(223,474,l),
(262,550,o),
(342,596,o),
(431,596,cs),
(536,596,o),
(602,529,o),
(602,424,cs),
(602,412,o),
(601,401,o),
(600,390,cs),
(600,388,l),
(63,388,l),
(50,345,o),
(43,303,o),
(43,261,cs),
(43,105,o),
(149,-12,o),
(323,-12,cs)
);
},
{
closed = 1;
nodes = (
(239,105,o),
(173,161,o),
(173,258,cs),
(173,271,o),
(174,284,o),
(176,296,c),
(585,296,l),
(563,200,o),
(474,105,o),
(340,105,cs)
);
}
);
};
hints = (
{
horizontal = 1;
place = (-22,107);
type = Stem;
},
{
horizontal = 1;
place = (286,82);
type = Stem;
},
{
horizontal = 1;
place = (586,106);
type = Stem;
},
{
place = (43,120);
type = Stem;
},
{
place = (602,124);
type = Stem;
}
);
layerId = "C673E357-C9AB-4A21-92F5-E812FFC50395";
shapes = (
{
closed = 1;
nodes = (
(573,-12,o),
(736,195,o),
(736,433,cs),
(736,571,o),
(648,712,o),
(449,712,cs),
(318,712,o),
(157,647,o),
(83,474,c),
(223,474,l),
(262,550,o),
(342,596,o),
(431,596,cs),
(536,596,o),
(602,529,o),
(602,424,cs),
(602,408,o),
(602,402,o),
(600,388,c),
(63,388,l),
(50,345,o),
(43,303,o),
(43,261,cs),
(43,105,o),
(149,-12,o),
(323,-12,cs)
);
},
{
closed = 1;
nodes = (
(239,105,o),
(173,161,o),
(173,258,cs),
(173,271,o),
(174,284,o),
(176,296,c),
(585,296,l),
(563,200,o),
(474,105,o),
(340,105,cs)
);
}
);
width = 747;
},
{
background = {
shapes = (
{
closed = 1;
nodes = (
(577,-12,o),
(740,200,o),
(740,432,cs),
(740,570,o),
(650,712,o),
(449,712,cs),
(321,712,o),
(153,651,o),
(79,471,c),
(249,471,l),
(284,531,o),
(350,569,o),
(427,569,cs),
(521,569,o),
(577,511,o),
(577,423,cs),
(577,409,o),
(576,398,o),
(575,387,cs),
(576,397,l),
(59,397,l),
(44,351,o),
(38,312,o),
(38,268,cs),
(38,98,o),
(158,-12,o),
(323,-12,cs)
);
},
{
closed = 1;
nodes = (
(257,132,o),
(197,180,o),
(197,265,cs),
(197,274,o),
(198,283,o),
(199,291,c),
(557,291,l),
(539,209,o),
(456,132,o),
(344,132,cs)
);
}
);
};
hints = (
{
horizontal = 1;
place = (-27,129);
type = Stem;
},
{
horizontal = 1;
place = (276,91);
type = Stem;
},
{
horizontal = 1;
place = (554,128);
type = Stem;
},
{
place = (38,144);
type = Stem;
},
{
place = (577,148);
type = Stem;
}
);
layerId = "3DCB9202-475F-4A42-ABEA-4A11C2D29AB5";
shapes = (
{
closed = 1;
nodes = (
(577,-12,o),
(740,200,o),
(740,432,cs),
(740,570,o),
(650,712,o),
(449,712,cs),
(321,712,o),
(153,651,o),
(79,471,c),
(249,471,l),
(284,531,o),
(350,569,o),
(427,569,cs),
(521,569,o),
(577,511,o),
(577,423,cs),
(577,404,o),
(576,400,o),
(576,397,c),
(59,397,l),
(44,351,o),
(38,312,o),
(38,268,cs),
(38,98,o),
(158,-12,o),
(323,-12,cs)
);
},
{
closed = 1;
nodes = (
(257,132,o),
(197,180,o),
(197,265,cs),
(197,274,o),
(198,283,o),
(199,291,c),
(557,291,l),
(539,209,o),
(456,132,o),
(344,132,cs)
);
}
);
width = 744;
}
);
note = uni018F;
unicode = 399;
},
{
glyphname = F;
lastChange = "2023-05-16 19:46:50 +0000";
layers = (
{
background = {
shapes = (
{
closed = 1;
nodes = (
(114,0,l),
(172,327,l),
(453,327,l),
(465,395,l),
(184,395,l),
(226,631,l),
(558,631,l),
(570,700,l),
(154,700,l),
(30,0,l)
);
}
);
};
hints = (
{
horizontal = 1;
place = (319,65);
type = Stem;
},
{
horizontal = 1;
place = (633,67);
type = Stem;
},
{
place = (31,539);
type = Stem;
}
);
layerId = m01;
shapes = (
{
closed = 1;
nodes = (
(114,0,l),
(172,327,l),
(453,327,l),
(465,395,l),
(184,395,l),
(226,631,l),
(558,631,l),
(570,700,l),
(154,700,l),
(30,0,l)
);
}
);
width = 530;
},
{
background = {
shapes = (
{
closed = 1;
nodes = (
(142,0,l),
(196,307,l),
(470,307,l),
(490,416,l),
(216,416,l),
(246,591,l),
(559,591,l),
(579,700,l),
(138,700,l),
(14,0,l)
);
}
);
};
hints = (
{
horizontal = 1;
place = (292,88);
type = Stem;
},
{
horizontal = 1;
place = (589,91);
type = Stem;
},
{
place = (14,551);
type = Stem;
}
);
layerId = "C673E357-C9AB-4A21-92F5-E812FFC50395";
shapes = (
{
closed = 1;
nodes = (
(142,0,l),
(196,307,l),
(470,307,l),
(490,416,l),
(216,416,l),
(246,591,l),
(559,591,l),
(579,700,l),
(138,700,l),
(14,0,l)
);
}
);
width = 525;
},
{
background = {
shapes = (
{
closed = 1;
nodes = (
(162,0,l),
(214,294,l),
(483,294,l),
(508,430,l),
(239,430,l),
(261,564,l),
(561,564,l),
(587,700,l),
(129,700,l),
(5,0,l)
);
}
);
};
hints = (
{
horizontal = 1;
place = (276,105);
type = Stem;
},
{
horizontal = 1;
place = (561,109);
type = Stem;
},
{
place = (4,561);
type = Stem;
}
);
layerId = "3DCB9202-475F-4A42-ABEA-4A11C2D29AB5";
shapes = (
{
closed = 1;
nodes = (
(162,0,l),
(214,294,l),
(483,294,l),
(508,430,l),
(239,430,l),
(261,564,l),
(561,564,l),
(587,700,l),
(129,700,l),
(5,0,l)
);
}
);
width = 529;
}
);
note = F;
unicode = 70;
},
{
glyphname = G;
kernLeft = C;
kernRight = G;
lastChange = "2023-05-05 00:18:22 +0000";
layers = (
{
anchors = (
{
name = bottom;
pos = (337,0);
},
{
name = top;
pos = (461,700);
}
);
background = {
anchors = (
{
name = bottom;
pos = (337,0);
},
{
name = top;
pos = (461,700);
}
);
hints = (
{
horizontal = 1;
place = (-12,75);
type = Stem;
},
{
horizontal = 1;
place = (308,66);
type = Stem;
},
{
horizontal = 1;
place = (635,77);
type = Stem;
},
{
place = (61,88);
type = Stem;
}
);
shapes = (
{
closed = 1;
nodes = (
(456,-12,o),
(529,34,o),
(594,115,c),
(581,0,l),
(658,0,l),
(724,374,l),
(385,374,l),
(374,308,l),
(626,308,l),
(589,156,o),
(498,63,o),
(349,63,cs),
(225,63,o),
(149,149,o),
(149,284,cs),
(149,443,o),
(236,635,o),
(457,635,cs),
(569,635,o),
(632,582,o),
(636,498,c),
(733,498,l),
(726,631,o),
(625,712,o),
(466,712,cs),
(225,712,o),
(61,526,o),
(61,279,cs),
(61,140,o),
(139,-12,o),
(333,-12,cs)
);
}
);
};
hints = (
{
horizontal = 1;
place = (-12,75);
type = Stem;
},
{
horizontal = 1;
place = (308,66);
type = Stem;
},
{
horizontal = 1;
place = (635,77);
type = Stem;
},
{
place = (61,88);
type = Stem;
}
);
layerId = m01;
shapes = (
{
closed = 1;
nodes = (
(456,-12,o),
(529,34,o),
(594,115,c),
(581,0,l),
(658,0,l),
(724,374,l),
(385,374,l),
(374,308,l),
(626,308,l),
(589,156,o),
(498,63,o),
(349,63,cs),
(225,63,o),
(149,149,o),
(149,284,cs),
(149,443,o),
(236,635,o),
(457,635,cs),
(569,635,o),
(632,582,o),
(636,498,c),
(733,498,l),
(726,631,o),
(625,712,o),
(466,712,cs),
(225,712,o),
(61,526,o),
(61,279,cs),
(61,140,o),
(139,-12,o),
(333,-12,cs)
);
}
);
width = 761;
},
{
anchors = (
{
name = bottom;
pos = (335,0);
},
{
name = top;
pos = (459,700);
}
);
background = {
anchors = (
{
name = bottom;
pos = (335,0);
},
{
name = top;
pos = (459,700);
}
);
hints = (
{
horizontal = 1;
place = (-12,114);
type = Stem;
},
{
horizontal = 1;
place = (289,96);
type = Stem;
},
{
horizontal = 1;
place = (594,118);
type = Stem;
},
{
place = (59,132);
type = Stem;
},
{
horizontal = 1;
place = (0,102);
type = Stem;
}
);
shapes = (
{
closed = 1;
nodes = (
(430,-12,o),
(499,25,o),
(555,92,c),
(551,0,l),
(667,0,l),
(734,378,l),
(379,378,l),
(359,270,l),
(583,270,l),
(548,169,o),
(475,102,o),
(355,102,cs),
(246,102,o),
(181,174,o),
(181,291,cs),
(181,437,o),
(262,594,o),
(449,594,cs),
(538,594,o),
(589,555,o),
(598,490,c),
(741,490,l),
(734,629,o),
(631,712,o),
(467,712,cs),
(228,712,o),
(49,538,o),
(49,281,cs),
(49,138,o),
(131,-12,o),
(323,-12,cs)
);
}
);
};
hints = (
{
horizontal = 1;
place = (-22,104);
type = Stem;
},
{
horizontal = 1;
place = (279,86);
type = Stem;
},
{
horizontal = 1;
place = (584,108);
type = Stem;
},
{
place = (49,122);
type = Stem;
},
{
horizontal = 1;
place = (-10,92);
type = Stem;
}
);
layerId = "C673E357-C9AB-4A21-92F5-E812FFC50395";
shapes = (
{
closed = 1;
nodes = (
(430,-12,o),
(499,25,o),
(555,92,c),
(551,0,l),
(667,0,l),
(734,378,l),
(379,378,l),
(359,270,l),
(583,270,l),
(548,169,o),
(475,102,o),
(355,102,cs),
(246,102,o),
(181,174,o),
(181,291,cs),
(181,437,o),
(262,594,o),
(449,594,cs),
(538,594,o),
(589,555,o),
(598,490,c),
(741,490,l),
(734,629,o),
(631,712,o),
(467,712,cs),
(228,712,o),
(49,538,o),
(49,281,cs),
(49,138,o),
(131,-12,o),
(323,-12,cs)
);
}
);
width = 757;
},
{
anchors = (
{
name = bottom;
pos = (335,0);
},
{
name = top;
pos = (459,700);
}
);
background = {
anchors = (
{
name = bottom;
pos = (335,0);
},
{
name = top;
pos = (459,700);
}
);
shapes = (
{
closed = 1;
nodes = (
(414,-12,o),
(481,19,o),
(531,77,c),
(533,0,l),
(675,0,l),
(742,381,l),
(376,381,l),
(351,245,l),
(554,245,l),
(521,177,o),
(460,128,o),
(361,128,cs),
(262,128,o),
(204,191,o),
(204,296,cs),
(204,433,o),
(281,567,o),
(445,567,cs),
(519,567,o),
(562,537,o),
(574,485,c),
(748,485,l),
(741,628,o),
(637,712,o),
(469,712,cs),
(232,712,o),
(43,546,o),
(43,282,cs),
(43,137,o),
(127,-12,o),
(318,-12,cs)
);
}
);
};
hints = (
{
horizontal = 1;
place = (-7,105);
type = Stem;
},
{
horizontal = 1;
place = (261,101);
type = Stem;
},
{
horizontal = 1;
place = (552,130);
type = Stem;
},
{
place = (-76,116);
type = Stem;
}
);
layerId = "3DCB9202-475F-4A42-ABEA-4A11C2D29AB5";
shapes = (
{
closed = 1;
nodes = (
(414,-12,o),
(481,19,o),
(531,77,c),
(533,0,l),
(675,0,l),
(742,381,l),
(376,381,l),
(351,245,l),
(554,245,l),
(521,177,o),
(460,128,o),
(361,128,cs),
(262,128,o),
(204,191,o),
(204,296,cs),
(204,433,o),
(281,567,o),
(445,567,cs),
(519,567,o),
(562,537,o),
(574,485,c),
(748,485,l),
(741,628,o),
(637,712,o),
(469,712,cs),
(232,712,o),
(43,546,o),
(43,282,cs),
(43,137,o),
(127,-12,o),
(318,-12,cs)
);
}
);
width = 758;
}
);
note = G;
unicode = 71;
},
{
glyphname = Gbreve;
kernLeft = C;
kernRight = G;
lastChange = "2023-05-03 08:05:36 +0000";
layers = (
{
background = {
anchors = (
{
name = bottom;
pos = (337,0);
},
{
name = top;
pos = (497,901);
}
);
hints = (
{
horizontal = 1;
place = (-12,75);
type = Stem;
},
{
horizontal = 1;
place = (308,66);
type = Stem;
},
{
horizontal = 1;
place = (635,77);
type = Stem;
},
{
place = (61,88);
type = Stem;
},
{
horizontal = 1;
place = (611,-80);
type = Stem;
},
{
place = (94,-96);
type = Stem;
},
{
place = (324,-95);
type = Stem;
}
);
shapes = (
{
closed = 1;
nodes = (
(456,-12,o),
(529,34,o),
(594,115,c),
(581,0,l),
(658,0,l),
(724,374,l),
(385,374,l),
(374,308,l),
(626,308,l),
(589,156,o),
(498,63,o),
(349,63,cs),
(225,63,o),
(149,149,o),
(149,284,cs),
(149,443,o),
(236,635,o),
(457,635,cs),
(569,635,o),
(632,582,o),
(636,498,c),
(733,498,l),
(726,631,o),
(625,712,o),
(466,712,cs),
(225,712,o),
(61,526,o),
(61,279,cs),
(61,140,o),
(139,-12,o),
(333,-12,cs)
);
},
{
closed = 1;
nodes = (
(561,757,o),
(618,814,o),
(634,887,cs),
(637,901,l),
(585,901,l),
(576,852,o),
(546,823,o),
(482,823,cs),
(427,823,o),
(404,844,o),
(404,881,cs),
(404,887,o),
(405,894,o),
(406,901,c),
(356,901,l),
(352,885,o),
(351,874,o),
(351,860,cs),
(351,800,o),
(390,757,o),
(470,757,cs)
);
}
);
};
hints = (
{
horizontal = 1;
place = (-12,75);
type = Stem;
},
{
horizontal = 1;
place = (308,66);
type = Stem;
},
{
horizontal = 1;
place = (635,77);
type = Stem;
},
{
horizontal = 1;
place = (763,66);
type = Stem;
},
{
place = (61,88);
type = Stem;
}
);
layerId = m01;
shapes = (
{
ref = G;
},
{
pos = (240,0);
ref = brevecomb.case;
}
);
width = 761;
},
{
background = {
anchors = (
{
name = bottom;
pos = (335,0);
},
{
name = top;
pos = (497,917);
}
);
hints = (
{
horizontal = 1;
place = (-22,104);
type = Stem;
},
{
horizontal = 1;
place = (279,86);
type = Stem;
},
{
horizontal = 1;
place = (584,108);
type = Stem;
},
{
place = (49,122);
type = Stem;
},
{
horizontal = 1;
place = (-10,92);
type = Stem;
},
{
horizontal = 1;
place = (602,-51);
type = Stem;
},
{
place = (75,-79);
type = Stem;
},
{
place = (318,-79);
type = Stem;
}
);
shapes = (
{
closed = 1;
nodes = (
(430,-12,o),
(499,25,o),
(555,92,c),
(551,0,l),
(667,0,l),
(734,378,l),
(379,378,l),
(359,270,l),
(583,270,l),
(548,169,o),
(475,102,o),
(355,102,cs),
(246,102,o),
(181,174,o),
(181,291,cs),
(181,437,o),
(262,594,o),
(449,594,cs),
(538,594,o),
(589,555,o),
(598,490,c),
(741,490,l),
(734,629,o),
(631,712,o),
(467,712,cs),
(228,712,o),
(49,538,o),
(49,281,cs),
(49,138,o),
(131,-12,o),
(323,-12,cs)
);
},
{
closed = 1;
nodes = (
(562,749,o),
(633,808,o),
(649,900,cs),
(652,917,l),
(584,917,l),
(576,872,o),
(548,845,o),
(483,845,cs),
(428,845,o),
(407,865,o),
(407,899,cs),
(407,904,o),
(408,910,o),
(409,917,c),
(341,917,l),
(336,897,o),
(335,884,o),
(335,867,cs),
(335,794,o),
(382,749,o),
(466,749,cs)
);
}
);
};
hints = (
{
horizontal = 1;
place = (-12,114);
type = Stem;
},
{
horizontal = 1;
place = (289,96);
type = Stem;
},
{
horizontal = 1;
place = (594,118);
type = Stem;
},
{
horizontal = 1;
place = (755,95);
type = Stem;
},
{
place = (59,132);
type = Stem;
},
{
horizontal = 1;
place = (0,102);
type = Stem;
}
);
layerId = "C673E357-C9AB-4A21-92F5-E812FFC50395";
shapes = (
{
ref = G;
},
{
pos = (222,0);
ref = brevecomb.case;
}
);
width = 757;
},
{
background = {
anchors = (
{
name = bottom;
pos = (335,0);
},
{
name = top;
pos = (498,928);
}
);
hints = (
{
horizontal = 1;
place = (-7,105);
type = Stem;
},
{
horizontal = 1;
place = (261,101);
type = Stem;
},
{
horizontal = 1;
place = (552,130);
type = Stem;
},
{
place = (-76,116);
type = Stem;
},
{
horizontal = 1;
place = (596,-32);
type = Stem;
},
{
place = (65,-68);
type = Stem;
},
{
place = (317,-68);
type = Stem;
}
);
shapes = (
{
closed = 1;
nodes = (
(414,-12,o),
(481,19,o),
(531,77,c),
(533,0,l),
(675,0,l),
(742,381,l),
(376,381,l),
(351,245,l),
(554,245,l),
(521,177,o),
(460,128,o),
(361,128,cs),
(262,128,o),
(204,191,o),
(204,296,cs),
(204,433,o),
(281,567,o),
(445,567,cs),
(519,567,o),
(562,537,o),
(574,485,c),
(748,485,l),
(741,628,o),
(637,712,o),
(469,712,cs),
(232,712,o),
(43,546,o),
(43,282,cs),
(43,137,o),
(127,-12,o),
(318,-12,cs)
);
},
{
closed = 1;
nodes = (
(564,744,o),
(643,804,o),
(660,909,cs),
(663,928,l),
(584,928,l),
(577,885,o),
(551,860,o),
(485,860,cs),
(430,860,o),
(410,878,o),
(410,911,cs),
(410,916,o),
(411,922,o),
(412,928,c),
(333,928,l),
(328,907,o),
(326,890,o),
(326,872,cs),
(326,790,o),
(379,744,o),
(465,744,cs)
);
}
);
};
hints = (
{
horizontal = 1;
place = (8,120);
type = Stem;
},
{
horizontal = 1;
place = (276,116);
type = Stem;
},
{
horizontal = 1;
place = (567,145);
type = Stem;
},
{
horizontal = 1;
place = (750,114);
type = Stem;
},
{
place = (-61,131);
type = Stem;
}
);
layerId = "3DCB9202-475F-4A42-ABEA-4A11C2D29AB5";
shapes = (
{
ref = G;
},
{
pos = (213,0);
ref = brevecomb.case;
}
);
width = 758;
}
);
note = Gbreve;
unicode = 286;
},
{
glyphname = Gcommaaccent;
kernLeft = C;
kernRight = G;
lastChange = "2023-05-03 08:05:36 +0000";
layers = (
{
background = {
anchors = (
{
name = bottom;
pos = (295,-238);
},
{
name = top;
pos = (461,700);
}
);
hints = (
{
horizontal = 1;
place = (-12,75);
type = Stem;
},
{
horizontal = 1;
place = (308,66);
type = Stem;
},
{
horizontal = 1;
place = (635,77);
type = Stem;
},
{
place = (61,88);
type = Stem;
},
{
horizontal = 1;
place = (-213,65);
type = Stem;
},
{
horizontal = 1;
place = (-102,102);
type = Stem;
},
{
horizontal = 1;
place = (461,97);
type = Stem;
},
{
place = (426,109);
type = Stem;
},
{
place = (661,75);
type = Stem;
},
{
place = (787,109);
type = Stem;
},
{
place = (426,104);
type = Stem;
}
);
shapes = (
{
closed = 1;
nodes = (
(456,-12,o),
(529,34,o),
(594,115,c),
(581,0,l),
(658,0,l),
(724,374,l),
(385,374,l),
(374,308,l),
(626,308,l),
(589,156,o),
(498,63,o),
(349,63,cs),
(225,63,o),
(149,149,o),
(149,284,cs),
(149,443,o),
(236,635,o),
(457,635,cs),
(569,635,o),
(632,582,o),
(636,498,c),
(733,498,l),
(726,631,o),
(625,712,o),
(466,712,cs),
(225,712,o),
(61,526,o),
(61,279,cs),
(61,140,o),
(139,-12,o),
(333,-12,cs)
);
},
{
closed = 1;
nodes = (
(333,-238,o),
(366,-167,o),
(366,-92,cs),
(366,-78,o),
(365,-64,o),
(363,-50,c),
(282,-50,l),
(268,-127,l),
(313,-127,l),
(311,-141,ls),
(306,-179,o),
(284,-198,o),
(253,-198,c),
(246,-238,l)
);
}
);
};
hints = (
{
horizontal = 1;
place = (-238,40);
type = Stem;
},
{
horizontal = 1;
place = (-127,77);
type = Stem;
},
{
horizontal = 1;
place = (-12,75);
type = Stem;
},
{
horizontal = 1;
place = (308,66);
type = Stem;
},
{
horizontal = 1;
place = (635,77);
type = Stem;
},
{
place = (61,88);
type = Stem;
},
{
place = (319,56);
type = Stem;
}
);
layerId = m01;
shapes = (
{
ref = G;
},
{
pos = (332,0);
ref = commaaccentcomb;
}
);
width = 761;
},
{
background = {
anchors = (
{
name = bottom;
pos = (287,-274);
},
{
name = top;
pos = (459,700);
}
);
hints = (
{
horizontal = 1;
place = (-22,104);
type = Stem;
},
{
horizontal = 1;
place = (279,86);
type = Stem;
},
{
horizontal = 1;
place = (584,108);
type = Stem;
},
{
place = (49,122);
type = Stem;
},
{
horizontal = 1;
place = (-10,92);
type = Stem;
},
{
horizontal = 1;
place = (-266,60);
type = Stem;
},
{
horizontal = 1;
place = (-137,108);
type = Stem;
},
{
horizontal = 1;
place = (408,116);
type = Stem;
},
{
place = (390,136);
type = Stem;
},
{
place = (640,77);
type = Stem;
},
{
place = (748,136);
type = Stem;
},
{
place = (390,126);
type = Stem;
},
{
horizontal = 1;
place = (408,104);
type = Stem;
},
{
place = (585,132);
type = Stem;
}
);
shapes = (
{
closed = 1;
nodes = (
(430,-12,o),
(499,25,o),
(555,92,c),
(551,0,l),
(667,0,l),
(734,378,l),
(379,378,l),
(359,270,l),
(583,270,l),
(548,169,o),
(475,102,o),
(355,102,cs),
(246,102,o),
(181,174,o),
(181,291,cs),
(181,437,o),
(262,594,o),
(449,594,cs),
(538,594,o),
(589,555,o),
(598,490,c),
(741,490,l),
(734,629,o),
(631,712,o),
(467,712,cs),
(228,712,o),
(49,538,o),
(49,281,cs),
(49,138,o),
(131,-12,o),
(323,-12,cs)
);
},
{
closed = 1;
nodes = (
(347,-274,o),
(377,-168,o),
(377,-86,cs),
(377,-73,o),
(376,-59,o),
(374,-45,c),
(265,-45,l),
(248,-145,l),
(303,-145,l),
(300,-160,ls),
(292,-201,o),
(272,-222,o),
(239,-222,c),
(230,-274,l)
);
}
);
};
hints = (
{
horizontal = 1;
place = (-274,52);
type = Stem;
},
{
horizontal = 1;
place = (-145,100);
type = Stem;
},
{
horizontal = 1;
place = (-12,114);
type = Stem;
},
{
horizontal = 1;
place = (289,96);
type = Stem;
},
{
horizontal = 1;
place = (594,118);
type = Stem;
},
{
place = (59,132);
type = Stem;
},
{
place = (307,74);
type = Stem;
},
{
horizontal = 1;
place = (0,102);
type = Stem;
}
);
layerId = "C673E357-C9AB-4A21-92F5-E812FFC50395";
shapes = (
{
ref = G;
},
{
pos = (317,0);
ref = commaaccentcomb;
}
);
width = 757;
},
{
background = {
anchors = (
{
name = bottom;
pos = (283,-298);
},
{
name = top;
pos = (459,700);
}
);
hints = (
{
horizontal = 1;
place = (-7,105);
type = Stem;
},
{
horizontal = 1;
place = (261,101);
type = Stem;
},
{
horizontal = 1;
place = (552,130);
type = Stem;
},
{
place = (-76,116);
type = Stem;
},
{
horizontal = 1;
place = (-86,137);
type = Stem;
},
{
horizontal = 1;
place = (748,105);
type = Stem;
},
{
horizontal = 1;
place = (373,129);
type = Stem;
},
{
place = (782,56);
type = Stem;
},
{
place = (805,177);
type = Stem;
},
{
place = (-441,27);
type = Stem;
},
{
place = (690,151);
type = Stem;
}
);
shapes = (
{
closed = 1;
nodes = (
(414,-12,o),
(481,19,o),
(531,77,c),
(533,0,l),
(675,0,l),
(742,381,l),
(376,381,l),
(351,245,l),
(554,245,l),
(521,177,o),
(460,128,o),
(361,128,cs),
(262,128,o),
(204,191,o),
(204,296,cs),
(204,433,o),
(281,567,o),
(445,567,cs),
(519,567,o),
(562,537,o),
(574,485,c),
(748,485,l),
(741,628,o),
(637,712,o),
(469,712,cs),
(232,712,o),
(43,546,o),
(43,282,cs),
(43,137,o),
(127,-12,o),
(318,-12,cs)
);
},
{
closed = 1;
nodes = (
(350,-298,o),
(384,-178,o),
(384,-95,cs),
(384,-78,o),
(383,-60,o),
(379,-42,c),
(255,-42,l),
(236,-157,l),
(297,-157,l),
(294,-173,ls),
(286,-216,o),
(265,-238,o),
(231,-238,c),
(220,-298,l)
);
}
);
};
hints = (
{
horizontal = 1;
place = (-83,140);
type = Stem;
},
{
horizontal = 1;
place = (65,139);
type = Stem;
},
{
horizontal = 1;
place = (8,120);
type = Stem;
},
{
horizontal = 1;
place = (276,116);
type = Stem;
},
{
horizontal = 1;
place = (567,145);
type = Stem;
},
{
place = (471,65);
type = Stem;
},
{
place = (-669,49);
type = Stem;
}
);
layerId = "3DCB9202-475F-4A42-ABEA-4A11C2D29AB5";
shapes = (
{
ref = G;
},
{
pos = (306,0);
ref = commaaccentcomb;
}
);
width = 758;
}
);
note = uni0122;
unicode = 290;
},
{
glyphname = Gdotaccent;
kernLeft = C;
kernRight = G;
lastChange = "2023-05-03 08:05:36 +0000";
layers = (
{
background = {
anchors = (
{
name = bottom;
pos = (337,0);
},
{
name = top;
pos = (494,889);
}
);
hints = (
{
horizontal = 1;
place = (-12,75);
type = Stem;
},
{
horizontal = 1;
place = (308,66);
type = Stem;
},
{
horizontal = 1;
place = (635,77);
type = Stem;
},
{
place = (61,88);
type = Stem;
},
{
horizontal = 1;
place = (619,-47);
type = Stem;
},
{
place = (175,-47);
type = Stem;
}
);
shapes = (
{
closed = 1;
nodes = (
(456,-12,o),
(529,34,o),
(594,115,c),
(581,0,l),
(658,0,l),
(724,374,l),
(385,374,l),
(374,308,l),
(626,308,l),
(589,156,o),
(498,63,o),
(349,63,cs),
(225,63,o),
(149,149,o),
(149,284,cs),
(149,443,o),
(236,635,o),
(457,635,cs),
(569,635,o),
(632,582,o),
(636,498,c),
(733,498,l),
(726,631,o),
(625,712,o),
(466,712,cs),
(225,712,o),
(61,526,o),
(61,279,cs),
(61,140,o),
(139,-12,o),
(333,-12,cs)
);
},
{
closed = 1;
nodes = (
(516,775,o),
(542,800,o),
(542,833,cs),
(542,865,o),
(516,889,o),
(484,889,cs),
(451,889,o),
(426,865,o),
(426,833,cs),
(426,800,o),
(451,775,o),
(484,775,cs)
);
}
);
};
hints = (
{
horizontal = 1;
place = (-12,75);
type = Stem;
},
{
horizontal = 1;
place = (308,66);
type = Stem;
},
{
horizontal = 1;
place = (635,77);
type = Stem;
},
{
horizontal = 1;
place = (766,100);
type = Stem;
},
{
place = (61,88);
type = Stem;
},
{
place = (441,99);
type = Stem;
}
);
layerId = m01;
shapes = (
{
ref = G;
},
{
pos = (322,0);
ref = dotaccentcomb.case;
}
);
width = 761;
},
{
background = {
anchors = (
{
name = bottom;
pos = (335,0);
},
{
name = top;
pos = (501,934);
}
);
hints = (
{
horizontal = 1;
place = (-22,104);
type = Stem;
},
{
horizontal = 1;
place = (279,86);
type = Stem;
},
{
horizontal = 1;
place = (584,108);
type = Stem;
},
{
place = (49,122);
type = Stem;
},
{
horizontal = 1;
place = (-10,92);
type = Stem;
},
{
horizontal = 1;
place = (614,-26);
type = Stem;
},
{
place = (145,-26);
type = Stem;
}
);
shapes = (
{
closed = 1;
nodes = (
(430,-12,o),
(499,25,o),
(555,92,c),
(551,0,l),
(667,0,l),
(734,378,l),
(379,378,l),
(359,270,l),
(583,270,l),
(548,169,o),
(475,102,o),
(355,102,cs),
(246,102,o),
(181,174,o),
(181,291,cs),
(181,437,o),
(262,594,o),
(449,594,cs),
(538,594,o),
(589,555,o),
(598,490,c),
(741,490,l),
(734,629,o),
(631,712,o),
(467,712,cs),
(228,712,o),
(49,538,o),
(49,281,cs),
(49,138,o),
(131,-12,o),
(323,-12,cs)
);
},
{
closed = 1;
nodes = (
(533,768,o),
(569,804,o),
(569,851,cs),
(569,898,o),
(533,934,o),
(486,934,cs),
(439,934,o),
(403,898,o),
(403,851,cs),
(403,804,o),
(439,768,o),
(486,768,cs)
);
}
);
};
hints = (
{
horizontal = 1;
place = (-12,114);
type = Stem;
},
{
horizontal = 1;
place = (289,96);
type = Stem;
},
{
horizontal = 1;
place = (594,118);
type = Stem;
},
{
horizontal = 1;
place = (764,124);
type = Stem;
},
{
place = (59,132);
type = Stem;
},
{
place = (438,123);
type = Stem;
},
{
horizontal = 1;
place = (0,102);
type = Stem;
}
);
layerId = "C673E357-C9AB-4A21-92F5-E812FFC50395";
shapes = (
{
ref = G;
},
{
pos = (295,0);
ref = dotaccentcomb.case;
}
);
width = 757;
},
{
background = {
anchors = (
{
name = bottom;
pos = (335,0);
},
{
name = top;
pos = (503,949);
}
);
hints = (
{
horizontal = 1;
place = (-7,105);
type = Stem;
},
{
horizontal = 1;
place = (261,101);
type = Stem;
},
{
horizontal = 1;
place = (552,130);
type = Stem;
},
{
place = (-76,116);
type = Stem;
},
{
horizontal = 1;
place = (611,-12);
type = Stem;
},
{
place = (131,-12);
type = Stem;
}
);
shapes = (
{
closed = 1;
nodes = (
(414,-12,o),
(481,19,o),
(531,77,c),
(533,0,l),
(675,0,l),
(742,381,l),
(376,381,l),
(351,245,l),
(554,245,l),
(521,177,o),
(460,128,o),
(361,128,cs),
(262,128,o),
(204,191,o),
(204,296,cs),
(204,433,o),
(281,567,o),
(445,567,cs),
(519,567,o),
(562,537,o),
(574,485,c),
(748,485,l),
(741,628,o),
(637,712,o),
(469,712,cs),
(232,712,o),
(43,546,o),
(43,282,cs),
(43,137,o),
(127,-12,o),
(318,-12,cs)
);
},
{
closed = 1;
nodes = (
(540,759,o),
(582,800,o),
(582,854,cs),
(582,908,o),
(540,949,o),
(485,949,cs),
(435,949,o),
(391,908,o),
(391,854,cs),
(391,800,o),
(435,759,o),
(485,759,cs)
);
}
);
};
hints = (
{
horizontal = 1;
place = (8,120);
type = Stem;
},
{
horizontal = 1;
place = (276,116);
type = Stem;
},
{
horizontal = 1;
place = (567,145);
type = Stem;
},
{
horizontal = 1;
place = (763,140);
type = Stem;
},
{
place = (689,146);
type = Stem;
},
{
place = (-314,124);
type = Stem;
}
);
layerId = "3DCB9202-475F-4A42-ABEA-4A11C2D29AB5";
shapes = (
{
ref = G;
},
{
pos = (283,0);
ref = dotaccentcomb.case;
}
);
width = 758;
}
);
note = Gdotaccent;
unicode = 288;
},
{
glyphname = H;
lastChange = "2023-05-03 08:05:32 +0000";
layers = (
{
background = {
shapes = (
{
closed = 1;
nodes = (
(115,0,l),
(175,336,l),
(538,336,l),
(478,0,l),
(562,0,l),
(686,700,l),
(602,700,l),
(550,405,l),
(187,405,l),
(239,700,l),
(155,700,l),
(31,0,l)
);
}
);
};
hints = (
{
horizontal = 1;
place = (324,66);
type = Stem;
},
{
place = (31,655);
type = Stem;
}
);
layerId = m01;
shapes = (
{
closed = 1;
nodes = (
(115,0,l),
(175,336,l),
(538,336,l),
(478,0,l),
(562,0,l),
(686,700,l),
(602,700,l),
(550,405,l),
(187,405,l),
(239,700,l),
(155,700,l),
(31,0,l)
);
}
);
width = 680;
},
{
background = {
shapes = (
{
closed = 1;
nodes = (
(142,0,l),
(198,316,l),
(512,316,l),
(456,0,l),
(584,0,l),
(708,700,l),
(580,700,l),
(531,425,l),
(217,425,l),
(266,700,l),
(138,700,l),
(14,0,l)
);
}
);
};
hints = (
{
horizontal = 1;
place = (297,91);
type = Stem;
},
{
place = (14,684);
type = Stem;
}
);
layerId = "C673E357-C9AB-4A21-92F5-E812FFC50395";
shapes = (
{
closed = 1;
nodes = (
(142,0,l),
(198,316,l),
(512,316,l),
(456,0,l),
(584,0,l),
(708,700,l),
(580,700,l),
(531,425,l),
(217,425,l),
(266,700,l),
(138,700,l),
(14,0,l)
);
}
);
width = 686;
},
{
background = {
shapes = (
{
closed = 1;
nodes = (
(162,0,l),
(215,303,l),
(496,303,l),
(443,0,l),
(600,0,l),
(724,700,l),
(567,700,l),
(520,438,l),
(239,438,l),
(286,700,l),
(128,700,l),
(4,0,l)
);
}
);
};
hints = (
{
horizontal = 1;
place = (281,109);
type = Stem;
},
{
place = (4,705);
type = Stem;
}
);
layerId = "3DCB9202-475F-4A42-ABEA-4A11C2D29AB5";
shapes = (
{
closed = 1;
nodes = (
(162,0,l),
(215,303,l),
(496,303,l),
(443,0,l),
(600,0,l),
(724,700,l),
(567,700,l),
(520,438,l),
(239,438,l),
(286,700,l),
(128,700,l),
(4,0,l)
);
}
);
width = 693;
}
);
note = H;
unicode = 72;
},
{
glyphname = Hbar;
lastChange = "2023-05-03 08:05:32 +0000";
layers = (
{
background = {
shapes = (
{
closed = 1;
nodes = (
(115,0,l),
(175,336,l),
(538,336,l),
(478,0,l),
(562,0,l),
(653,513,l),
(703,513,l),
(715,582,l),
(665,582,l),
(686,700,l),
(602,700,l),
(581,582,l),
(218,582,l),
(239,700,l),
(155,700,l),
(134,582,l),
(84,582,l),
(72,513,l),
(122,513,l),
(31,0,l)
);
},
{
closed = 1;
nodes = (
(206,513,l),
(569,513,l),
(550,405,l),
(187,405,l)
);
}
);
};
layerId = m01;
shapes = (
{
closed = 1;
nodes = (
(115,0,l),
(175,336,l),
(538,336,l),
(478,0,l),
(562,0,l),
(653,513,l),
(703,513,l),
(715,582,l),
(665,582,l),
(686,700,l),
(602,700,l),
(581,582,l),
(218,582,l),
(239,700,l),
(155,700,l),
(134,582,l),
(84,582,l),
(72,513,l),
(122,513,l),
(31,0,l)
);
},
{
closed = 1;
nodes = (
(206,513,l),
(569,513,l),
(550,405,l),
(187,405,l)
);
}
);
width = 681;
},
{
background = {
shapes = (
{
closed = 1;
nodes = (
(142,0,l),
(198,316,l),
(512,316,l),
(456,0,l),
(584,0,l),
(671,493,l),
(711,493,l),
(730,602,l),
(690,602,l),
(708,700,l),
(580,700,l),
(562,602,l),
(248,602,l),
(266,700,l),
(138,700,l),
(120,602,l),
(79,602,l),
(60,493,l),
(101,493,l),
(14,0,l)
);
},
{
closed = 1;
nodes = (
(229,493,l),
(543,493,l),
(531,425,l),
(217,425,l)
);
}
);
};
layerId = "C673E357-C9AB-4A21-92F5-E812FFC50395";
shapes = (
{
closed = 1;
nodes = (
(142,0,l),
(198,316,l),
(512,316,l),
(456,0,l),
(584,0,l),
(671,493,l),
(711,493,l),
(730,602,l),
(690,602,l),
(708,700,l),
(580,700,l),
(562,602,l),
(248,602,l),
(266,700,l),
(138,700,l),
(120,602,l),
(79,602,l),
(60,493,l),
(101,493,l),
(14,0,l)
);
},
{
closed = 1;
nodes = (
(229,493,l),
(543,493,l),
(531,425,l),
(217,425,l)
);
}
);
width = 685;
},
{
background = {
shapes = (
{
closed = 1;
nodes = (
(162,0,l),
(215,303,l),
(496,303,l),
(443,0,l),
(600,0,l),
(685,480,l),
(718,480,l),
(742,615,l),
(708,615,l),
(724,700,l),
(567,700,l),
(551,615,l),
(270,615,l),
(286,700,l),
(128,700,l),
(112,615,l),
(77,615,l),
(54,480,l),
(89,480,l),
(4,0,l)
);
},
{
closed = 1;
nodes = (
(246,480,l),
(527,480,l),
(520,438,l),
(239,438,l)
);
}
);
};
layerId = "3DCB9202-475F-4A42-ABEA-4A11C2D29AB5";
shapes = (
{
closed = 1;
nodes = (
(162,0,l),
(215,303,l),
(496,303,l),
(443,0,l),
(600,0,l),
(685,480,l),
(718,480,l),
(742,615,l),
(708,615,l),
(724,700,l),
(567,700,l),
(551,615,l),
(270,615,l),
(286,700,l),
(128,700,l),
(112,615,l),
(77,615,l),
(54,480,l),
(89,480,l),
(4,0,l)
);
},
{
closed = 1;
nodes = (
(246,480,l),
(527,480,l),
(520,438,l),
(239,438,l)
);
}
);
width = 691;
}
);
unicode = 294;
},
{
glyphname = I;
lastChange = "2023-05-03 08:05:32 +0000";
layers = (
{
anchors = (
{
name = bottom;
pos = (73,0);
},
{
name = ogonek;
pos = (115,0);
},
{
name = top;
pos = (197,700);
},
{
name = topleft;
pos = (100,700);
}
);
background = {
anchors = (
{
name = bottom;
pos = (73,0);
},
{
name = ogonek;
pos = (115,0);
},
{
name = top;
pos = (197,700);
},
{
name = topleft;
pos = (100,700);
}
);
shapes = (
{
closed = 1;
nodes = (
(115,0,l),
(238,700,l),
(154,700,l),
(31,0,l)
);
}
);
};
hints = (
{
horizontal = 1;
place = (0,700);
type = Stem;
},
{
place = (31,207);
type = Stem;
}
);
layerId = m01;
shapes = (
{
closed = 1;
nodes = (
(115,0,l),
(238,700,l),
(154,700,l),
(31,0,l)
);
}
);
width = 233;
},
{
anchors = (
{
name = bottom;
pos = (78,0);
},
{
name = ogonek;
pos = (142,0);
},
{
name = top;
pos = (202,700);
},
{
name = topleft;
pos = (90,700);
}
);
background = {
anchors = (
{
name = bottom;
pos = (78,0);
},
{
name = ogonek;
pos = (142,0);
},
{
name = top;
pos = (202,700);
},
{
name = topleft;
pos = (90,700);
}
);
shapes = (
{
closed = 1;
nodes = (
(142,0,l),
(266,700,l),
(138,700,l),
(14,0,l)
);
}
);
};
hints = (
{
horizontal = 1;
place = (-10,690);
type = Stem;
},
{
place = (14,242);
type = Stem;
}
);
layerId = "C673E357-C9AB-4A21-92F5-E812FFC50395";
shapes = (
{
closed = 1;
nodes = (
(142,0,l),
(266,700,l),
(138,700,l),
(14,0,l)
);
}
);
width = 244;
},
{
anchors = (
{
name = bottom;
pos = (83,0);
},
{
name = ogonek;
pos = (162,0);
},
{
name = top;
pos = (207,700);
},
{
name = topleft;
pos = (85,700);
}
);
background = {
anchors = (
{
name = bottom;
pos = (83,0);
},
{
name = ogonek;
pos = (162,0);
},
{
name = top;
pos = (207,700);
},
{
name = topleft;
pos = (85,700);
}
);
shapes = (
{
closed = 1;
nodes = (
(162,0,l),
(286,700,l),
(129,700,l),
(4,0,l)
);
}
);
};
hints = (
{
horizontal = 1;
place = (-15,685);
type = Stem;
},
{
place = (4,267);
type = Stem;
}
);
layerId = "3DCB9202-475F-4A42-ABEA-4A11C2D29AB5";
shapes = (
{
closed = 1;
nodes = (
(162,0,l),
(286,700,l),
(129,700,l),
(4,0,l)
);
}
);
width = 255;
}
);
note = I;
unicode = 73;
},
{
glyphname = IJ;
lastChange = "2023-05-03 08:05:36 +0000";
layers = (
{
background = {
anchors = (
{
name = bottom;
pos = (432,0);
},
{
name = ogonek;
pos = (115,0);
},
{
name = top;
pos = (680,700);
},
{
name = topleft;
pos = (100,700);
}
);
hints = (
{
horizontal = 1;
place = (0,700);
type = Stem;
},
{
place = (31,207);
type = Stem;
},
{
horizontal = 1;
place = (-12,75);
type = Stem;
},
{
place = (248,86);
type = Stem;
}
);
shapes = (
{
closed = 1;
nodes = (
(115,0,l),
(238,700,l),
(154,700,l),
(31,0,l)
);
},
{
closed = 1;
nodes = (
(526,-12,o),
(612,60,o),
(632,172,cs),
(724,700,l),
(640,700,l),
(548,172,ls),
(538,116,o),
(499,63,o),
(424,63,cs),
(360,63,o),
(334,101,o),
(334,153,cs),
(334,164,o),
(335,175,o),
(337,186,c),
(252,186,l),
(249,170,o),
(248,155,o),
(248,141,cs),
(248,44,o),
(309,-12,o),
(411,-12,cs)
);
}
);
};
layerId = m01;
shapes = (
{
ref = I;
},
{
pos = (233,0);
ref = J;
}
);
width = 719;
},
{
background = {
anchors = (
{
name = bottom;
pos = (451,0);
},
{
name = ogonek;
pos = (142,0);
},
{
name = top;
pos = (701,700);
},
{
name = topleft;
pos = (90,700);
}
);
hints = (
{
horizontal = 1;
place = (-10,690);
type = Stem;
},
{
place = (14,242);
type = Stem;
},
{
horizontal = 1;
place = (-22,104);
type = Stem;
},
{
place = (247,120);
type = Stem;
},
{
horizontal = 1;
place = (-22,210);
type = Stem;
}
);
shapes = (
{
closed = 1;
nodes = (
(142,0,l),
(266,700,l),
(138,700,l),
(14,0,l)
);
},
{
closed = 1;
nodes = (
(559,-12,o),
(656,64,o),
(679,196,cs),
(767,700,l),
(639,700,l),
(551,196,ls),
(541,141,o),
(507,102,o),
(450,102,cs),
(400,102,o),
(377,130,o),
(377,176,cs),
(377,186,o),
(378,197,o),
(380,208,c),
(252,208,l),
(249,190,o),
(247,173,o),
(247,157,cs),
(247,49,o),
(318,-12,o),
(432,-12,cs)
);
}
);
};
layerId = "C673E357-C9AB-4A21-92F5-E812FFC50395";
shapes = (
{
ref = I;
},
{
pos = (244,0);
ref = J;
}
);
width = 746;
},
{
background = {
anchors = (
{
name = bottom;
pos = (469,0);
},
{
name = ogonek;
pos = (162,0);
},
{
name = top;
pos = (720,700);
},
{
name = topleft;
pos = (85,700);
}
);
hints = (
{
horizontal = 1;
place = (-15,685);
type = Stem;
},
{
place = (4,267);
type = Stem;
},
{
horizontal = 1;
place = (-27,302);
type = Stem;
},
{
place = (210,118);
type = Stem;
}
);
shapes = (
{
closed = 1;
nodes = (
(162,0,l),
(286,700,l),
(129,700,l),
(4,0,l)
);
},
{
closed = 1;
nodes = (
(586,-12,o),
(691,67,o),
(716,212,cs),
(801,700,l),
(644,700,l),
(558,212,ls),
(548,158,o),
(518,128,o),
(473,128,cs),
(432,128,o),
(411,149,o),
(411,191,cs),
(411,201,o),
(412,212,o),
(414,223,c),
(257,223,l),
(254,203,o),
(252,185,o),
(252,168,cs),
(252,52,o),
(329,-12,o),
(451,-12,cs)
);
}
);
};
layerId = "3DCB9202-475F-4A42-ABEA-4A11C2D29AB5";
shapes = (
{
ref = I;
},
{
pos = (255,0);
ref = J;
}
);
width = 771;
}
);
unicode = 306;
},
{
glyphname = Iacute;
lastChange = "2023-05-03 08:05:36 +0000";
layers = (
{
background = {
anchors = (
{
name = bottom;
pos = (73,0);
},
{
name = ogonek;
pos = (115,0);
},
{
name = top;
pos = (238,931);
},
{
name = topleft;
pos = (100,700);
}
);
hints = (
{
horizontal = 1;
place = (0,700);
type = Stem;
},
{
place = (31,207);
type = Stem;
},
{
horizontal = 1;
place = (594,43);
type = Stem;
},
{
place = (-135,63);
type = Stem;
}
);
shapes = (
{
closed = 1;
nodes = (
(115,0,l),
(238,700,l),
(154,700,l),
(31,0,l)
);
},
{
closed = 1;
nodes = (
(330,858,l),
(343,931,l),
(110,804,l),
(99,741,l)
);
}
);
};
hints = (
{
horizontal = 1;
place = (0,931);
type = Stem;
},
{
place = (31,370);
type = Stem;
}
);
layerId = m01;
shapes = (
{
ref = I;
},
{
pos = (12,0);
ref = acutecomb.case;
}
);
width = 233;
},
{
background = {
anchors = (
{
name = bottom;
pos = (78,0);
},
{
name = ogonek;
pos = (142,0);
},
{
name = top;
pos = (247,952);
},
{
name = topleft;
pos = (90,700);
}
);
hints = (
{
horizontal = 1;
place = (-10,690);
type = Stem;
},
{
place = (14,242);
type = Stem;
},
{
horizontal = 1;
place = (591,63);
type = Stem;
},
{
place = (-140,77);
type = Stem;
}
);
shapes = (
{
closed = 1;
nodes = (
(142,0,l),
(266,700,l),
(138,700,l),
(14,0,l)
);
},
{
closed = 1;
nodes = (
(341,848,l),
(360,952,l),
(112,830,l),
(96,740,l)
);
}
);
};
hints = (
{
horizontal = 1;
place = (0,952);
type = Stem;
},
{
place = (24,406);
type = Stem;
}
);
layerId = "C673E357-C9AB-4A21-92F5-E812FFC50395";
shapes = (
{
ref = I;
},
{
pos = (9,0);
ref = acutecomb.case;
}
);
width = 244;
},
{
background = {
anchors = (
{
name = bottom;
pos = (83,0);
},
{
name = ogonek;
pos = (162,0);
},
{
name = top;
pos = (255,966);
},
{
name = topleft;
pos = (85,700);
}
);
hints = (
{
horizontal = 1;
place = (-15,685);
type = Stem;
},
{
place = (4,267);
type = Stem;
},
{
horizontal = 1;
place = (589,76);
type = Stem;
},
{
place = (-141,86);
type = Stem;
}
);
shapes = (
{
closed = 1;
nodes = (
(162,0,l),
(286,700,l),
(129,700,l),
(4,0,l)
);
},
{
closed = 1;
nodes = (
(350,841,l),
(373,966,l),
(115,847,l),
(96,739,l)
);
}
);
};
hints = (
{
horizontal = 1;
place = (0,966);
type = Stem;
},
{
place = (19,430);
type = Stem;
}
);
layerId = "3DCB9202-475F-4A42-ABEA-4A11C2D29AB5";
shapes = (
{
ref = I;
},
{
pos = (9,0);
ref = acutecomb.case;
}
);
width = 255;
}
);
note = Iacute;
unicode = 205;
},
{
glyphname = Ibreve;
lastChange = "2023-05-03 08:05:36 +0000";
layers = (
{
background = {
anchors = (
{
name = bottom;
pos = (73,0);
},
{
name = ogonek;
pos = (115,0);
},
{
name = top;
pos = (233,901);
},
{
name = topleft;
pos = (100,700);
}
);
hints = (
{
horizontal = 1;
place = (0,700);
type = Stem;
},
{
place = (31,207);
type = Stem;
},
{
horizontal = 1;
place = (611,-80);
type = Stem;
},
{
place = (-170,-96);
type = Stem;
},
{
place = (60,-95);
type = Stem;
}
);
shapes = (
{
closed = 1;
nodes = (
(115,0,l),
(238,700,l),
(154,700,l),
(31,0,l)
);
},
{
closed = 1;
nodes = (
(297,757,o),
(354,814,o),
(370,887,cs),
(373,901,l),
(321,901,l),
(312,852,o),
(282,823,o),
(218,823,cs),
(163,823,o),
(140,844,o),
(140,881,cs),
(140,887,o),
(141,894,o),
(142,901,c),
(92,901,l),
(88,885,o),
(87,874,o),
(87,860,cs),
(87,800,o),
(126,757,o),
(206,757,cs)
);
}
);
};
hints = (
{
horizontal = 1;
place = (763,66);
type = Stem;
},
{
place = (31,342);
type = Stem;
}
);
layerId = m01;
shapes = (
{
ref = I;
},
{
pos = (-24,0);
ref = brevecomb.case;
}
);
width = 233;
},
{
background = {
anchors = (
{
name = bottom;
pos = (78,0);
},
{
name = ogonek;
pos = (142,0);
},
{
name = top;
pos = (240,917);
},
{
name = topleft;
pos = (90,700);
}
);
hints = (
{
horizontal = 1;
place = (-10,690);
type = Stem;
},
{
place = (14,242);
type = Stem;
},
{
horizontal = 1;
place = (602,-51);
type = Stem;
},
{
place = (-182,-79);
type = Stem;
},
{
place = (61,-79);
type = Stem;
}
);
shapes = (
{
closed = 1;
nodes = (
(142,0,l),
(266,700,l),
(138,700,l),
(14,0,l)
);
},
{
closed = 1;
nodes = (
(305,749,o),
(376,808,o),
(392,900,cs),
(395,917,l),
(327,917,l),
(319,872,o),
(291,845,o),
(226,845,cs),
(171,845,o),
(150,865,o),
(150,899,cs),
(150,904,o),
(151,910,o),
(152,917,c),
(84,917,l),
(79,897,o),
(78,884,o),
(78,867,cs),
(78,794,o),
(125,749,o),
(209,749,cs)
);
}
);
};
hints = (
{
horizontal = 1;
place = (755,95);
type = Stem;
},
{
place = (24,381);
type = Stem;
}
);
layerId = "C673E357-C9AB-4A21-92F5-E812FFC50395";
shapes = (
{
ref = I;
},
{
pos = (-35,0);
ref = brevecomb.case;
}
);
width = 244;
},
{
background = {
anchors = (
{
name = bottom;
pos = (83,0);
},
{
name = ogonek;
pos = (162,0);
},
{
name = top;
pos = (246,928);
},
{
name = topleft;
pos = (85,700);
}
);
hints = (
{
horizontal = 1;
place = (-15,685);
type = Stem;
},
{
place = (4,267);
type = Stem;
},
{
horizontal = 1;
place = (596,-32);
type = Stem;
},
{
place = (-187,-68);
type = Stem;
},
{
place = (65,-68);
type = Stem;
}
);
shapes = (
{
closed = 1;
nodes = (
(162,0,l),
(286,700,l),
(129,700,l),
(4,0,l)
);
},
{
closed = 1;
nodes = (
(312,744,o),
(391,804,o),
(408,909,cs),
(411,928,l),
(332,928,l),
(325,885,o),
(299,860,o),
(233,860,cs),
(178,860,o),
(158,878,o),
(158,911,cs),
(158,916,o),
(159,922,o),
(160,928,c),
(81,928,l),
(76,907,o),
(74,890,o),
(74,872,cs),
(74,790,o),
(127,744,o),
(213,744,cs)
);
}
);
};
hints = (
{
horizontal = 1;
place = (750,114);
type = Stem;
},
{
place = (19,407);
type = Stem;
}
);
layerId = "3DCB9202-475F-4A42-ABEA-4A11C2D29AB5";
shapes = (
{
ref = I;
},
{
pos = (-39,0);
ref = brevecomb.case;
}
);
width = 255;
}
);
note = Ibreve;
unicode = 300;
},
{
glyphname = Icircumflex;
lastChange = "2023-05-03 08:05:36 +0000";
layers = (
{
background = {
anchors = (
{
name = bottom;
pos = (73,0);
},
{
name = ogonek;
pos = (115,0);
},
{
name = top;
pos = (233,902);
},
{
name = topleft;
pos = (100,700);
}
);
hints = (
{
horizontal = 1;
place = (0,700);
type = Stem;
},
{
place = (31,207);
type = Stem;
},
{
horizontal = 1;
place = (609,1);
type = Stem;
},
{
place = (-165,128);
type = Stem;
}
);
shapes = (
{
closed = 1;
nodes = (
(115,0,l),
(238,700,l),
(154,700,l),
(31,0,l)
);
},
{
closed = 1;
nodes = (
(222,839,l),
(344,755,l),
(356,821,l),
(233,902,l),
(82,821,l),
(70,755,l)
);
}
);
};
hints = (
{
horizontal = 1;
place = (0,905);
type = Stem;
},
{
place = (31,322);
type = Stem;
}
);
layerId = m01;
shapes = (
{
ref = I;
},
{
pos = (-19,0);
ref = circumflexcomb.case;
}
);
width = 233;
},
{
background = {
anchors = (
{
name = bottom;
pos = (78,0);
},
{
name = ogonek;
pos = (142,0);
},
{
name = top;
pos = (240,919);
},
{
name = topleft;
pos = (90,700);
}
);
hints = (
{
horizontal = 1;
place = (-10,690);
type = Stem;
},
{
place = (14,242);
type = Stem;
},
{
horizontal = 1;
place = (600,25);
type = Stem;
},
{
place = (-171,145);
type = Stem;
}
);
shapes = (
{
closed = 1;
nodes = (
(142,0,l),
(266,700,l),
(138,700,l),
(14,0,l)
);
},
{
closed = 1;
nodes = (
(224,829,l),
(356,747,l),
(372,839,l),
(240,919,l),
(80,839,l),
(64,747,l)
);
}
);
};
hints = (
{
horizontal = 1;
place = (0,922);
type = Stem;
},
{
place = (24,357);
type = Stem;
}
);
layerId = "C673E357-C9AB-4A21-92F5-E812FFC50395";
shapes = (
{
ref = I;
},
{
pos = (-24,0);
ref = circumflexcomb.case;
}
);
width = 244;
},
{
background = {
anchors = (
{
name = bottom;
pos = (83,0);
},
{
name = ogonek;
pos = (162,0);
},
{
name = top;
pos = (246,930);
},
{
name = topleft;
pos = (85,700);
}
);
hints = (
{
horizontal = 1;
place = (-15,685);
type = Stem;
},
{
place = (4,267);
type = Stem;
},
{
horizontal = 1;
place = (594,41);
type = Stem;
},
{
place = (-174,156);
type = Stem;
}
);
shapes = (
{
closed = 1;
nodes = (
(162,0,l),
(286,700,l),
(129,700,l),
(4,0,l)
);
},
{
closed = 1;
nodes = (
(227,822,l),
(365,742,l),
(384,851,l),
(246,930,l),
(80,851,l),
(61,742,l)
);
}
);
};
hints = (
{
horizontal = 1;
place = (0,933);
type = Stem;
},
{
place = (19,380);
type = Stem;
}
);
layerId = "3DCB9202-475F-4A42-ABEA-4A11C2D29AB5";
shapes = (
{
ref = I;
},
{
pos = (-26,0);
ref = circumflexcomb.case;
}
);
width = 255;
}
);
note = Icircumflex;
unicode = 206;
},
{
glyphname = Idieresis;
lastChange = "2023-05-03 08:05:36 +0000";
layers = (
{
background = {
anchors = (
{
name = bottom;
pos = (73,0);
},
{
name = ogonek;
pos = (115,0);
},
{
name = top;
pos = (230,889);
},
{
name = topleft;
pos = (100,700);
}
);
hints = (
{
horizontal = 1;
place = (0,700);
type = Stem;
},
{
place = (31,207);
type = Stem;
},
{
horizontal = 1;
place = (628,-47);
type = Stem;
},
{
place = (-178,-47);
type = Stem;
},
{
place = (-18,-48);
type = Stem;
}
);
shapes = (
{
closed = 1;
nodes = (
(115,0,l),
(238,700,l),
(154,700,l),
(31,0,l)
);
},
{
closed = 1;
nodes = (
(340,775,o),
(366,800,o),
(366,833,cs),
(366,865,o),
(340,889,o),
(308,889,cs),
(275,889,o),
(250,865,o),
(250,833,cs),
(250,800,o),
(275,775,o),
(308,775,cs)
);
},
{
closed = 1;
nodes = (
(163,775,o),
(189,800,o),
(189,833,cs),
(189,865,o),
(163,889,o),
(131,889,cs),
(98,889,o),
(73,865,o),
(73,833,cs),
(73,800,o),
(98,775,o),
(131,775,cs)
);
}
);
};
hints = (
{
horizontal = 1;
place = (775,100);
type = Stem;
},
{
place = (87,100);
type = Stem;
},
{
place = (248,99);
type = Stem;
}
);
layerId = m01;
shapes = (
{
ref = I;
},
{
pos = (-31,0);
ref = dieresiscomb.case;
}
);
width = 233;
},
{
background = {
anchors = (
{
name = bottom;
pos = (78,0);
},
{
name = ogonek;
pos = (142,0);
},
{
name = top;
pos = (244,934);
},
{
name = topleft;
pos = (90,700);
}
);
hints = (
{
horizontal = 1;
place = (-10,690);
type = Stem;
},
{
place = (14,242);
type = Stem;
},
{
horizontal = 1;
place = (618,-26);
type = Stem;
},
{
place = (-223,-26);
type = Stem;
},
{
place = (-43,-26);
type = Stem;
}
);
shapes = (
{
closed = 1;
nodes = (
(142,0,l),
(266,700,l),
(138,700,l),
(14,0,l)
);
},
{
closed = 1;
nodes = (
(387,768,o),
(423,804,o),
(423,851,cs),
(423,898,o),
(387,934,o),
(340,934,cs),
(293,934,o),
(257,898,o),
(257,851,cs),
(257,804,o),
(293,768,o),
(340,768,cs)
);
},
{
closed = 1;
nodes = (
(165,768,o),
(201,804,o),
(201,851,cs),
(201,898,o),
(165,934,o),
(118,934,cs),
(71,934,o),
(35,898,o),
(35,851,cs),
(35,804,o),
(71,768,o),
(118,768,cs)
);
}
);
};
hints = (
{
horizontal = 1;
place = (768,124);
type = Stem;
},
{
place = (82,123);
type = Stem;
},
{
place = (262,123);
type = Stem;
}
);
layerId = "C673E357-C9AB-4A21-92F5-E812FFC50395";
shapes = (
{
ref = I;
},
{
pos = (-73,0);
ref = dieresiscomb.case;
}
);
width = 244;
},
{
background = {
anchors = (
{
name = bottom;
pos = (83,0);
},
{
name = ogonek;
pos = (162,0);
},
{
name = top;
pos = (251,949);
},
{
name = topleft;
pos = (85,700);
}
);
hints = (
{
horizontal = 1;
place = (-15,685);
type = Stem;
},
{
place = (4,267);
type = Stem;
},
{
horizontal = 1;
place = (611,-12);
type = Stem;
},
{
place = (-241,-12);
type = Stem;
},
{
place = (-48,-11);
type = Stem;
}
);
shapes = (
{
closed = 1;
nodes = (
(162,0,l),
(286,700,l),
(129,700,l),
(4,0,l)
);
},
{
closed = 1;
nodes = (
(407,759,o),
(448,801,o),
(448,854,cs),
(448,909,o),
(407,949,o),
(353,949,cs),
(299,949,o),
(258,909,o),
(258,854,cs),
(258,801,o),
(299,759,o),
(353,759,cs)
);
},
{
closed = 1;
nodes = (
(170,759,o),
(210,801,o),
(210,854,cs),
(210,909,o),
(170,949,o),
(115,949,cs),
(61,949,o),
(20,909,o),
(20,854,cs),
(20,801,o),
(61,759,o),
(115,759,cs)
);
}
);
};
hints = (
{
horizontal = 1;
place = (763,140);
type = Stem;
},
{
place = (79,138);
type = Stem;
},
{
place = (271,139);
type = Stem;
}
);
layerId = "3DCB9202-475F-4A42-ABEA-4A11C2D29AB5";
shapes = (
{
ref = I;
},
{
pos = (-89,0);
ref = dieresiscomb.case;
}
);
width = 255;
}
);
note = Idieresis;
unicode = 207;
},
{
glyphname = Idotaccent;
lastChange = "2023-05-03 08:05:36 +0000";
layers = (
{
background = {
anchors = (
{
name = bottom;
pos = (73,0);
},
{
name = ogonek;
pos = (115,0);
},
{
name = top;
pos = (230,889);
},
{
name = topleft;
pos = (100,700);
}
);
hints = (
{
horizontal = 1;
place = (0,700);
type = Stem;
},
{
place = (31,207);
type = Stem;
},
{
horizontal = 1;
place = (619,-47);
type = Stem;
},
{
place = (-89,-47);
type = Stem;
}
);
shapes = (
{
closed = 1;
nodes = (
(115,0,l),
(238,700,l),
(154,700,l),
(31,0,l)
);
},
{
closed = 1;
nodes = (
(252,775,o),
(278,800,o),
(278,833,cs),
(278,865,o),
(252,889,o),
(220,889,cs),
(187,889,o),
(162,865,o),
(162,833,cs),
(162,800,o),
(187,775,o),
(220,775,cs)
);
}
);
};
hints = (
{
horizontal = 1;
place = (766,100);
type = Stem;
},
{
place = (166,99);
type = Stem;
}
);
layerId = m01;
shapes = (
{
ref = I;
},
{
pos = (58,0);
ref = dotaccentcomb.case;
}
);
width = 233;
},
{
background = {
anchors = (
{
name = bottom;
pos = (78,0);
},
{
name = ogonek;
pos = (142,0);
},
{
name = top;
pos = (244,934);
},
{
name = topleft;
pos = (90,700);
}
);
hints = (
{
horizontal = 1;
place = (-10,690);
type = Stem;
},
{
place = (14,242);
type = Stem;
},
{
horizontal = 1;
place = (614,-26);
type = Stem;
},
{
place = (-112,-26);
type = Stem;
}
);
shapes = (
{
closed = 1;
nodes = (
(142,0,l),
(266,700,l),
(138,700,l),
(14,0,l)
);
},
{
closed = 1;
nodes = (
(276,768,o),
(312,804,o),
(312,851,cs),
(312,898,o),
(276,934,o),
(229,934,cs),
(182,934,o),
(146,898,o),
(146,851,cs),
(146,804,o),
(182,768,o),
(229,768,cs)
);
}
);
};
hints = (
{
horizontal = 1;
place = (764,124);
type = Stem;
},
{
place = (171,123);
type = Stem;
}
);
layerId = "C673E357-C9AB-4A21-92F5-E812FFC50395";
shapes = (
{
ref = I;
},
{
pos = (38,0);
ref = dotaccentcomb.case;
}
);
width = 244;
},
{
background = {
anchors = (
{
name = bottom;
pos = (83,0);
},
{
name = ogonek;
pos = (162,0);
},
{
name = top;
pos = (251,949);
},
{
name = topleft;
pos = (85,700);
}
);
hints = (
{
horizontal = 1;
place = (-15,685);
type = Stem;
},
{
place = (4,267);
type = Stem;
},
{
horizontal = 1;
place = (611,-12);
type = Stem;
},
{
place = (-121,-12);
type = Stem;
}
);
shapes = (
{
closed = 1;
nodes = (
(162,0,l),
(286,700,l),
(129,700,l),
(4,0,l)
);
},
{
closed = 1;
nodes = (
(288,759,o),
(330,800,o),
(330,854,cs),
(330,908,o),
(288,949,o),
(233,949,cs),
(183,949,o),
(139,908,o),
(139,854,cs),
(139,800,o),
(183,759,o),
(233,759,cs)
);
}
);
};
hints = (
{
horizontal = 1;
place = (763,140);
type = Stem;
},
{
place = (174,139);
type = Stem;
}
);
layerId = "3DCB9202-475F-4A42-ABEA-4A11C2D29AB5";
shapes = (
{
ref = I;
},
{
pos = (31,0);
ref = dotaccentcomb.case;
}
);
width = 255;
}
);
note = Idotaccent;
unicode = 304;
},
{
glyphname = Igrave;
lastChange = "2023-05-03 08:05:36 +0000";
layers = (
{
background = {
anchors = (
{
name = bottom;
pos = (73,0);
},
{
name = ogonek;
pos = (115,0);
},
{
name = top;
pos = (238,931);
},
{
name = topleft;
pos = (100,700);
}
);
hints = (
{
horizontal = 1;
place = (0,700);
type = Stem;
},
{
place = (31,207);
type = Stem;
},
{
horizontal = 1;
place = (594,43);
type = Stem;
},
{
place = (-135,63);
type = Stem;
}
);
shapes = (
{
closed = 1;
nodes = (
(115,0,l),
(238,700,l),
(154,700,l),
(31,0,l)
);
},
{
closed = 1;
nodes = (
(320,804,l),
(133,931,l),
(120,858,l),
(309,741,l)
);
}
);
};
hints = (
{
horizontal = 1;
place = (0,931);
type = Stem;
},
{
place = (31,212);
type = Stem;
}
);
layerId = m01;
shapes = (
{
ref = I;
},
{
pos = (12,0);
ref = gravecomb.case;
}
);
width = 233;
},
{
background = {
anchors = (
{
name = bottom;
pos = (78,0);
},
{
name = ogonek;
pos = (142,0);
},
{
name = top;
pos = (247,952);
},
{
name = topleft;
pos = (90,700);
}
);
hints = (
{
horizontal = 1;
place = (-10,690);
type = Stem;
},
{
place = (14,242);
type = Stem;
},
{
horizontal = 1;
place = (591,63);
type = Stem;
},
{
place = (-140,77);
type = Stem;
}
);
shapes = (
{
closed = 1;
nodes = (
(142,0,l),
(266,700,l),
(138,700,l),
(14,0,l)
);
},
{
closed = 1;
nodes = (
(338,830,l),
(134,952,l),
(115,848,l),
(322,740,l)
);
}
);
};
hints = (
{
horizontal = 1;
place = (0,952);
type = Stem;
},
{
place = (24,252);
type = Stem;
}
);
layerId = "C673E357-C9AB-4A21-92F5-E812FFC50395";
shapes = (
{
ref = I;
},
{
pos = (9,0);
ref = gravecomb.case;
}
);
width = 244;
},
{
background = {
anchors = (
{
name = bottom;
pos = (83,0);
},
{
name = ogonek;
pos = (162,0);
},
{
name = top;
pos = (255,966);
},
{
name = topleft;
pos = (85,700);
}
);
hints = (
{
horizontal = 1;
place = (-15,685);
type = Stem;
},
{
place = (4,267);
type = Stem;
},
{
horizontal = 1;
place = (589,76);
type = Stem;
},
{
place = (-141,86);
type = Stem;
}
);
shapes = (
{
closed = 1;
nodes = (
(162,0,l),
(286,700,l),
(129,700,l),
(4,0,l)
);
},
{
closed = 1;
nodes = (
(352,847,l),
(137,966,l),
(114,841,l),
(333,739,l)
);
}
);
};
hints = (
{
horizontal = 1;
place = (0,966);
type = Stem;
},
{
place = (19,279);
type = Stem;
}
);
layerId = "3DCB9202-475F-4A42-ABEA-4A11C2D29AB5";
shapes = (
{
ref = I;
},
{
pos = (9,0);
ref = gravecomb.case;
}
);
width = 255;
}
);
note = Igrave;
unicode = 204;
},
{
glyphname = Imacron;
lastChange = "2023-05-03 08:05:36 +0000";
layers = (
{
background = {
anchors = (
{
name = bottom;
pos = (73,0);
},
{
name = ogonek;
pos = (115,0);
},
{
name = top;
pos = (225,859);
},
{
name = topleft;
pos = (100,700);
}
);
hints = (
{
horizontal = 1;
place = (0,700);
type = Stem;
},
{
place = (31,207);
type = Stem;
},
{
horizontal = 1;
place = (650,-83);
type = Stem;
},
{
place = (-204,201);
type = Stem;
}
);
shapes = (
{
closed = 1;
nodes = (
(115,0,l),
(238,700,l),
(154,700,l),
(31,0,l)
);
},
{
closed = 1;
nodes = (
(386,796,l),
(398,859,l),
(51,859,l),
(39,796,l)
);
}
);
};
hints = (
{
horizontal = 1;
place = (796,63);
type = Stem;
},
{
place = (31,366);
type = Stem;
}
);
layerId = m01;
shapes = (
{
ref = I;
},
{
pos = (-58,0);
ref = macroncomb.case;
}
);
width = 233;
},
{
background = {
anchors = (
{
name = bottom;
pos = (78,0);
},
{
name = ogonek;
pos = (142,0);
},
{
name = top;
pos = (233,874);
},
{
name = topleft;
pos = (90,700);
}
);
hints = (
{
horizontal = 1;
place = (-10,690);
type = Stem;
},
{
place = (14,242);
type = Stem;
},
{
horizontal = 1;
place = (637,-55);
type = Stem;
},
{
place = (-210,228);
type = Stem;
}
);
shapes = (
{
closed = 1;
nodes = (
(142,0,l),
(266,700,l),
(138,700,l),
(14,0,l)
);
},
{
closed = 1;
nodes = (
(404,783,l),
(420,874,l),
(46,874,l),
(30,783,l)
);
}
);
};
hints = (
{
horizontal = 1;
place = (783,91);
type = Stem;
},
{
place = (24,403);
type = Stem;
}
);
layerId = "C673E357-C9AB-4A21-92F5-E812FFC50395";
shapes = (
{
ref = I;
},
{
pos = (-64,0);
ref = macroncomb.case;
}
);
width = 244;
},
{
background = {
anchors = (
{
name = bottom;
pos = (83,0);
},
{
name = ogonek;
pos = (162,0);
},
{
name = top;
pos = (240,884);
},
{
name = topleft;
pos = (85,700);
}
);
hints = (
{
horizontal = 1;
place = (-15,685);
type = Stem;
},
{
place = (4,267);
type = Stem;
},
{
horizontal = 1;
place = (628,-36);
type = Stem;
},
{
place = (-212,246);
type = Stem;
}
);
shapes = (
{
closed = 1;
nodes = (
(162,0,l),
(286,700,l),
(129,700,l),
(4,0,l)
);
},
{
closed = 1;
nodes = (
(418,774,l),
(437,884,l),
(45,884,l),
(26,774,l)
);
}
);
};
hints = (
{
horizontal = 1;
place = (774,110);
type = Stem;
},
{
place = (19,428);
type = Stem;
}
);
layerId = "3DCB9202-475F-4A42-ABEA-4A11C2D29AB5";
shapes = (
{
ref = I;
},
{
pos = (-66,0);
ref = macroncomb.case;
}
);
width = 255;
}
);
note = Imacron;
unicode = 298;
},
{
glyphname = Iogonek;
lastChange = "2023-05-03 08:05:36 +0000";
layers = (
{
background = {
anchors = (
{
name = bottom;
pos = (73,0);
},
{
name = ogonek;
pos = (115,0);
},
{
name = top;
pos = (197,700);
},
{
name = topleft;
pos = (100,700);
}
);
hints = (
{
horizontal = 1;
place = (0,700);
type = Stem;
},
{
place = (31,207);
type = Stem;
},
{
horizontal = 1;
place = (-189,68);
type = Stem;
},
{
place = (-18,82);
type = Stem;
}
);
shapes = (
{
closed = 1;
nodes = (
(115,0,l),
(238,700,l),
(154,700,l),
(31,0,l)
);
},
{
closed = 1;
nodes = (
(32,-203,o),
(58,-199,o),
(85,-190,c),
(94,-134,l),
(70,-144,o),
(47,-149,o),
(27,-149,cs),
(-5,-149,o),
(-26,-134,o),
(-26,-109,cs),
(-26,-81,o),
(-6,-54,o),
(52,-28,cs),
(115,0,l),
(102,43,l),
(45,20,ls),
(-61,-23,o),
(-96,-72,o),
(-96,-127,cs),
(-96,-179,o),
(-49,-203,o),
(7,-203,cs)
);
}
);
};
hints = (
{
horizontal = 1;
place = (-202,54);
type = Stem;
},
{
place = (-96,334);
type = Stem;
}
);
layerId = m01;
shapes = (
{
ref = I;
},
{
pos = (-32,0);
ref = ogonekcomb.case;
}
);
width = 233;
},
{
background = {
anchors = (
{
name = bottom;
pos = (78,0);
},
{
name = ogonek;
pos = (142,0);
},
{
name = top;
pos = (202,700);
},
{
name = topleft;
pos = (90,700);
}
);
hints = (
{
horizontal = 1;
place = (-10,690);
type = Stem;
},
{
place = (14,242);
type = Stem;
},
{
horizontal = 1;
place = (-197,88);
type = Stem;
},
{
place = (-16,110);
type = Stem;
},
{
place = (-16,233);
type = Stem;
}
);
shapes = (
{
closed = 1;
nodes = (
(142,0,l),
(266,700,l),
(138,700,l),
(14,0,l)
);
},
{
closed = 1;
nodes = (
(54,-210,o),
(86,-204,o),
(113,-196,c),
(126,-120,l),
(98,-130,o),
(73,-135,o),
(52,-135,cs),
(24,-135,o),
(7,-122,o),
(7,-102,cs),
(7,-74,o),
(27,-53,o),
(86,-26,cs),
(142,0,l),
(124,60,l),
(74,40,ls),
(-55,-12,o),
(-93,-65,o),
(-93,-126,cs),
(-93,-184,o),
(-42,-210,o),
(23,-210,cs)
);
}
);
};
hints = (
{
horizontal = 1;
place = (-210,75);
type = Stem;
},
{
place = (-82,358);
type = Stem;
}
);
layerId = "C673E357-C9AB-4A21-92F5-E812FFC50395";
shapes = (
{
ref = I;
},
{
pos = (-29,0);
ref = ogonekcomb.case;
}
);
width = 244;
},
{
background = {
anchors = (
{
name = bottom;
pos = (83,0);
},
{
name = ogonek;
pos = (162,0);
},
{
name = top;
pos = (207,700);
},
{
name = topleft;
pos = (85,700);
}
);
hints = (
{
horizontal = 1;
place = (-15,685);
type = Stem;
},
{
place = (4,267);
type = Stem;
},
{
horizontal = 1;
place = (-202,101);
type = Stem;
},
{
place = (-13,334);
type = Stem;
}
);
shapes = (
{
closed = 1;
nodes = (
(162,0,l),
(286,700,l),
(129,700,l),
(4,0,l)
);
},
{
closed = 1;
nodes = (
(70,-215,o),
(106,-207,o),
(133,-200,c),
(149,-111,l),
(118,-121,o),
(92,-126,o),
(70,-126,cs),
(45,-126,o),
(31,-115,o),
(31,-98,cs),
(31,-71,o),
(51,-52,o),
(110,-25,cs),
(162,0,l),
(140,71,l),
(95,53,ls),
(-48,-5,o),
(-89,-61,o),
(-89,-127,cs),
(-89,-188,o),
(-35,-215,o),
(35,-215,cs)
);
}
);
};
hints = (
{
horizontal = 1;
place = (-215,89);
type = Stem;
},
{
place = (-73,374);
type = Stem;
}
);
layerId = "3DCB9202-475F-4A42-ABEA-4A11C2D29AB5";
shapes = (
{
ref = I;
},
{
pos = (-25,0);
ref = ogonekcomb.case;
}
);
width = 255;
}
);
note = Iogonek;
unicode = 302;
},
{
glyphname = Itilde;
lastChange = "2023-05-11 00:53:52 +0000";
layers = (
{
background = {
anchors = (
{
name = bottom;
pos = (73,0);
},
{
name = ogonek;
pos = (115,0);
},
{
name = top;
pos = (225,859);
},
{
name = topleft;
pos = (100,700);
}
);
hints = (
{
horizontal = 1;
place = (0,700);
type = Stem;
},
{
place = (31,207);
type = Stem;
},
{
horizontal = 1;
place = (614,-86);
type = Stem;
},
{
place = (-176,-93);
type = Stem;
},
{
place = (77,-93);
type = Stem;
},
{
horizontal = 1;
place = (661,-86);
type = Stem;
}
);
shapes = (
{
closed = 1;
nodes = (
(115,0,l),
(238,700,l),
(154,700,l),
(31,0,l)
);
},
{
closed = 1;
nodes = (
(313,756,o),
(356,792,o),
(376,857,c),
(327,857,l),
(317,826,o),
(297,812,o),
(276,812,cs),
(230,812,o),
(223,859,o),
(169,859,cs),
(118,859,o),
(77,826,o),
(56,758,c),
(105,758,l),
(115,788,o),
(131,803,o),
(155,803,cs),
(202,803,o),
(207,756,o),
(262,756,cs)
);
}
);
};
hints = (
{
horizontal = 1;
place = (804,56);
type = Stem;
},
{
place = (31,353);
type = Stem;
},
{
horizontal = 1;
place = (757,56);
type = Stem;
}
);
layerId = m01;
shapes = (
{
ref = I;
},
{
pos = (-34,0);
ref = tildecomb.case;
}
);
width = 233;
},
{
background = {
anchors = (
{
name = bottom;
pos = (78,0);
},
{
name = ogonek;
pos = (142,0);
},
{
name = top;
pos = (233,877);
},
{
name = topleft;
pos = (90,700);
}
);
hints = (
{
horizontal = 1;
place = (-10,690);
type = Stem;
},
{
place = (14,242);
type = Stem;
},
{
horizontal = 1;
place = (608,-65);
type = Stem;
},
{
place = (-198,207);
type = Stem;
},
{
horizontal = 1;
place = (654,-65);
type = Stem;
}
);
shapes = (
{
closed = 1;
nodes = (
(142,0,l),
(266,700,l),
(138,700,l),
(14,0,l)
);
},
{
closed = 1;
nodes = (
(329,752,o),
(381,791,o),
(408,876,c),
(340,876,l),
(330,845,o),
(312,831,o),
(289,831,cs),
(242,831,o),
(229,877,o),
(174,877,cs),
(113,877,o),
(63,838,o),
(35,753,c),
(103,753,l),
(113,783,o),
(130,798,o),
(154,798,cs),
(201,798,o),
(214,752,o),
(269,752,cs)
);
}
);
};
hints = (
{
horizontal = 1;
place = (800,80);
type = Stem;
},
{
place = (24,398);
type = Stem;
},
{
horizontal = 1;
place = (755,79);
type = Stem;
}
);
layerId = "C673E357-C9AB-4A21-92F5-E812FFC50395";
shapes = (
{
ref = I;
},
{
pos = (-54,0);
ref = tildecomb.case;
}
);
width = 244;
},
{
background = {
anchors = (
{
name = bottom;
pos = (83,0);
},
{
name = ogonek;
pos = (162,0);
},
{
name = top;
pos = (240,889);
},
{
name = topleft;
pos = (85,700);
}
);
hints = (
{
horizontal = 1;
place = (-15,685);
type = Stem;
},
{
place = (4,267);
type = Stem;
},
{
horizontal = 1;
place = (604,-51);
type = Stem;
},
{
place = (29,62);
type = Stem;
},
{
place = (-380,407);
type = Stem;
},
{
horizontal = 1;
place = (649,-51);
type = Stem;
}
);
shapes = (
{
closed = 1;
nodes = (
(162,0,l),
(286,700,l),
(129,700,l),
(4,0,l)
);
},
{
closed = 1;
nodes = (
(341,749,o),
(399,790,o),
(431,889,c),
(350,889,l),
(340,858,o),
(323,844,o),
(299,844,cs),
(251,844,o),
(234,889,o),
(179,889,cs),
(111,889,o),
(55,846,o),
(22,750,c),
(103,750,l),
(113,780,o),
(131,795,o),
(155,795,cs),
(202,795,o),
(220,749,o),
(275,749,cs)
);
}
);
};
hints = (
{
horizontal = 1;
place = (797,96);
type = Stem;
},
{
place = (19,428);
type = Stem;
},
{
horizontal = 1;
place = (754,94);
type = Stem;
}
);
layerId = "3DCB9202-475F-4A42-ABEA-4A11C2D29AB5";
shapes = (
{
ref = I;
},
{
pos = (-54,0);
ref = tildecomb.case;
}
);
width = 255;
}
);
note = Itilde;
unicode = 296;
},
{
glyphname = J;
lastChange = "2023-05-03 08:05:32 +0000";
layers = (
{
anchors = (
{
name = bottom;
pos = (199,0);
},
{
name = top;
pos = (447,700);
}
);
background = {
anchors = (
{
name = bottom;
pos = (199,0);
},
{
name = top;
pos = (447,700);
}
);
hints = (
{
horizontal = 1;
place = (-12,75);
type = Stem;
},
{
place = (15,86);
type = Stem;
}
);
shapes = (
{
closed = 1;
nodes = (
(293,-12,o),
(379,60,o),
(399,172,cs),
(491,700,l),
(407,700,l),
(315,172,ls),
(305,116,o),
(266,63,o),
(191,63,cs),
(127,63,o),
(101,101,o),
(101,153,cs),
(101,164,o),
(102,175,o),
(104,186,c),
(19,186,l),
(16,170,o),
(15,155,o),
(15,141,cs),
(15,44,o),
(76,-12,o),
(178,-12,cs)
);
}
);
};
hints = (
{
horizontal = 1;
place = (-12,75);
type = Stem;
},
{
place = (15,86);
type = Stem;
}
);
layerId = m01;
shapes = (
{
closed = 1;
nodes = (
(293,-12,o),
(379,60,o),
(399,172,cs),
(491,700,l),
(407,700,l),
(315,172,ls),
(305,116,o),
(266,63,o),
(191,63,cs),
(127,63,o),
(101,101,o),
(101,153,cs),
(101,164,o),
(102,175,o),
(104,186,c),
(19,186,l),
(16,170,o),
(15,155,o),
(15,141,cs),
(15,44,o),
(76,-12,o),
(178,-12,cs)
);
}
);
width = 486;
},
{
anchors = (
{
name = bottom;
pos = (207,0);
},
{
name = top;
pos = (457,700);
}
);
background = {
anchors = (
{
name = bottom;
pos = (207,0);
},
{
name = top;
pos = (457,700);
}
);
hints = (
{
horizontal = 1;
place = (-12,114);
type = Stem;
},
{
place = (13,130);
type = Stem;
},
{
horizontal = 1;
place = (-12,220);
type = Stem;
}
);
shapes = (
{
closed = 1;
nodes = (
(315,-12,o),
(412,64,o),
(435,196,cs),
(523,700,l),
(395,700,l),
(307,196,ls),
(297,141,o),
(263,102,o),
(206,102,cs),
(156,102,o),
(133,130,o),
(133,176,cs),
(133,186,o),
(134,197,o),
(136,208,c),
(8,208,l),
(5,190,o),
(3,173,o),
(3,157,cs),
(3,49,o),
(74,-12,o),
(188,-12,cs)
);
}
);
};
hints = (
{
horizontal = 1;
place = (-22,104);
type = Stem;
},
{
place = (3,120);
type = Stem;
},
{
horizontal = 1;
place = (-22,210);
type = Stem;
}
);
layerId = "C673E357-C9AB-4A21-92F5-E812FFC50395";
shapes = (
{
closed = 1;
nodes = (
(315,-12,o),
(412,64,o),
(435,196,cs),
(523,700,l),
(395,700,l),
(307,196,ls),
(297,141,o),
(263,102,o),
(206,102,cs),
(156,102,o),
(133,130,o),
(133,176,cs),
(133,186,o),
(134,197,o),
(136,208,c),
(8,208,l),
(5,190,o),
(3,173,o),
(3,157,cs),
(3,49,o),
(74,-12,o),
(188,-12,cs)
);
}
);
width = 502;
},
{
anchors = (
{
name = bottom;
pos = (214,0);
},
{
name = top;
pos = (465,700);
}
);
background = {
anchors = (
{
name = bottom;
pos = (214,0);
},
{
name = top;
pos = (465,700);
}
);
shapes = (
{
closed = 1;
nodes = (
(331,-12,o),
(436,67,o),
(461,212,cs),
(546,700,l),
(389,700,l),
(303,212,ls),
(293,158,o),
(263,128,o),
(218,128,cs),
(177,128,o),
(156,149,o),
(156,191,cs),
(156,201,o),
(157,212,o),
(159,223,c),
(2,223,l),
(-1,203,o),
(-3,185,o),
(-3,168,cs),
(-3,52,o),
(74,-12,o),
(196,-12,cs)
);
}
);
};
hints = (
{
horizontal = 1;
place = (-27,302);
type = Stem;
},
{
place = (-45,118);
type = Stem;
}
);
layerId = "3DCB9202-475F-4A42-ABEA-4A11C2D29AB5";
shapes = (
{
closed = 1;
nodes = (
(331,-12,o),
(436,67,o),
(461,212,cs),
(546,700,l),
(389,700,l),
(303,212,ls),
(293,158,o),
(263,128,o),
(218,128,cs),
(177,128,o),
(156,149,o),
(156,191,cs),
(156,201,o),
(157,212,o),
(159,223,c),
(2,223,l),
(-1,203,o),
(-3,185,o),
(-3,168,cs),
(-3,52,o),
(74,-12,o),
(196,-12,cs)
);
}
);
width = 516;
}
);
note = J;
unicode = 74;
},
{
glyphname = Jacute;
lastChange = "2023-05-03 08:05:36 +0000";
layers = (
{
background = {
anchors = (
{
name = bottom;
pos = (199,0);
},
{
name = top;
pos = (488,931);
}
);
hints = (
{
horizontal = 1;
place = (-12,75);
type = Stem;
},
{
place = (15,86);
type = Stem;
},
{
horizontal = 1;
place = (594,43);
type = Stem;
},
{
place = (115,63);
type = Stem;
}
);
shapes = (
{
closed = 1;
nodes = (
(293,-12,o),
(379,60,o),
(399,172,cs),
(491,700,l),
(407,700,l),
(315,172,ls),
(305,116,o),
(266,63,o),
(191,63,cs),
(127,63,o),
(101,101,o),
(101,153,cs),
(101,164,o),
(102,175,o),
(104,186,c),
(19,186,l),
(16,170,o),
(15,155,o),
(15,141,cs),
(15,44,o),
(76,-12,o),
(178,-12,cs)
);
},
{
closed = 1;
nodes = (
(580,858,l),
(593,931,l),
(360,804,l),
(349,741,l)
);
}
);
};
layerId = m01;
shapes = (
{
ref = J;
},
{
pos = (262,0);
ref = acutecomb.case;
}
);
width = 486;
},
{
background = {
anchors = (
{
name = bottom;
pos = (207,0);
},
{
name = top;
pos = (502,952);
}
);
hints = (
{
horizontal = 1;
place = (-22,104);
type = Stem;
},
{
place = (3,120);
type = Stem;
},
{
horizontal = 1;
place = (-22,210);
type = Stem;
},
{
horizontal = 1;
place = (591,63);
type = Stem;
},
{
place = (115,77);
type = Stem;
}
);
shapes = (
{
closed = 1;
nodes = (
(315,-12,o),
(412,64,o),
(435,196,cs),
(523,700,l),
(395,700,l),
(307,196,ls),
(297,141,o),
(263,102,o),
(206,102,cs),
(156,102,o),
(133,130,o),
(133,176,cs),
(133,186,o),
(134,197,o),
(136,208,c),
(8,208,l),
(5,190,o),
(3,173,o),
(3,157,cs),
(3,49,o),
(74,-12,o),
(188,-12,cs)
);
},
{
closed = 1;
nodes = (
(596,848,l),
(615,952,l),
(367,830,l),
(351,740,l)
);
}
);
};
layerId = "C673E357-C9AB-4A21-92F5-E812FFC50395";
shapes = (
{
ref = J;
},
{
pos = (264,0);
ref = acutecomb.case;
}
);
width = 502;
},
{
background = {
anchors = (
{
name = bottom;
pos = (214,0);
},
{
name = top;
pos = (513,966);
}
);
hints = (
{
horizontal = 1;
place = (-27,302);
type = Stem;
},
{
place = (-45,118);
type = Stem;
},
{
horizontal = 1;
place = (589,76);
type = Stem;
},
{
place = (117,86);
type = Stem;
}
);
shapes = (
{
closed = 1;
nodes = (
(331,-12,o),
(436,67,o),
(461,212,cs),
(546,700,l),
(389,700,l),
(303,212,ls),
(293,158,o),
(263,128,o),
(218,128,cs),
(177,128,o),
(156,149,o),
(156,191,cs),
(156,201,o),
(157,212,o),
(159,223,c),
(2,223,l),
(-1,203,o),
(-3,185,o),
(-3,168,cs),
(-3,52,o),
(74,-12,o),
(196,-12,cs)
);
},
{
closed = 1;
nodes = (
(608,841,l),
(631,966,l),
(373,847,l),
(354,739,l)
);
}
);
};
layerId = "3DCB9202-475F-4A42-ABEA-4A11C2D29AB5";
shapes = (
{
ref = J;
},
{
pos = (267,0);
ref = acutecomb.case;
}
);
width = 516;
}
);
},
{
glyphname = K;
kernRight = K;
lastChange = "2023-05-03 08:05:32 +0000";
layers = (
{
anchors = (
{
name = bottom;
pos = (251,0);
},
{
name = top;
pos = (375,700);
}
);
background = {
anchors = (
{
name = bottom;
pos = (251,0);
},
{
name = top;
pos = (375,700);
}
);
shapes = (
{
closed = 1;
nodes = (
(115,0,l),
(163,273,l),
(259,360,l),
(420,0,l),
(517,0,l),
(327,421,l),
(636,700,l),
(530,700,l),
(183,383,l),
(238,700,l),
(154,700,l),
(31,0,l)
);
}
);
};
hints = (
{
horizontal = 1;
place = (0,700);
type = Stem;
},
{
place = (31,605);
type = Stem;
}
);
layerId = m01;
shapes = (
{
closed = 1;
nodes = (
(115,0,l),
(163,273,l),
(259,360,l),
(420,0,l),
(517,0,l),
(327,421,l),
(636,700,l),
(530,700,l),
(183,383,l),
(238,700,l),
(154,700,l),
(31,0,l)
);
}
);
width = 589;
},
{
anchors = (
{
name = bottom;
pos = (270,0);
},
{
name = top;
pos = (394,700);
}
);
background = {
anchors = (
{
name = bottom;
pos = (270,0);
},
{
name = top;
pos = (394,700);
}
);
shapes = (
{
closed = 1;
nodes = (
(142,0,l),
(188,261,l),
(272,339,l),
(415,0,l),
(566,0,l),
(376,433,l),
(666,700,l),
(505,700,l),
(218,431,l),
(266,700,l),
(138,700,l),
(14,0,l)
);
}
);
};
hints = (
{
horizontal = 1;
place = (-10,690);
type = Stem;
},
{
place = (15,658);
type = Stem;
}
);
layerId = "C673E357-C9AB-4A21-92F5-E812FFC50395";
shapes = (
{
closed = 1;
nodes = (
(142,0,l),
(188,261,l),
(272,339,l),
(415,0,l),
(566,0,l),
(376,433,l),
(666,700,l),
(505,700,l),
(218,431,l),
(266,700,l),
(138,700,l),
(14,0,l)
);
}
);
width = 627;
},
{
anchors = (
{
name = bottom;
pos = (284,0);
},
{
name = top;
pos = (408,700);
}
);
background = {
anchors = (
{
name = bottom;
pos = (284,0);
},
{
name = top;
pos = (408,700);
}
);
shapes = (
{
closed = 1;
nodes = (
(162,0,l),
(206,253,l),
(282,325,l),
(413,0,l),
(596,0,l),
(405,436,l),
(688,700,l),
(490,700,l),
(243,463,l),
(286,700,l),
(129,700,l),
(4,0,l)
);
}
);
};
hints = (
{
horizontal = 1;
place = (-15,685);
type = Stem;
},
{
place = (6,695);
type = Stem;
}
);
layerId = "3DCB9202-475F-4A42-ABEA-4A11C2D29AB5";
shapes = (
{
closed = 1;
nodes = (
(162,0,l),
(206,253,l),
(282,325,l),
(413,0,l),
(596,0,l),
(405,436,l),
(688,700,l),
(490,700,l),
(243,463,l),
(286,700,l),
(129,700,l),
(4,0,l)
);
}
);
width = 656;
}
);
note = K;
unicode = 75;
},
{
glyphname = Kcommaaccent;
kernRight = K;
lastChange = "2023-05-03 08:05:36 +0000";
layers = (
{
background = {
anchors = (
{
name = bottom;
pos = (209,-238);
},
{
name = top;
pos = (375,700);
}
);
hints = (
{
horizontal = 1;
place = (0,700);
type = Stem;
},
{
place = (31,605);
type = Stem;
},
{
horizontal = 1;
place = (-213,65);
type = Stem;
},
{
horizontal = 1;
place = (-102,102);
type = Stem;
},
{
horizontal = 1;
place = (461,97);
type = Stem;
},
{
place = (340,109);
type = Stem;
},
{
place = (575,75);
type = Stem;
},
{
place = (701,109);
type = Stem;
},
{
place = (340,104);
type = Stem;
}
);
shapes = (
{
closed = 1;
nodes = (
(115,0,l),
(163,273,l),
(259,360,l),
(420,0,l),
(517,0,l),
(327,421,l),
(636,700,l),
(530,700,l),
(183,383,l),
(238,700,l),
(154,700,l),
(31,0,l)
);
},
{
closed = 1;
nodes = (
(247,-238,o),
(280,-167,o),
(280,-92,cs),
(280,-78,o),
(279,-64,o),
(277,-50,c),
(196,-50,l),
(182,-127,l),
(227,-127,l),
(225,-141,ls),
(220,-179,o),
(198,-198,o),
(167,-198,c),
(160,-238,l)
);
}
);
};
hints = (
{
horizontal = 1;
place = (-238,40);
type = Stem;
},
{
horizontal = 1;
place = (-127,77);
type = Stem;
},
{
place = (220,55);
type = Stem;
}
);
layerId = m01;
shapes = (
{
ref = K;
},
{
pos = (246,0);
ref = commaaccentcomb;
}
);
width = 589;
},
{
background = {
anchors = (
{
name = bottom;
pos = (222,-274);
},
{
name = top;
pos = (394,700);
}
);
hints = (
{
horizontal = 1;
place = (-10,690);
type = Stem;
},
{
place = (15,658);
type = Stem;
},
{
horizontal = 1;
place = (-266,60);
type = Stem;
},
{
horizontal = 1;
place = (-137,108);
type = Stem;
},
{
horizontal = 1;
place = (408,116);
type = Stem;
},
{
place = (325,136);
type = Stem;
},
{
place = (575,77);
type = Stem;
},
{
place = (683,136);
type = Stem;
},
{
place = (325,126);
type = Stem;
},
{
horizontal = 1;
place = (408,104);
type = Stem;
},
{
place = (520,132);
type = Stem;
}
);
shapes = (
{
closed = 1;
nodes = (
(142,0,l),
(188,261,l),
(272,339,l),
(415,0,l),
(566,0,l),
(376,433,l),
(666,700,l),
(505,700,l),
(218,431,l),
(266,700,l),
(138,700,l),
(14,0,l)
);
},
{
closed = 1;
nodes = (
(282,-274,o),
(312,-168,o),
(312,-86,cs),
(312,-73,o),
(311,-59,o),
(309,-45,c),
(200,-45,l),
(183,-145,l),
(238,-145,l),
(235,-160,ls),
(227,-201,o),
(207,-222,o),
(174,-222,c),
(165,-274,l)
);
}
);
};
hints = (
{
horizontal = 1;
place = (-274,52);
type = Stem;
},
{
horizontal = 1;
place = (-145,100);
type = Stem;
},
{
place = (247.5,73.5);
type = Stem;
}
);
layerId = "C673E357-C9AB-4A21-92F5-E812FFC50395";
shapes = (
{
ref = K;
},
{
pos = (252,0);
ref = commaaccentcomb;
}
);
width = 627;
},
{
background = {
anchors = (
{
name = bottom;
pos = (232,-298);
},
{
name = top;
pos = (408,700);
}
);
hints = (
{
horizontal = 1;
place = (-15,685);
type = Stem;
},
{
place = (6,695);
type = Stem;
},
{
horizontal = 1;
place = (-86,137);
type = Stem;
},
{
horizontal = 1;
place = (748,105);
type = Stem;
},
{
horizontal = 1;
place = (373,129);
type = Stem;
},
{
place = (731,56);
type = Stem;
},
{
place = (754,177);
type = Stem;
},
{
place = (-492,27);
type = Stem;
},
{
place = (639,151);
type = Stem;
}
);
shapes = (
{
closed = 1;
nodes = (
(162,0,l),
(206,253,l),
(282,325,l),
(413,0,l),
(596,0,l),
(405,436,l),
(688,700,l),
(490,700,l),
(243,463,l),
(286,700,l),
(129,700,l),
(4,0,l)
);
},
{
closed = 1;
nodes = (
(299,-298,o),
(333,-178,o),
(333,-95,cs),
(333,-78,o),
(332,-60,o),
(328,-42,c),
(204,-42,l),
(185,-157,l),
(246,-157,l),
(243,-173,ls),
(235,-216,o),
(214,-238,o),
(180,-238,c),
(169,-298,l)
);
}
);
};
hints = (
{
horizontal = 1;
place = (-298,60);
type = Stem;
},
{
horizontal = 1;
place = (-157,115);
type = Stem;
},
{
place = (266,86);
type = Stem;
}
);
layerId = "3DCB9202-475F-4A42-ABEA-4A11C2D29AB5";
shapes = (
{
ref = K;
},
{
pos = (255,0);
ref = commaaccentcomb;
}
);
width = 656;
}
);
note = uni0136;
unicode = 310;
},
